<svg width="523" height="297" fill="none" xmlns="http://www.w3.org/2000/svg"><path d="M298.494 62.17c-2.17-.786-4.536-1.096-6.875-1.542-8.674-12.39-21.269-20.954-35.239-24.788a3.337 3.337 0 0 1-.113-.59 3.229 3.229 0 0 0-.205-.862c-.759-1.995-3.429-3.944-7.416-4.557a13.454 13.454 0 0 0-2.419-.152c-.762.007-1.494.067-2.162.2-1.319.267-2.397.756-3.186 1.394-.526.425-.911.903-1.144 1.426-.05.108-.128.24-.206.37-.01.026-.028.042-.048.074-.077.132-.181.27-.277.417a63.268 63.268 0 0 0-26.921 6.16 63.735 63.735 0 0 0-15.924 10.772c-2.384.073-4.778.043-7.011.528-4.544.992-8.095 5.886-10.123 9.68-2.135 3.983-4.097 9.4-2.384 13.909.513 1.345 1.21 2.643 1.95 3.918-.187.594-.349 1.2-.511 1.804-.001.017-.011.042-.013.059-.243.916-.479 1.84-.689 2.758-.011.042-.023.084-.026.135-.209.901-.383 1.805-.55 2.717-.013.076-.027.152-.032.22a70.975 70.975 0 0 0-.408 2.659c-.017.11-.024.212-.04.322a64.512 64.512 0 0 0-.275 2.59c-.019.145-.021.29-.039.434-.067.825-.125 1.66-.149 2.497-.013.187-.009.376-.013.555a73.728 73.728 0 0 0-.031 2.394c.002.222.011.454.013.676a67.8 67.8 0 0 0 .08 2.282c.015.275.039.542.054.817.052.722.104 1.444.183 2.16l.112.958c.081.681.154 1.354.261 2.029l.18 1.09c.101.632.21 1.273.338 1.898.083.408.182.817.273 1.234.13.591.252 1.173.4 1.748.113.461.251.933.373 1.386.143.532.285 1.064.445 1.597.159.534.337 1.051.515 1.568.155.473.302.937.467 1.402.229.632.477 1.248.724 1.881.137.361.274.721.421 1.074a63.481 63.481 0 0 0 8.469 14.582 7.213 7.213 0 0 1-.161.588.48.48 0 0 1-.042.116 4.145 4.145 0 0 1-.179.476c-1.135 2.41.362 6.69 4.697 10.408.542.457 1.085.88 1.623 1.26 1.616 1.122 3.217 1.842 4.664 2.2 1.935.477 3.598.311 4.709-.416.108-.078.242-.145.383-.204 17.83 11.515 41.001 13.845 61.597 4.162l.239-.112a59.594 59.594 0 0 0 2.599-1.315c.196-.106.401-.22.604-.317a79.28 79.28 0 0 0 2.46-1.403c.098-.053.188-.115.287-.185.733-.445 1.44-.9 2.14-1.365.189-.132.386-.255.575-.387a52.428 52.428 0 0 0 2.216-1.591l.461-.353a70.05 70.05 0 0 0 1.793-1.415c.055-.047.117-.086.163-.125l.099.058c1.44.939 3.873.776 6.422-.689a14.014 14.014 0 0 0 2.572-1.899c2.98-2.735 4.086-5.824 3.616-7.91a3.675 3.675 0 0 0-.292-.834 2.157 2.157 0 0 1-.14-.326c-.007-.026-.022-.061-.036-.097-.036-.096-.071-.21-.106-.324-.007-.026-.021-.061-.028-.087-.034-.131-.076-.254-.101-.392.001-.017-.015-.035-.013-.052-.041-.157-.072-.322-.111-.496.057-.081.123-.171.172-.262.325-.49.651-.981.968-1.481.259-.401.51-.811.761-1.221.241-.386.465-.772.69-1.176.213-.361.411-.741.617-1.112a64.94 64.94 0 0 0 1.056-2.005c.149-.306.308-.62.458-.926l.662-1.392c.102-.232.194-.457.304-.68.378-.872.747-1.753 1.092-2.645.085-.233.187-.466.272-.699a60.343 60.343 0 0 0 1.655-5.07c.055-.176.102-.361.148-.528a61.361 61.361 0 0 0 1.212-5.341c.026-.135.054-.287.081-.422.8-4.598 1.129-9.299.895-14.021 1.774-2.374 3.885-4.546 5.226-7.07 2.194-4.1.775-9.983-.794-13.977-1.632-4.196-4.473-9.212-9.014-10.83Z" fill="#462793"/><path opacity=".7" d="M298.494 62.17c-2.17-.786-4.536-1.096-6.875-1.542-8.674-12.39-21.269-20.954-35.239-24.788a3.337 3.337 0 0 1-.113-.59 3.229 3.229 0 0 0-.205-.862c-.759-1.995-3.429-3.944-7.416-4.557a13.454 13.454 0 0 0-2.419-.152c-.762.007-1.494.067-2.162.2-1.319.267-2.397.756-3.186 1.394-.526.425-.911.903-1.144 1.426-.05.108-.128.24-.206.37-.01.026-.028.042-.048.074-.077.132-.181.27-.277.417a63.268 63.268 0 0 0-26.921 6.16 63.735 63.735 0 0 0-15.924 10.772c-2.384.073-4.778.043-7.011.528-4.544.992-8.095 5.886-10.123 9.68-2.135 3.983-4.097 9.4-2.384 13.909.513 1.345 1.21 2.643 1.95 3.918-.187.594-.349 1.2-.511 1.804-.001.017-.011.042-.013.059-.243.916-.479 1.84-.689 2.758-.011.042-.023.084-.026.135-.209.901-.383 1.805-.55 2.717-.013.076-.027.152-.032.22a70.975 70.975 0 0 0-.408 2.659c-.017.11-.024.212-.04.322a64.512 64.512 0 0 0-.275 2.59c-.019.145-.021.29-.039.434-.067.825-.125 1.66-.149 2.497-.013.187-.009.376-.013.555a73.728 73.728 0 0 0-.031 2.394c.002.222.011.454.013.676a67.8 67.8 0 0 0 .08 2.282c.015.275.039.542.054.817.052.722.104 1.444.183 2.16l.112.958c.081.681.154 1.354.261 2.029l.18 1.09c.101.632.21 1.273.338 1.898.083.408.182.817.273 1.234.13.591.252 1.173.4 1.748.113.461.251.933.373 1.386.143.532.285 1.064.445 1.597.159.534.337 1.051.515 1.568.155.473.302.937.467 1.402.229.632.477 1.248.724 1.881.137.361.274.721.421 1.074a63.481 63.481 0 0 0 8.469 14.582 7.213 7.213 0 0 1-.161.588.48.48 0 0 1-.042.116 4.145 4.145 0 0 1-.179.476c-1.135 2.41.362 6.69 4.697 10.408.542.457 1.085.88 1.623 1.26 1.616 1.122 3.217 1.842 4.664 2.2 1.935.477 3.598.311 4.709-.416.108-.078.242-.145.383-.204 17.83 11.515 41.001 13.845 61.597 4.162l.239-.112a59.594 59.594 0 0 0 2.599-1.315c.196-.106.401-.22.604-.317a79.28 79.28 0 0 0 2.46-1.403c.098-.053.188-.115.287-.185.733-.445 1.44-.9 2.14-1.365.189-.132.386-.255.575-.387a52.428 52.428 0 0 0 2.216-1.591l.461-.353a70.05 70.05 0 0 0 1.793-1.415c.055-.047.117-.086.163-.125l.099.058c1.44.939 3.873.776 6.422-.689a14.014 14.014 0 0 0 2.572-1.899c2.98-2.735 4.086-5.824 3.616-7.91a3.675 3.675 0 0 0-.292-.834 2.157 2.157 0 0 1-.14-.326c-.007-.026-.022-.061-.036-.097-.036-.096-.071-.21-.106-.324-.007-.026-.021-.061-.028-.087-.034-.131-.076-.254-.101-.392.001-.017-.015-.035-.013-.052-.041-.157-.072-.322-.111-.496.057-.081.123-.171.172-.262.325-.49.651-.981.968-1.481.259-.401.51-.811.761-1.221.241-.386.465-.772.69-1.176.213-.361.411-.741.617-1.112a64.94 64.94 0 0 0 1.056-2.005c.149-.306.308-.62.458-.926l.662-1.392c.102-.232.194-.457.304-.68.378-.872.747-1.753 1.092-2.645.085-.233.187-.466.272-.699a60.343 60.343 0 0 0 1.655-5.07c.055-.176.102-.361.148-.528a61.361 61.361 0 0 0 1.212-5.341c.026-.135.054-.287.081-.422.8-4.598 1.129-9.299.895-14.021 1.774-2.374 3.885-4.546 5.226-7.07 2.194-4.1.775-9.983-.794-13.977-1.632-4.196-4.473-9.212-9.014-10.83Z" fill="#fff"/><path opacity=".2" d="M269.552 142.252c-31.712 15.075-69.641 1.582-84.707-30.138a63.136 63.136 0 0 1-5.728-34.575c-.304.92-.574 1.842-.828 2.783-.001.017-.011.042-.012.059-.244.915-.48 1.84-.689 2.758a.658.658 0 0 0-.027.135c-.037.16-.066.33-.095.498-.154.743-.317 1.476-.446 2.228-.014.076-.019.144-.041.211-.082.44-.13.881-.203 1.312-.074.449-.148.897-.205 1.346-.016.11-.024.213-.04.323a69.3 69.3 0 0 0-.247 2.31c-.015.093-.022.195-.028.28-.019.144-.02.29-.039.434-.043.613-.078 1.235-.112 1.84-.006.214-.029.426-.045.647-.004.18-.017.367-.013.556-.027.76-.038 1.52-.031 2.282-.003.034.003.077-.009.12.002.222.011.454.013.676.005.54.035 1.09.057 1.63.011.214.012.437.023.652.015.275.039.542.054.816.012.198.033.388.046.568.04.525.072 1.058.129 1.584l.113.957c.026.233.061.475.087.708.054.449.101.888.173 1.321l.18 1.091c.054.338.124.676.178 1.014.055.303.103.597.16.884.083.408.183.817.273 1.234.13.591.252 1.172.4 1.747.113.462.251.934.374 1.387.142.532.285 1.064.444 1.597.16.533.337 1.05.515 1.568.155.473.303.936.467 1.401.23.632.477 1.249.724 1.882.137.36.275.721.421 1.073.41.987.839 1.959 1.301 2.932a67.591 67.591 0 0 0 1.549 3.052c.076.142.161.276.228.409.487.873.983 1.738 1.497 2.586l.107.179a67.519 67.519 0 0 0 3.762 5.431c-.05.219-.106.412-.161.588-.012.042-.023.084-.043.117a4.328 4.328 0 0 1-.178.475c-1.136 2.41.362 6.691 4.697 10.408.541.457 1.085.88 1.623 1.26 1.615 1.123 3.216 1.842 4.663 2.2 1.935.477 3.598.311 4.71-.415.108-.078.241-.146.382-.204a70.713 70.713 0 0 0 3.186 1.916c.156.088.313.176.477.273a72.793 72.793 0 0 0 3.071 1.601c.091.049.181.099.281.14a64.344 64.344 0 0 0 7.063 2.881c.159.054.327.1.493.163 1.037.346 2.101.669 3.168.957.176.055.353.093.529.148a64.975 64.975 0 0 0 7.431 1.521l.433.056a70.22 70.22 0 0 0 3.286.358c.23.025.468.041.698.049 1.141.08 2.293.135 3.446.155a2.8 2.8 0 0 1 .265.01 59.282 59.282 0 0 0 3.907-.069l.18-.013a61.362 61.362 0 0 0 3.537-.292c.259-.033.509-.058.768-.091a69.982 69.982 0 0 0 3.173-.471l.624-.111a64.701 64.701 0 0 0 7.515-1.862l.709-.232a59.195 59.195 0 0 0 3.027-1.081c.255-.093.519-.195.766-.297a60.909 60.909 0 0 0 3.582-1.546c.079-.038.159-.075.246-.103a59.148 59.148 0 0 0 2.59-1.308c.205-.114.409-.211.614-.325a81.304 81.304 0 0 0 2.459-1.402c.098-.053.188-.115.287-.185a60.734 60.734 0 0 0 2.14-1.365c.054-.031.099-.07.153-.101.143-.092.287-.185.422-.287a51.77 51.77 0 0 0 2.216-1.59l.434-.329.027-.024a71.843 71.843 0 0 0 1.784-1.407c.055-.048.118-.086.163-.126l.099.059c1.44.939 3.873.775 6.422-.689a13.976 13.976 0 0 0 2.572-1.9c2.981-2.735 4.086-5.823 3.616-7.91a3.667 3.667 0 0 0-.292-.833 2.249 2.249 0 0 1-.14-.326 6.205 6.205 0 0 1-.142-.421c-.007-.026-.021-.061-.028-.088-.034-.13-.076-.253-.101-.392.001-.017-.015-.035-.013-.052-.041-.157-.072-.321-.111-.495.01-.025.028-.041.048-.074.039-.066.094-.13.133-.196.326-.491.651-.981.968-1.481.259-.401.51-.811.761-1.222.147-.255.31-.509.456-.764l.242-.402c.214-.362.411-.741.617-1.112.363-.668.717-1.327 1.056-2.005l.009-.008c.15-.306.307-.603.449-.919.129-.256.241-.513.363-.779.091-.207.2-.413.291-.621.102-.232.195-.457.304-.68.378-.872.748-1.753 1.092-2.645.085-.234.187-.466.272-.7l.009-.008c.285-.775.553-1.552.822-2.329.042-.117.075-.226.118-.343.26-.786.495-1.582.722-2.371l.009-.008c.055-.176.093-.353.148-.529.219-.814.422-1.63.615-2.438.036-.143.063-.278.089-.413a59.21 59.21 0 0 0 .508-2.489c.026-.135.045-.279.072-.414 0 0 .009-.008.001-.017.198-1.116.363-2.251.501-3.379.012-.042.006-.085.018-.127l.009-.136c-5.196 16.065-16.722 30.019-33.157 37.828Z" fill="#462793"/><path d="M239.595 52.352a62.276 62.276 0 0 1-6.816-3.847c-5.219-3.429-9.771-3.07-15.56-.31-5.389 2.558-8.897 5.847-9.572 11.712-.328 2.86-.899 5.644-1.658 8.415-.301 1.125-2.013.518-1.712-.608 1.026-3.77.755-7.981 1.897-11.58 1.426-4.487 6.234-7.66 10.244-9.578 3.842-1.836 9.128-3.52 13.384-2.101 3.663 1.214 6.832 4.473 10.365 6.2 1.069.495.47 2.215-.572 1.697Zm43.068 12.065c-.004 1.155 1.799 1.315 1.803.16.013-2.395.844-4.86.674-7.192-.213-2.95-2.77-5.67-4.951-7.388-2.141-1.69-5.207-3.487-8.074-3.106-2.367.314-4.622 1.602-7.041 2.058-1.153.219-.833 2.004.32 1.785 1.457-.275 2.908-.593 4.31-1.06 3.322-1.127 5.235-1.08 8.358 1.005 3.474 2.322 5.32 4.795 4.933 8.858-.156 1.623-.328 3.229-.332 4.88Zm-8.114 63.289c-1.111.359-.318 1.989.776 1.629 4.273-1.395 8.999-1.553 13.154-2.973 5.015-1.72 7.96-7.256 9.093-12.079 1.142-4.832.964-11.091-2.751-14.867-3.155-3.207-7.165-5.575-10.328-8.92-.797-.842-2.171.336-1.367 1.188 2 2.117 4.073 4.281 6.369 6.076 1.932 1.504 4.135 2.548 5.38 4.808 1.891 3.427 1.716 7.641.851 11.32-.922 3.889-3.013 8.457-6.832 10.338-2.029.996-4.399.864-6.577 1.303-2.63.526-5.219 1.337-7.768 2.177Zm-59.793 2.827c-.42-1.09-2.058-.307-1.629.776 2.612 6.703 2.381 14.165 10.835 15.997 4.205.918 9.33-.05 11.862-3.834 1.939-2.885 3.287-6.136 5.378-8.993.69-.936-.813-1.965-1.495-1.02-1.4 1.921-2.729 3.907-3.9 5.982-.792 1.407-1.304 3.1-2.512 4.23-2.556 2.414-7.096 2.602-10.255 1.525-6.119-2.071-6.231-9.394-8.284-14.663Zm-21.025-52.099c.771-.879-.732-1.89-1.495-1.02-2.908 3.296-7.136 5.627-9.678 9.07-3.194 4.31-2.932 10.849-2.066 15.838.895 5.188 3.118 11.941 8.115 14.634 3.669 1.977 7.818 2.977 11.523 5.178.994.592 2.031-.901 1.02-1.494-2.719-1.619-5.521-3.15-8.48-4.272-6.484-2.473-9.172-7.478-10.385-14.357-1.146-6.489-.667-12.488 4.543-16.76 2.506-2.068 4.755-4.375 6.903-6.817Z" fill="#462793"/><path opacity=".4" d="M239.595 52.352a62.276 62.276 0 0 1-6.816-3.847c-5.219-3.429-9.771-3.07-15.56-.31-5.389 2.558-8.897 5.847-9.572 11.712-.328 2.86-.899 5.644-1.658 8.415-.301 1.125-2.013.518-1.712-.608 1.026-3.77.755-7.981 1.897-11.58 1.426-4.487 6.234-7.66 10.244-9.578 3.842-1.836 9.128-3.52 13.384-2.101 3.663 1.214 6.832 4.473 10.365 6.2 1.069.495.47 2.215-.572 1.697Zm43.068 12.065c-.004 1.155 1.799 1.315 1.803.16.013-2.395.844-4.86.674-7.192-.213-2.95-2.77-5.67-4.951-7.388-2.141-1.69-5.207-3.487-8.074-3.106-2.367.314-4.622 1.602-7.041 2.058-1.153.219-.833 2.004.32 1.785 1.457-.275 2.908-.593 4.31-1.06 3.322-1.127 5.235-1.08 8.358 1.005 3.474 2.322 5.32 4.795 4.933 8.858-.156 1.623-.328 3.229-.332 4.88Zm-8.114 63.289c-1.111.359-.318 1.989.776 1.629 4.273-1.395 8.999-1.553 13.154-2.973 5.015-1.72 7.96-7.256 9.093-12.079 1.142-4.832.964-11.091-2.751-14.867-3.155-3.207-7.165-5.575-10.328-8.92-.797-.842-2.171.336-1.367 1.188 2 2.117 4.073 4.281 6.369 6.076 1.932 1.504 4.135 2.548 5.38 4.808 1.891 3.427 1.716 7.641.851 11.32-.922 3.889-3.013 8.457-6.832 10.338-2.029.996-4.399.864-6.577 1.303-2.63.526-5.219 1.337-7.768 2.177Zm-59.793 2.827c-.42-1.09-2.058-.307-1.629.776 2.612 6.703 2.381 14.165 10.835 15.997 4.205.918 9.33-.05 11.862-3.834 1.939-2.885 3.287-6.136 5.378-8.993.69-.936-.813-1.965-1.495-1.02-1.4 1.921-2.729 3.907-3.9 5.982-.792 1.407-1.304 3.1-2.512 4.23-2.556 2.414-7.096 2.602-10.255 1.525-6.119-2.071-6.231-9.394-8.284-14.663Zm-21.025-52.099c.771-.879-.732-1.89-1.495-1.02-2.908 3.296-7.136 5.627-9.678 9.07-3.194 4.31-2.932 10.849-2.066 15.838.895 5.188 3.118 11.941 8.115 14.634 3.669 1.977 7.818 2.977 11.523 5.178.994.592 2.031-.901 1.02-1.494-2.719-1.619-5.521-3.15-8.48-4.272-6.484-2.473-9.172-7.478-10.385-14.357-1.146-6.489-.667-12.488 4.543-16.76 2.506-2.068 4.755-4.375 6.903-6.817Z" fill="#fff"/><path d="M217.693 49.204c5.266-2.498 10.241-3.032 11.112-1.182.881 1.84-2.677 5.366-7.942 7.864-5.266 2.498-10.24 3.031-11.112 1.182-.864-1.84 2.685-5.357 7.942-7.864Zm54.77.245c-.778.98.838 3.558 3.618 5.78 2.779 2.222 5.652 3.228 6.43 2.264.787-.972-.838-3.559-3.617-5.78-2.771-2.23-5.652-3.245-6.431-2.264Zm19.361 52.65c-2.6-.619-5.805 3.478-7.143 9.152-1.345 5.664-.324 10.758 2.277 11.376 2.6.619 5.805-3.478 7.143-9.152 1.345-5.664.324-10.758-2.277-11.376Zm-58.432 39.406c.243-2.131-2.811-4.227-6.826-4.687-4.015-.46-7.463.89-7.706 3.021-.243 2.13 2.81 4.226 6.825 4.687 4.007.451 7.456-.899 7.707-3.021Zm-43.437-28.57c2.304-.403 3.239-6.062 2.073-12.647-1.157-6.575-3.973-11.58-6.277-11.177-2.304.403-3.239 6.062-2.074 12.647 1.158 6.575 3.974 11.581 6.278 11.177Z" fill="#462793"/><path opacity=".2" d="M217.693 49.204c5.266-2.498 10.241-3.032 11.112-1.182.881 1.84-2.677 5.366-7.942 7.864-5.266 2.498-10.24 3.031-11.112 1.182-.864-1.84 2.685-5.357 7.942-7.864Zm54.77.245c-.778.98.838 3.558 3.618 5.78 2.779 2.222 5.652 3.228 6.43 2.264.787-.972-.838-3.559-3.617-5.78-2.771-2.23-5.652-3.245-6.431-2.264Zm19.361 52.65c-2.6-.619-5.805 3.478-7.143 9.152-1.345 5.664-.324 10.758 2.277 11.376 2.6.619 5.805-3.478 7.143-9.152 1.345-5.664.324-10.758-2.277-11.376Zm-58.432 39.406c.243-2.131-2.811-4.227-6.826-4.687-4.015-.46-7.463.89-7.706 3.021-.243 2.13 2.81 4.226 6.825 4.687 4.007.451 7.456-.899 7.707-3.021Zm-43.437-28.57c2.304-.403 3.239-6.062 2.073-12.647-1.157-6.575-3.973-11.58-6.277-11.177-2.304.403-3.239 6.062-2.074 12.647 1.158 6.575 3.974 11.581 6.278 11.177Z" fill="#fff"/><path d="M179.684 72.84c1.798.964 5.498-2.397 8.278-7.516 2.771-5.128 3.562-10.07 1.764-11.034-1.798-.964-5.498 2.396-8.278 7.516-2.771 5.128-3.57 10.06-1.764 11.034Z" fill="#462793"/><path opacity=".3" d="M179.684 72.84c1.798.964 5.498-2.397 8.278-7.516 2.771-5.128 3.562-10.07 1.764-11.034-1.798-.964-5.498 2.396-8.278 7.516-2.771 5.128-3.57 10.06-1.764 11.034Z" fill="#fff"/><path d="M200.789 51.007a63.648 63.648 0 0 1-7.095.873c-2.862.185-4.998-.101-7.565 1.73-3.08 2.198-5.43 5.824-6.968 9.225-2.288 5.059-2.624 9.014.112 13.818a54.811 54.811 0 0 1 3.535 7.563c.211.536-.613.932-.814.388-1.352-3.543-3.853-6.567-5.154-9.995-1.712-4.51.249-9.926 2.385-13.91 2.027-3.793 5.578-8.687 10.123-9.679 3.588-.784 7.571-.232 11.28-.897.573-.114.741.78.161.884Z" fill="#462793"/><path opacity=".4" d="M200.789 51.007a63.648 63.648 0 0 1-7.095.873c-2.862.185-4.998-.101-7.565 1.73-3.08 2.198-5.43 5.824-6.968 9.225-2.288 5.059-2.624 9.014.112 13.818a54.811 54.811 0 0 1 3.535 7.563c.211.536-.613.932-.814.388-1.352-3.543-3.853-6.567-5.154-9.995-1.712-4.51.249-9.926 2.385-13.91 2.027-3.793 5.578-8.687 10.123-9.679 3.588-.784 7.571-.232 11.28-.897.573-.114.741.78.161.884Z" fill="#fff"/><path d="M297.983 65.46c-1.908.732-1.745 5.74.349 11.166 2.101 5.434 5.343 9.238 7.251 8.507 1.908-.73 1.745-5.74-.349-11.165-2.101-5.435-5.334-9.246-7.251-8.507Z" fill="#462793"/><path opacity=".2" d="M297.983 65.46c-1.908.732-1.745 5.74.349 11.166 2.101 5.434 5.343 9.238 7.251 8.507 1.908-.73 1.745-5.74-.349-11.165-2.101-5.435-5.334-9.246-7.251-8.507Z" fill="#fff"/><path d="M300.899 95.698a65.345 65.345 0 0 1 3.934-5.962c1.719-2.31 3.325-3.738 3.596-6.885.323-3.768-.901-7.918-2.488-11.289-2.369-5.025-5.158-7.847-10.579-8.877-2.744-.525-5.404-1.284-8.051-2.214-.551-.192-.319-1.066.232-.874 3.574 1.26 7.505 1.33 10.952 2.572 4.541 1.635 7.383 6.634 9.03 10.847 1.577 4.004 2.98 9.886.794 13.977-1.732 3.234-4.734 5.907-6.648 9.17-.291.493-1.072.036-.772-.465Z" fill="#462793"/><path opacity=".3" d="M300.899 95.698a65.345 65.345 0 0 1 3.934-5.962c1.719-2.31 3.325-3.738 3.596-6.885.323-3.768-.901-7.918-2.488-11.289-2.369-5.025-5.158-7.847-10.579-8.877-2.744-.525-5.404-1.284-8.051-2.214-.551-.192-.319-1.066.232-.874 3.574 1.26 7.505 1.33 10.952 2.572 4.541 1.635 7.383 6.634 9.03 10.847 1.577 4.004 2.98 9.886.794 13.977-1.732 3.234-4.734 5.907-6.648 9.17-.291.493-1.072.036-.772-.465Z" fill="#fff"/><g filter="url(#a)"><path d="M255.84 183h-9.737c-.507 0-.76-.222-.76-.665l-.095-66.262c0-.507.253-.76.76-.76h8.787l16.435 38.332-.475-37.572c0-.507.285-.76.855-.76h9.643c.38 0 .57.253.57.76l.095 66.357c0 .38-.159.57-.475.57h-8.55l-16.863-35.815.713 35.055c0 .507-.301.76-.903.76Zm52.535.95c-3.451 0-6.634-.887-9.547-2.66-2.882-1.773-5.209-4.132-6.983-7.077-1.741-2.977-2.612-6.239-2.612-9.785l.095-30.828c0-3.61.871-6.856 2.612-9.737 1.71-2.914 4.022-5.241 6.935-6.983 2.914-1.773 6.08-2.66 9.5-2.66 3.547 0 6.729.871 9.548 2.613 2.85 1.741 5.13 4.085 6.84 7.03 1.741 2.913 2.612 6.159 2.612 9.737l.095 30.828c0 3.546-.855 6.792-2.565 9.737-1.742 2.977-4.053 5.352-6.935 7.125-2.882 1.773-6.08 2.66-9.595 2.66Zm0-11.732c1.964 0 3.674-.792 5.13-2.375 1.457-1.615 2.185-3.42 2.185-5.415l-.095-30.828c0-2.153-.681-3.974-2.042-5.462-1.362-1.489-3.088-2.233-5.178-2.233-1.995 0-3.705.729-5.13 2.185-1.425 1.457-2.137 3.294-2.137 5.51v30.828c0 2.121.712 3.958 2.137 5.51 1.425 1.52 3.135 2.28 5.13 2.28Zm42.988 11.732c-3.452 0-6.635-.887-9.548-2.66-2.882-1.773-5.193-4.132-6.935-7.077-1.71-2.977-2.565-6.239-2.565-9.785v-4.465c0-.349.158-.523.475-.523h10.925c.253 0 .38.174.38.523v4.465c0 2.121.713 3.958 2.138 5.51 1.425 1.52 3.135 2.28 5.13 2.28 2.026 0 3.752-.776 5.177-2.328 1.425-1.583 2.138-3.404 2.138-5.462 0-2.375-1.552-4.45-4.655-6.223a36.703 36.703 0 0 0-1.995-1.14 78.499 78.499 0 0 0-2.85-1.615c-1.109-.602-2.185-1.187-3.23-1.757a166.116 166.116 0 0 0-3.04-1.71c-3.547-2.09-6.191-4.703-7.933-7.838-1.71-3.167-2.565-6.713-2.565-10.64 0-3.61.887-6.871 2.66-9.785 1.773-2.881 4.085-5.161 6.935-6.84 2.882-1.71 6.001-2.565 9.358-2.565 3.451 0 6.618.855 9.5 2.565a19.8 19.8 0 0 1 6.887 6.935c1.742 2.882 2.612 6.112 2.612 9.69v7.98c0 .253-.126.38-.38.38h-10.924c-.254 0-.38-.127-.38-.38l-.095-7.98c0-2.28-.713-4.132-2.138-5.557-1.425-1.425-3.119-2.138-5.082-2.138-1.995 0-3.705.76-5.13 2.28-1.425 1.52-2.138 3.325-2.138 5.415 0 2.122.443 3.895 1.33 5.32.918 1.425 2.581 2.787 4.988 4.085.253.127.839.443 1.757.95.918.507 1.932 1.077 3.04 1.71 1.14.602 2.169 1.156 3.088 1.663.918.475 1.472.76 1.662.855 3.23 1.805 5.779 4.021 7.647 6.65 1.9 2.628 2.85 5.858 2.85 9.69 0 3.705-.855 7.03-2.565 9.975-1.741 2.945-4.053 5.272-6.934 6.982-2.882 1.71-6.08 2.565-9.595 2.565Zm82.934-.95h-31.445c-.253 0-.38-.158-.38-.475l.095-66.832c0-.254.127-.38.38-.38h31.255c.254 0 .38.158.38.475v10.877c0 .254-.126.38-.38.38h-19.95v15.2h19.95c.254 0 .38.127.38.38l.095 11.02c0 .253-.126.38-.38.38h-20.045v17.005h20.045c.254 0 .38.158.38.475v11.115c0 .253-.126.38-.38.38Zm19.618 0h-9.738c-.506 0-.76-.222-.76-.665l-.095-66.262c0-.507.254-.76.76-.76h8.788l16.435 38.332-.475-37.572c0-.507.285-.76.855-.76h9.642c.38 0 .57.253.57.76l.095 66.357c0 .38-.158.57-.475.57h-8.55l-16.862-35.815.712 35.055c0 .507-.301.76-.902.76Z" fill="#603EBB"/></g><g filter="url(#b)"><path d="M61.785 183.95c-3.451 0-6.634-.887-9.547-2.66-2.882-1.773-5.194-4.132-6.935-7.077-1.71-2.977-2.565-6.239-2.565-9.785v-4.465c0-.349.158-.523.475-.523h10.925c.253 0 .38.174.38.523v4.465c0 2.121.712 3.958 2.137 5.51 1.425 1.52 3.135 2.28 5.13 2.28 2.027 0 3.753-.776 5.178-2.328 1.425-1.583 2.137-3.404 2.137-5.462 0-2.375-1.551-4.45-4.655-6.223a36.426 36.426 0 0 0-1.995-1.14 77.988 77.988 0 0 0-2.85-1.615c-1.108-.602-2.185-1.187-3.23-1.757a163.814 163.814 0 0 0-3.04-1.71c-3.546-2.09-6.19-4.703-7.932-7.838-1.71-3.167-2.565-6.713-2.565-10.64 0-3.61.886-6.871 2.66-9.785 1.773-2.881 4.085-5.161 6.935-6.84 2.881-1.71 6-2.565 9.357-2.565 3.452 0 6.619.855 9.5 2.565a19.795 19.795 0 0 1 6.888 6.935c1.741 2.882 2.612 6.112 2.612 9.69v7.98c0 .253-.126.38-.38.38H69.48c-.253 0-.38-.127-.38-.38l-.095-7.98c0-2.28-.712-4.132-2.137-5.557-1.425-1.425-3.12-2.138-5.083-2.138-1.995 0-3.705.76-5.13 2.28-1.425 1.52-2.137 3.325-2.137 5.415 0 2.122.443 3.895 1.33 5.32.918 1.425 2.58 2.787 4.987 4.085.254.127.84.443 1.758.95.918.507 1.931 1.077 3.04 1.71 1.14.602 2.169 1.156 3.087 1.663.919.475 1.473.76 1.663.855 3.23 1.805 5.779 4.021 7.647 6.65 1.9 2.628 2.85 5.858 2.85 9.69 0 3.705-.855 7.03-2.565 9.975-1.742 2.945-4.053 5.272-6.935 6.982-2.881 1.71-6.08 2.565-9.595 2.565ZM99.12 183H88.1c-.316 0-.475-.158-.475-.475l.095-66.832c0-.254.127-.38.38-.38h10.925c.253 0 .38.126.38.38l.095 66.832c0 .317-.126.475-.38.475Zm26.743.95c-3.515 0-6.682-.871-9.5-2.612-2.85-1.742-5.146-4.085-6.888-7.03-1.71-2.945-2.565-6.239-2.565-9.88V133.6c0-3.546.871-6.776 2.613-9.69 1.71-2.945 4.005-5.288 6.887-7.03 2.882-1.773 6.033-2.66 9.453-2.66 3.578 0 6.808.855 9.69 2.565a19.276 19.276 0 0 1 6.839 6.983c1.71 2.913 2.565 6.191 2.565 9.832v4.465c0 .253-.158.38-.475.38h-10.924c-.254 0-.38-.127-.38-.38v-3.705c0-2.47-.697-4.512-2.09-6.127-1.394-1.615-3.135-2.423-5.225-2.423-1.869 0-3.531.776-4.988 2.328-1.457 1.551-2.185 3.372-2.185 5.462v30.828c0 2.121.713 3.958 2.138 5.51 1.425 1.52 3.103 2.28 5.035 2.28 2.09 0 3.831-.745 5.225-2.233 1.393-1.52 2.09-3.372 2.09-5.557v-4.798h-6.793c-.348 0-.522-.158-.522-.475v-10.877c0-.317.174-.475.522-.475h18.192c.254 0 .38.158.38.475v16.15c0 3.641-.855 6.935-2.565 9.88-1.741 2.945-4.037 5.288-6.887 7.03-2.85 1.741-6.064 2.612-9.642 2.612Zm43.889 0c-3.42 0-6.586-.887-9.5-2.66-2.913-1.773-5.24-4.148-6.982-7.125-1.71-3.008-2.565-6.286-2.565-9.832l.19-48.64c0-.254.127-.38.38-.38H162.2c.253 0 .38.126.38.38v48.64c0 2.185.697 4.053 2.09 5.605 1.393 1.52 3.087 2.28 5.082 2.28 2.09 0 3.832-.76 5.225-2.28 1.394-1.552 2.09-3.42 2.09-5.605v-48.64c0-.254.127-.38.38-.38h10.925c.254 0 .38.126.38.38l.19 48.64c0 3.578-.855 6.871-2.565 9.88-1.741 2.976-4.053 5.351-6.935 7.125-2.881 1.741-6.111 2.612-9.69 2.612Zm58.663-.95H196.97c-.254 0-.38-.158-.38-.475l.095-66.832c0-.254.126-.38.38-.38h31.255c.253 0 .38.158.38.475v10.877c0 .254-.127.38-.38.38h-19.95v15.2h19.95c.253 0 .38.127.38.38l.095 11.02c0 .253-.127.38-.38.38H208.37v17.005h20.045c.253 0 .38.158.38.475v11.115c0 .253-.127.38-.38.38Z" fill="#5939AD"/></g><path d="m222.387 194.978-2.37 1.32a3.009 3.009 0 0 0-1.54 2.798l.437 7.748s8.683-6.005 8.176-5.933" fill="#fff"/><path d="M222.389 194.111a.867.867 0 0 1 .423 1.626l-2.37 1.32a2.154 2.154 0 0 0-1.095 1.991l.437 7.748a.87.87 0 0 1-.819.916.872.872 0 0 1-.915-.818l-.437-7.748a3.901 3.901 0 0 1 1.984-3.606l2.37-1.319a.858.858 0 0 1 .422-.11Z" fill="#232323"/><path d="m273.246 227.32.664 9.65a3.203 3.203 0 0 1-2.553 3.36c-8.946 1.835-37.373 3.503-47.05 2.589a3.402 3.402 0 0 1-3.067-3.041c-.22-2.155-.515-5.404-.663-8.597-.253-5.48-1.664-16.767-1.664-16.767l-1.131-5.768a4.298 4.298 0 0 1 2.928-4.928l2.11-.664 47.97 20.332M265.329 189.552h3.171a3.786 3.786 0 0 1 3.785 3.785v5.318l-4.27 4.499-1.97-5.07" fill="#fff"/><path d="M265.328 188.684h3.171a4.658 4.658 0 0 1 4.653 4.653v5.318a.868.868 0 1 1-1.736 0v-5.318a2.92 2.92 0 0 0-2.917-2.917h-3.171a.868.868 0 1 1 0-1.736ZM222.821 202.285c.116 0 .231.023.339.069l47.97 20.331a.87.87 0 0 1-.677 1.599l-47.676-20.206-1.805.568a3.426 3.426 0 0 0-2.337 3.933l1.131 5.767a.65.65 0 0 1 .009.059c.015.114 1.419 11.384 1.671 16.836.146 3.17.439 6.398.659 8.549a2.54 2.54 0 0 0 2.284 2.264c9.202.87 37.627-.694 46.794-2.574a2.344 2.344 0 0 0 1.862-2.45l-.664-9.65a.867.867 0 1 1 1.732-.12l.664 9.65a4.086 4.086 0 0 1-3.245 4.271c-9.488 1.946-37.783 3.502-47.306 2.602a4.28 4.28 0 0 1-3.848-3.816c-.223-2.172-.519-5.435-.667-8.645-.242-5.248-1.574-16.023-1.654-16.671l-1.126-5.737a5.162 5.162 0 0 1 3.519-5.924l2.11-.664a.872.872 0 0 1 .261-.041Z" fill="#232323"/><path d="M197.316 236.272s-2.93-4.141.651-8.374c3.582-4.233 5.753-3.69 5.753-3.69.994-10.838 4.812-17.152 15.882-11.834 0 .002.002.002.005.004a38.289 38.289 0 0 1 1.912.995s-.94-12.59-.072-19.824c.869-7.235-4.632-33.282-4.632-33.282s-.868-3.764.363-5.21c.384-.451.859-.846 1.33-1.176a6.4 6.4 0 0 1 3.668-1.14h14.715a2.07 2.07 0 0 1 2.031 1.641c.33 1.581.491 3.998-.905 5.85-.24.321-.529.623-.87.903 0 0-.007.178-.003.497.011 1.589.231 6.664 2.462 10.282 2.301 3.731 4.602 11.47 5.203 13.571l.009.028v.002c.093.326.143.508.143.508.007-.389.013-.779.017-1.174.124-8.403-.069-18.109-.429-28.511a3.475 3.475 0 0 1 3.473-3.597h19.264c1.074 0 1.992.755 2.216 1.804.384 1.799.492 4.569-1.659 6.511-.905.821-2.214 1.494-4.069 1.887 0 0 2.893 14.868 3.978 26.59 1.086 11.721 1.995 19.379 1.995 19.379l11.355 6.299s-4.45 19.253-16.714 23.486c-12.264 4.232-34.73 2.061-34.73 2.061s-6.193-1.339-13.171-9.658l-4.519 8.61c-1.569 3.612-3.499 4.612-4.801 2.909-.415-.543-.628-1.213-.658-1.895l-.147-3.293-5.355 3.182c-1.085.532-2.134.814-3.119.664a2.158 2.158 0 0 1-.306-.067c-1.233-.354-1.949-1.65-1.641-2.937.182-.77.633-1.44 1.375-2.001Z" fill="#fff"/><path d="M259.867 235.004c-15.413-6.635-28.094-7.325-35.562 3.327l2.807 1.59c10.402-6.497 21.259-8.705 32.755-4.917Z" fill="#232323" opacity=".25"/><path d="M249.295 201.024c2.598 0 5.219.13 7.859.392a3.549 3.549 0 0 1 3.142 2.911c.157.885.301 1.795.428 2.703.614 4.322.84 8.473.694 12.69a3.575 3.575 0 0 1-2.916 3.377c-3.788.692-13.692 2.157-23.788.809a3.595 3.595 0 0 1-2.204-1.171 3.564 3.564 0 0 1-.83-1.678c-.522-2.664-1.343-8.163-.969-15.05v-.001a3.59 3.59 0 0 1 2.805-3.298c5.106-1.121 10.389-1.684 15.779-1.684Zm-5.839 21.698c6.527 0 12.118-.855 14.735-1.333a1.83 1.83 0 0 0 1.492-1.728 69.934 69.934 0 0 0-.678-12.388 76.817 76.817 0 0 0-.419-2.644 1.81 1.81 0 0 0-1.603-1.484c-7.937-.787-15.707-.363-23.095 1.26a1.85 1.85 0 0 0-1.444 1.699c-.364 6.698.433 12.035.94 14.621a1.82 1.82 0 0 0 .47.911c.288.3.673.494 1.09.551 2.901.386 5.788.535 8.512.535Z" fill="#232323"/><path d="M222.175 152h14.715c1.388 0 2.6.98 2.881 2.332.642 3.08.016 5.662-1.761 7.326.006 1.393.183 6.44 2.335 9.928 1.4 2.272 2.78 5.914 3.801 8.961.013-6.727-.141-14.658-.466-24.051a4.307 4.307 0 0 1 1.217-3.17A4.307 4.307 0 0 1 248.02 152h19.266a3.154 3.154 0 0 1 3.064 2.492c.349 1.641.487 4.027-.843 6.073-.97 1.493-2.559 2.552-4.728 3.154.617 3.276 2.905 15.793 3.837 25.861a877.794 877.794 0 0 0 1.942 18.917l10.964 6.082a.867.867 0 0 1 .424.954c-.046.201-1.165 4.974-3.825 10.346-3.565 7.199-8.216 11.959-13.451 13.766-12.301 4.246-34.171 2.195-35.096 2.106a.833.833 0 0 1-.1-.016c-.254-.055-6.074-1.385-12.813-8.975l-3.911 7.453c-1.12 2.568-2.47 4.018-3.905 4.193-.887.109-1.729-.293-2.37-1.131-.506-.664-.795-1.488-.835-2.384l-.083-1.845-4.108 2.442a.746.746 0 0 1-.062.034c-1.356.663-2.543.907-3.63.743a3.183 3.183 0 0 1-2.185-1.381 3.4 3.4 0 0 1-.478-2.685 4.18 4.18 0 0 1 1.105-1.972c-.992-1.905-1.695-5.453 1.105-8.762 2.541-3.003 4.511-3.799 5.626-3.975.749-7.046 2.648-11.153 5.951-12.894 2.918-1.539 6.745-1.081 11.667 1.405-.222-3.617-.66-12.629.036-18.429.841-7.012-4.564-32.74-4.619-32.999-.095-.413-.92-4.222.55-5.951.391-.46.894-.906 1.496-1.326a7.221 7.221 0 0 1 4.164-1.296Zm22.784 35.019a.869.869 0 0 1-.837-.639c-.027-.096-2.675-9.698-5.255-13.882-2.783-4.513-2.598-10.992-2.589-11.266a.861.861 0 0 1 .319-.643c1.91-1.56 1.856-4.071 1.474-5.903a1.205 1.205 0 0 0-1.181-.949h-14.715a5.502 5.502 0 0 0-3.171.982c-.48.335-.873.681-1.166 1.027-.651.765-.496 3.065-.177 4.452.229 1.085 5.521 26.287 4.646 33.581-.848 7.067.067 19.532.076 19.657a.869.869 0 0 1-1.289.822c-4.976-2.777-8.813-3.493-11.404-2.127-2.814 1.483-4.485 5.501-5.108 12.283-.024.266-.132.517-.357.662a.797.797 0 0 1-.699.108c-.197-.016-1.983-.041-4.897 3.402-3.087 3.648-.706 7.167-.603 7.316a.871.871 0 0 1-.188 1.191c-.571.431-.916.924-1.055 1.508a1.66 1.66 0 0 0 .227 1.311c.235.347.591.573 1.004.635.719.109 1.563-.078 2.578-.57l5.323-3.165a.87.87 0 0 1 1.312.707l.148 3.294c.024.54.19 1.027.48 1.407.39.51.684.474.779.462.561-.068 1.562-.945 2.536-3.19l.028-.058 4.518-8.611a.869.869 0 0 1 1.434-.154c6.371 7.596 12.097 9.217 12.65 9.359 1.292.118 22.666 1.992 34.303-2.024 10.44-3.604 15.096-18.926 15.989-22.232l-10.767-5.973a.867.867 0 0 1-.441-.656c-.009-.077-.924-7.804-1.998-19.402-1.069-11.545-3.938-26.356-3.967-26.504a.869.869 0 0 1 .673-1.016c2.128-.449 3.628-1.325 4.458-2.602 1.005-1.547.882-3.445.6-4.765a1.39 1.39 0 0 0-1.365-1.117h-19.266c-.712 0-1.378.282-1.873.795a2.59 2.59 0 0 0-.731 1.904c.421 12.165.556 21.89.413 29.731a.869.869 0 0 1-.869.852Z" fill="#232323"/><path d="M206.114 238.39c-1.38-.665-2.447-2.032-2.696-3.535-.094-.457-.082-.928-.058-1.385.067.219.117.437.196.645.355.985 1.078 1.841 2.016 2.286.328.151.69.298 1.04.324 1.088.363.612 1.959-.498 1.665ZM203.873 223.481c1.807.668 3.361 1.989 4.404 3.588-1.329-1.063-2.961-1.778-4.66-1.882-.021 0-.048-.001-.052.003l.308-1.709ZM207.302 217.565c4.708 0 7.685 1.759 9.429 3.38 2.259 2.099 2.983 4.406 3.012 4.503a.864.864 0 0 1-.035.603l-2.428 5.525a.868.868 0 1 1-1.59-.698l2.289-5.209c-.564-1.428-3.548-7.475-13.222-6.192a.868.868 0 1 1-.228-1.722 21.01 21.01 0 0 1 2.773-.19Z" fill="#232323"/><path d="M220.577 220.953a.869.869 0 0 1 .798 1.211l-1.664 3.881a.87.87 0 0 1-1.597-.684l1.665-3.881a.868.868 0 0 1 .798-.527Z" fill="#232323"/><path d="m277.142 271.784 3.473-1.584a5.42 5.42 0 0 0 3.163-5.242l-.588-10.32a5.422 5.422 0 0 0-4.545-5.043l-4.572-.742M220.249 275.028l-3.631-1.179a5.421 5.421 0 0 1-3.738-4.848l-.588-10.32a5.421 5.421 0 0 1 3.941-5.527l4.458-1.257" fill="#fff"/><path d="m274.075 248.854 4.573.741a5.425 5.425 0 0 1 4.543 5.044l.334 5.858a5.425 5.425 0 0 0-4.543-5.044l-4.115-.668-.792-5.931ZM212.625 264.54l-.334-5.858a5.423 5.423 0 0 1 3.941-5.528l4.459-1.256-.115 5.985-4.01 1.129a5.424 5.424 0 0 0-3.941 5.528Z" fill="#232323" opacity=".25"/><path d="M248.325 232.803c-17.276 0-31.282 14.005-31.282 31.282s14.006 31.282 31.282 31.282c17.277 0 31.282-14.005 31.282-31.282s-14.005-31.282-31.282-31.282Z" fill="#fff"/><path d="M246.543 232.854a31.15 31.15 0 0 1 19.381 5.368 31.136 31.136 0 0 0-10.349-1.138c-17.247.983-30.433 15.763-29.45 33.012.577 10.094 5.879 18.799 13.636 24.084-12.457-3.542-21.89-14.653-22.668-28.314-.983-17.249 12.201-32.029 29.45-33.012Z" fill="#232323" opacity=".25"/><path d="M217.036 264.841c-.783-13.729 12.564-25.656 29.814-26.64 15.727-.897 29.267 7.613 32.123 19.53.279 1.151.456 2.336.526 3.548.782 13.728-12.565 25.652-29.815 26.636-12.961.739-24.436-4.912-29.673-13.589v-.003c-1.733-2.871-2.781-6.073-2.975-9.482Z" fill="#263238"/><path d="M217.037 264.841c-.783-13.728 12.564-25.656 29.814-26.639 15.727-.897 29.267 7.613 32.124 19.529-.213.308-.337.476-.337.476-15.903-22.958-59.273-10.355-58.626 16.116-1.733-2.871-2.781-6.073-2.975-9.482Z" fill="#111A28" opacity=".7"/><path d="M248.367 231.933c7.897-.001 15.42 2.861 21.361 8.16 6.408 5.717 10.206 13.587 10.695 22.161.489 8.574-2.39 16.825-8.107 23.233-5.717 6.408-13.587 10.207-22.161 10.696-8.576.488-16.825-2.391-23.233-8.107-6.408-5.717-10.206-13.587-10.695-22.161-.489-8.574 2.39-16.825 8.107-23.233 5.717-6.408 13.587-10.207 22.161-10.696a32.622 32.622 0 0 1 1.872-.053Zm-.081 62.567c.588 0 1.179-.017 1.771-.051 8.11-.462 15.556-4.056 20.964-10.118 5.408-6.062 8.132-13.867 7.669-21.978-.463-8.111-4.056-15.555-10.118-20.964-6.062-5.408-13.868-8.132-21.978-7.669-8.11.462-15.556 4.056-20.964 10.118-5.408 6.062-8.132 13.867-7.669 21.978.463 8.111 4.056 15.556 10.118 20.964 5.619 5.013 12.736 7.72 20.207 7.72Z" fill="#232323"/><path d="M279.586 262.051c.4 0 .735.312.758.717.415 7.275-2.539 14.299-8.319 19.776-5.745 5.444-13.601 8.71-22.123 9.195-8.52.486-16.697-1.866-23.024-6.621-6.365-4.785-10.099-11.426-10.513-18.702a.76.76 0 1 1 1.517-.087c.389 6.822 3.908 13.063 9.909 17.574 6.04 4.54 13.864 6.785 22.026 6.319 8.163-.466 15.679-3.584 21.163-8.782 5.45-5.164 8.237-11.765 7.848-18.586a.76.76 0 0 1 .715-.802l.043-.001Z" fill="#232323"/><path d="M274.073 247.984c.046 0 .093.004.14.011l4.573.743a6.25 6.25 0 0 1 5.271 5.851l.589 10.319a6.254 6.254 0 0 1-3.67 6.082l-3.473 1.584a.868.868 0 1 1-.72-1.58l3.473-1.584a4.527 4.527 0 0 0 2.656-4.403l-.588-10.32a4.526 4.526 0 0 0-3.817-4.236l-4.572-.742a.868.868 0 0 1 .138-1.725ZM220.69 251.029a.869.869 0 0 1 .236 1.704l-4.458 1.257a4.527 4.527 0 0 0-3.311 4.643l.588 10.319a4.526 4.526 0 0 0 3.14 4.072l3.63 1.179a.869.869 0 0 1-.536 1.652l-3.631-1.18a6.25 6.25 0 0 1-4.337-5.624l-.588-10.32a6.252 6.252 0 0 1 4.573-6.412l4.458-1.258a.877.877 0 0 1 .236-.032Z" fill="#232323"/><path d="M228.646 251.391c-3.093 13.11 2.096 23.16 14.416 30.577-21.253-4.555-26.041-21.291-14.416-30.577ZM268.218 261.783a24.4 24.4 0 0 0-1.412-7.051 2.857 2.857 0 0 1 1.569-3.598 2.857 2.857 0 0 1 3.469.997c1.945 2.809 3.264 6.23 2.955 9.802-.175 2.018-2.151 3.378-4.112 2.871a3.292 3.292 0 0 1-2.469-3.021ZM265.899 275.688a2.46 2.46 0 0 1-.303-2.895l1.426-2.441a2.46 2.46 0 0 1 3.022-1.05l.182.071c1.395.547 1.989 2.207 1.242 3.505a22.689 22.689 0 0 1-1.81 2.672 2.463 2.463 0 0 1-3.759.138Z" fill="#fff" opacity=".5"/><path d="M295.208 200.785c7.328.378 6.621 4.188 6.621 4.188-.411-.058-11.286-1.638-11.286-1.638M288.438 199.319l-14.67-1.229a1.831 1.831 0 0 0-1.481.564l-13.747 14.484a1.75 1.75 0 0 0-.481 1.206v.996c0 .858.622 1.59 1.469 1.729l27.183 4.462 1.727-22.212Z" fill="#A7A9B7"/><path d="M273.61 197.215c.076 0 .152.003.228.01l14.671 1.228a.87.87 0 0 1 .793.933l-1.727 22.212a.868.868 0 0 1-1.006.79l-27.184-4.462a2.611 2.611 0 0 1-2.196-2.586v-.996c0-.674.256-1.315.72-1.804l13.746-14.484a2.687 2.687 0 0 1 1.955-.841Zm13.894 2.897-13.81-1.157a.955.955 0 0 0-.779.297l-13.746 14.484a.876.876 0 0 0-.243.608v.996c0 .436.312.802.741.873l26.251 4.308 1.586-20.409Z" fill="#232323"/><path d="m274.665 201.178 27.484 3.839a6.74 6.74 0 0 1 4.628 2.837c.363.525.712 1.072 1.05 1.637 4.615 7.67 7.081 18.526 6.078 24.502a2.229 2.229 0 0 1-2.659 1.803l-30.644-6.431a4.117 4.117 0 0 1-3.137-2.996 303.26 303.26 0 0 1-.517-2.031c-1.845-7.32-3.366-14.372-4.367-21.053a1.85 1.85 0 0 1 2.084-2.107Z" fill="#A7A9B7"/><path d="M311.878 231.893c1.064-6.321-1.762-18.107-6.9-25.804a6.58 6.58 0 0 1 1.799 1.765c5.283 7.686 8.205 19.724 7.128 26.139a2.23 2.23 0 0 1-2.659 1.803l-30.645-6.431a4.108 4.108 0 0 1-2.932-2.403c.286.137.59.239.907.304l30.643 6.431a2.226 2.226 0 0 0 2.659-1.804Z" fill="#fff" opacity=".6"/><path d="M274.402 200.291c.128 0 .256.009.385.027l27.483 3.839a7.615 7.615 0 0 1 5.224 3.206c5.126 7.458 8.453 19.718 7.268 26.773a3.059 3.059 0 0 1-1.305 2.036 3.08 3.08 0 0 1-2.388.474l-30.644-6.431a4.951 4.951 0 0 1-3.799-3.629c-2.297-8.905-3.901-16.484-4.901-23.172a2.699 2.699 0 0 1 .757-2.317 2.682 2.682 0 0 1 1.92-.806Zm.145 1.747a.978.978 0 0 0-1.105 1.118c.992 6.628 2.583 14.15 4.866 22.996a3.223 3.223 0 0 0 2.473 2.363l30.644 6.431c.368.078.743.003 1.053-.209.307-.209.51-.526.571-.89.979-5.828-1.648-17.734-6.987-25.501a5.882 5.882 0 0 0-4.033-2.47l-27.482-3.838Z" fill="#232323"/><path d="M274.493 200.295a.87.87 0 0 1 .844.668l5.171 21.769a4.32 4.32 0 0 0 3.262 3.205l30.401 6.656a.868.868 0 0 1-.371 1.696l-30.401-6.655a6.067 6.067 0 0 1-4.581-4.501l-5.17-21.768a.868.868 0 0 1 .845-1.07ZM295.207 199.916l.046.002c3.233.167 5.465 1.002 6.633 2.483 1.026 1.3.824 2.587.797 2.73a.869.869 0 0 1-1.709-.303c.006-.049.082-.703-.482-1.39-.592-.72-1.996-1.614-5.328-1.786a.87.87 0 0 1 .043-1.736ZM272.561 202.828a.76.76 0 0 1 .546 1.288l-13.036 13.482a.76.76 0 0 1-1.093-1.057l13.037-13.481a.753.753 0 0 1 .546-.232Z" fill="#232323"/><path d="m272.562 203.588-13.036 13.481-1.015-.554-.454-2.943 14.228-15.361.713.746.486 2.202-.922 1.199" fill="#232323" opacity=".25"/><path d="M273.249 197.51a.87.87 0 0 1 .855.722l.475 2.781a.868.868 0 1 1-1.711.292l-.476-2.781a.868.868 0 0 1 .857-1.014ZM271.931 212.723c.034 0 .068.003.103.008l2.562.41a.65.65 0 0 1 .533.503l.774 3.518a.653.653 0 0 1-.747.782l-5.519-.955a.652.652 0 0 1-.414-1.028l2.183-2.972a.65.65 0 0 1 .525-.266Zm2.022 1.634-1.732-.277-1.325 1.804 3.527.611-.47-2.138ZM272.562 205.976a.652.652 0 0 1 .512 1.052l-2.642 3.383 3.653.394a.65.65 0 1 1-.14 1.295l-4.816-.52a.652.652 0 0 1-.444-1.048l3.362-4.305a.652.652 0 0 1 .515-.251Z" fill="#232323"/><path d="m274.664 201.178 27.484 3.839a6.74 6.74 0 0 1 4.628 2.837c.362.525.712 1.073 1.05 1.637-26.885-4.969-28.163 13.44-28.163 13.44l-2.716 1.407c-1.845-7.319-3.366-14.372-4.367-21.053a1.85 1.85 0 0 1 2.084-2.107Z" fill="#232323" opacity=".25"/><path d="M285.228 197.637c-7.456 2.115-1.465 7.814 2.225 8.736 5.96 1.81 8.65-2.42 7.496-5.886a3.784 3.784 0 0 0-1.69-2.053c-2.311-1.354-5.021-1.52-8.031-.797Z" fill="#F9F9F9"/><path d="M285.225 197.636c3.011-.722 5.72-.555 8.029.797a3.776 3.776 0 0 1 1.691 2.053c.15.452.237.916.256 1.379-2.275-1.27-4.927-1.411-7.868-.706-2.614.741-3.575 1.924-3.562 3.185-2.451-2.128-3.654-5.26 1.454-6.708Z" fill="#232323" opacity=".25"/><path d="M288.523 196.351c1.922 0 3.652.445 5.169 1.334a4.64 4.64 0 0 1 2.076 2.528c.687 2.063.214 4.266-1.231 5.75-.973.999-3.216 2.488-7.321 1.248-2.597-.66-6.378-3.455-6.423-6.361-.02-1.298.69-3.054 4.194-4.048.011-.003.022-.007.034-.009 1.228-.295 2.397-.442 3.502-.442Zm1.617 9.589c1.303 0 2.386-.401 3.153-1.189.991-1.017 1.308-2.546.828-3.99a2.912 2.912 0 0 0-1.306-1.578c-2.013-1.179-4.423-1.411-7.371-.706-1.345.383-2.934 1.101-2.915 2.345.029 1.772 2.914 4.155 5.13 4.709l.042.012c.874.265 1.693.397 2.439.397ZM263.562 163.912l-2.375-1.493 2.799-.191a.913.913 0 0 1 .973.849c.072.727-.8 1.237-1.397.835ZM237.777 161.858c-1.719 1.416-4.054 1.841-6.211 1.856-1.136-.018-2.307-.177-3.414-.411l-1.317-.341c.799.086 1.904.172 2.692.152.245-.013.765-.027 1-.044l.987-.114c1.474-.247 2.948-.701 4.161-1.558.303-.213.612-.457.84-.732.804-.812 2.028.338 1.262 1.192ZM232.601 168.39c2.032 0 4.073.197 6 .456a.868.868 0 0 1-.231 1.722c-9.805-1.318-15.166.324-17.924 5.49a.868.868 0 1 1-1.531-.818c2.903-5.438 8.26-6.85 13.686-6.85ZM254.957 168.474c5.539 0 10.308 1.939 10.629 2.072a.869.869 0 0 1-.666 1.604c-.119-.049-11.999-4.864-19.422.987a.867.867 0 1 1-1.074-1.364c3.194-2.518 7.019-3.299 10.533-3.299ZM259.031 192.397c-10.59-2.479-15.819-2.494-26.403 0-.048.018-.115-.003-.125-.061a.086.086 0 0 1 .046-.094l1.551-.762c7.033-3.283 14.654-3.582 21.87-.685.947.383 2.22.98 3.139 1.447a.086.086 0 0 1 .039.114c-.024.046-.071.056-.117.041Z" fill="#232323"/><path d="M244.966 185.047a.87.87 0 0 1 .861.762l.375 3.039a.869.869 0 1 1-1.723.213l-.376-3.039a.869.869 0 0 1 .863-.975ZM222.378 213.38c.799 6.828 2.239 13.656 4.712 20.091a63.894 63.894 0 0 1-2.088-4.772c-1.888-4.893-3.319-9.925-4.343-15.077-.185-1.189 1.565-1.443 1.719-.242ZM246.907 201.977l.331 8.456a2.894 2.894 0 0 1-1.01 2.32l-2.506 2.156a1.17 1.17 0 0 0-.408.909l.129 7.761-1.737.028-.128-7.76a2.9 2.9 0 0 1 1.012-2.255l2.506-2.155c.273-.235.421-.576.407-.936l-.331-8.456 1.735-.068Z" fill="#232323"/><path d="M253.263 210.878c-1.918 0-3.473 1.627-3.473 3.635 0 2.009 1.555 3.636 3.473 3.636s3.473-1.627 3.473-3.636c0-2.008-1.555-3.635-3.473-3.635Z" fill="#8A66E4"/><path d="M253.264 210.009c2.394 0 4.341 2.02 4.341 4.504 0 2.483-1.947 4.504-4.341 4.504s-4.341-2.021-4.341-4.504c0-2.483 1.947-4.504 4.341-4.504Zm0 7.272c1.436 0 2.605-1.241 2.605-2.768 0-1.526-1.168-2.767-2.605-2.767-1.436 0-2.604 1.241-2.604 2.767 0 1.526 1.168 2.768 2.604 2.768ZM231.802 214.999a.868.868 0 0 1 .065 1.734l-9.414.708a.868.868 0 0 1-.131-1.732l9.415-.708.065-.002ZM221.517 208.219h9.966a.869.869 0 1 1 0 1.737h-9.966a.869.869 0 0 1-.005-1.737h.005ZM259.864 204.818h5.463a.868.868 0 1 1 0 1.737h-5.463a.868.868 0 0 1 0-1.737ZM266.397 231.281c.9-2.259 1.408-4.655 1.706-7.059.233-1.842.287-3.737.23-5.59l1.735.051c-.121 1.105-.253 2.207-.467 3.296-.613 3.223-1.606 6.431-3.204 9.302Z" fill="#232323"/><path d="M231.576 206.056a2.71 2.71 0 0 1 2.125-2.499c7.647-1.68 15.442-2.061 23.367-1.276a2.677 2.677 0 0 1 2.372 2.197c.156.884.297 1.776.423 2.674-14.065-3.234-23.694.604-26.676 15.04a2.687 2.687 0 0 1-.656-1.3c-.527-2.69-1.322-8.077-.955-14.836Z" fill="#232323" opacity=".25"/><path d="M217.178 155.183c.384-.451.859-.846 1.33-1.176a6.402 6.402 0 0 1 3.668-1.14h14.715a2.07 2.07 0 0 1 2.031 1.641c.33 1.581.491 3.999-.905 5.85a2.638 2.638 0 0 1-.11-.308c-.977-3.345-9.334-4.15-13.892-1.213-4.558 2.937-.326 17.907.733 25.721 1.062 7.814 4.802 9.008 4.802 9.008-2.048 3.162-3.291 7.011-3.998 11.037a1.823 1.823 0 0 0 1.687 2.128l1.822.113s-.977-1.665 1.303-4.541c2.279-2.876 15.736-2.985 20.675-2.876 4.938.108 5.697 2.583 5.697 2.583s-3.853-.358-4.558-.122c-.705.235-15.357.469-18.016 1.266-2.659.794-2.679 3.436-2.679 3.436l-.252 5.448h-4.281a2.197 2.197 0 0 0-2.2 2.177c-.063 9.429 1.694 17.616 1.747 17.866-1.791-4.458-3.416-10.378-4.979-16.846l-1.066-2.31c.349.18.703.371 1.066.573 0 0-.94-12.589-.072-19.824.868-7.234-4.632-33.282-4.632-33.282s-.867-3.763.364-5.209Z" fill="#232323" opacity=".25"/><path d="M244.548 156.465a3.477 3.477 0 0 1 3.473-3.597h19.265a2.27 2.27 0 0 1 2.216 1.804c.384 1.8.492 4.569-1.659 6.512a5.858 5.858 0 0 1-.308-1.134c-.977-5.732-7.055-4.159-10.962-4.15-3.907.009-5.209 7.821-4.449 17.48.759 9.659 3.06 17.257 3.06 17.257l-2.915-.254-6.928-1.12s-.139-1.665-.363-4.287c.124-8.402-.07-18.11-.43-28.511ZM235.359 162.419l1.788-.66c.011 1.589.23 6.664 2.462 10.282 2.301 3.731 4.601 11.469 5.203 13.571l.008.028v.002l.334 3.909h-3.501l-4.504 1.086s3.365-3.365.869-12.047c-2.497-8.683-2.659-16.171-2.659-16.171ZM197.316 236.271s-2.93-4.141.652-8.374c3.581-4.233 5.752-3.69 5.752-3.69.994-10.838 4.812-17.152 15.882-11.834 0 .002.003.002.005.004 1.146.91 1.912 1.539 1.912 1.539l.868 4.337.947 4.072c-.083-.174-3.247-6.801-7.747-4.177-4.558 2.659-6.294 11.487-6.294 11.487-4.791-3.321-7.743-1.938-8.177 5.878 0 0-3.907 2.587-3.544 5.336.015.123.02.243.011.36-1.233-.354-1.95-1.65-1.642-2.937.182-.77.633-1.44 1.375-2.001ZM276.416 222.191s-4.198-2.177-9.216 7.192c0 0 1.855-6.404 1.638-9.226-.217-2.822 2.424-1.499 2.424-1.499l4.006.739" fill="#232323" opacity=".25"/><defs><filter id="a" x="202.78" y="78.547" width="319.681" height="154.666" filterUnits="userSpaceOnUse" color-interpolation-filters="sRGB"><feFlood flood-opacity="0" result="BackgroundImageFix"/><feColorMatrix in="SourceAlpha" values="0 0 0 0 0 0 0 0 0 0 0 0 0 0 0 0 0 0 127 0" result="hardAlpha"/><feOffset dy="6.795"/><feGaussianBlur stdDeviation="21.234"/><feComposite in2="hardAlpha" operator="out"/><feColorMatrix values="0 0 0 0 0 0 0 0 0 0 0 0 0 0 0 0 0 0 0.31 0"/><feBlend in2="BackgroundImageFix" result="effect1_dropShadow_1119_967"/><feBlend in="SourceGraphic" in2="effect1_dropShadow_1119_967" result="shape"/><feColorMatrix in="SourceAlpha" values="0 0 0 0 0 0 0 0 0 0 0 0 0 0 0 0 0 0 127 0" result="hardAlpha"/><feOffset dy="6.795"/><feGaussianBlur stdDeviation="4.247"/><feComposite in2="hardAlpha" operator="arithmetic" k2="-1" k3="1"/><feColorMatrix values="0 0 0 0 0 0 0 0 0 0 0 0 0 0 0 0 0 0 0.81 0"/><feBlend in2="shape" result="effect2_innerShadow_1119_967"/></filter><filter id="b" x=".27" y="78.547" width="270.993" height="154.666" filterUnits="userSpaceOnUse" color-interpolation-filters="sRGB"><feFlood flood-opacity="0" result="BackgroundImageFix"/><feColorMatrix in="SourceAlpha" values="0 0 0 0 0 0 0 0 0 0 0 0 0 0 0 0 0 0 127 0" result="hardAlpha"/><feOffset dy="6.795"/><feGaussianBlur stdDeviation="21.234"/><feComposite in2="hardAlpha" operator="out"/><feColorMatrix values="0 0 0 0 0 0 0 0 0 0 0 0 0 0 0 0 0 0 0.31 0"/><feBlend in2="BackgroundImageFix" result="effect1_dropShadow_1119_967"/><feBlend in="SourceGraphic" in2="effect1_dropShadow_1119_967" result="shape"/><feColorMatrix in="SourceAlpha" values="0 0 0 0 0 0 0 0 0 0 0 0 0 0 0 0 0 0 127 0" result="hardAlpha"/><feOffset dy="6.795"/><feGaussianBlur stdDeviation="4.247"/><feComposite in2="hardAlpha" operator="arithmetic" k2="-1" k3="1"/><feColorMatrix values="0 0 0 0 0 0 0 0 0 0 0 0 0 0 0 0 0 0 0.81 0"/><feBlend in2="shape" result="effect2_innerShadow_1119_967"/></filter></defs></svg>