<svg xmlns="http://www.w3.org/2000/svg" width="51" height="73" fill="none"><path fill="#fff" d="m20.268 21.868.188 1.645.096.838 1.65 14.45s-.99.056-2.321.026c-.26-.006-.534-.015-.816-.03-2.101-.1-4.661-.447-5.672-1.485-1.51-1.553-2.08-9.422-.923-12.6.53-1.458 3.502-2.208 5.62-2.563.236-.04.462-.075.673-.105a25.222 25.222 0 0 1 1.505-.176Z"/><path fill="#2B2B2B" d="m20.456 23.512.096.838 1.31 11.473.34 2.976-.06.003c-.012 0-.025 0-.04.002l-.036.001-.028.002h-.012l-.059.002-.014.001a3.03 3.03 0 0 0-.054.002l-.08.003-.064.002-.067.002-.091.003-.2.004a9.75 9.75 0 0 1-.197.004c-.079.001-.161.003-.247.003-.317.002-.68.001-1.072-.008l-.233-.006a26.657 26.657 0 0 1-.583-.023c-2.102-.1-4.661-.447-5.67-1.486-1.245-1.278-1.852-6.84-1.38-10.539.026 3.198.6 6.593 1.538 7.557.464.476 1.308.8 2.293 1.02a.55.55 0 0 0 .63-.731 9.72 9.72 0 0 1-.482-2.635c-.113-2.192.034-5.362 2.277-8.035.052-.063 1.016-.235 2.185-.435Z" opacity=".35"/><path fill="#2B2B2B" d="M20.65 39.198c.876 0 1.486-.033 1.568-.038l.382-.022-2.017-17.66-.347.027c-.736.057-7.216.625-8.11 3.08-.551 1.516-.766 4.222-.558 7.06.08 1.093.428 4.75 1.563 5.918 1.383 1.423 5.302 1.635 7.518 1.635Zm1.145-.743c-2.134.08-6.821-.034-8.147-1.398-1.404-1.443-1.94-9.212-.843-12.224.588-1.614 5.064-2.373 7.14-2.575l1.85 16.197Z"/><path fill="#fff" d="m13.192 31.47 2.851.02a.559.559 0 0 1 .538.422c.228.906.646 3.028-.196 3.795-.699.637-1.903.65-2.646.102-.832-.614-1.052-2.708-1.11-3.747a.56.56 0 0 1 .563-.592Z"/><path fill="#2B2B2B" d="M16.581 31.914c.228.906.646 3.027-.196 3.794-.699.638-1.903.65-2.647.102-.51-.378-.79-1.315-.944-2.222.159.447.385.804.65 1.03 1.525 1.296 2.48-.42 2.48-.42s.213.386.362.399c.624.052.364-1.877.207-2.872.04.055.07.118.088.189Z" opacity=".35"/><path fill="#2B2B2B" d="M15.008 36.49c.58 0 1.157-.192 1.573-.571.924-.843.573-2.916.28-4.077a.844.844 0 0 0-.812-.638l-2.85-.02h-.006a.846.846 0 0 0-.843.894c.08 1.455.36 3.323 1.224 3.961.41.303.924.452 1.434.452Zm-1.814-4.734 2.851.02c.125 0 .234.085.264.206.437 1.738.396 3.052-.111 3.514-.582.53-1.629.568-2.286.083-.52-.384-.892-1.705-.994-3.533a.275.275 0 0 1 .276-.29Z"/><path fill="#2B2B2B" d="M15.152 36.45c.06-.04.09-.067.13-.101a2.048 2.048 0 0 0 .282-.314c.108-.15.201-.306.27-.47a3.06 3.06 0 0 0 .25-1.016 5.353 5.353 0 0 0-.037-1.01 5.827 5.827 0 0 0-.078-.494 2.526 2.526 0 0 0-.145-.493.085.085 0 0 0-.112-.044.085.085 0 0 0-.047.103l.003.011c.043.135.067.302.083.457.016.158.024.318.027.479.004.323-.008.64-.062.944a2.63 2.63 0 0 1-.301.852 1.914 1.914 0 0 1-.404.499 1.033 1.033 0 0 1-.147.104.29.29 0 1 0 .26.512l.028-.02ZM16.748 24.01a26.119 26.119 0 0 0-2.118-.07c-.354.005-.71.015-1.068.044-.359.03-.719.07-1.09.156a.362.362 0 1 0 .192.698l.003-.001a6.83 6.83 0 0 1 .97-.221c.335-.056.678-.095 1.021-.128a25.482 25.482 0 0 1 2.075-.105h.002a.186.186 0 0 0 .013-.372Z"/><path fill="#fff" d="M3.506 25.434s2.76 9.693 13.918 4.935c.472-.2.96-.427 1.462-.683l.11-3.67.03-1.014.103-3.475s-.443.333-1.194.766c-.396.231-.878.487-1.425.738-1.777.814-4.242 1.562-6.713 1.073a7.572 7.572 0 0 1-2.827-1.188l-3.464 2.518Z"/><path fill="#2B2B2B" d="M3.504 25.434s2.76 9.693 13.919 4.935c.472-.2.96-.427 1.462-.683l.11-3.67c-1.799 1.342-4.928 5.24-9.437 2.972-2.302-1.157-.049-2.06.238-4.884a7.57 7.57 0 0 1-2.827-1.188l-3.465 2.518Z" opacity=".25"/><path fill="#2B2B2B" d="M11.765 32.05c2.17 0 4.607-.68 7.285-2.038a.363.363 0 0 0-.326-.647c-4.063 2.06-7.51 2.5-10.242 1.304-2.99-1.308-4.24-4.242-4.55-5.096l3.049-2.216c2.271 1.449 5.104 1.655 8.211.593 2.391-.818 4.083-2.078 4.154-2.131a.363.363 0 0 0 .072-.507.36.36 0 0 0-.505-.073c-.066.05-6.616 4.878-11.739 1.379a.36.36 0 0 0-.415.006l-3.465 2.518a.362.362 0 0 0-.136.393c.048.168 1.213 4.121 5.027 5.794 1.096.481 2.291.721 3.58.721Z"/><path fill="#2B2B2B" d="M10.913 32.01A.369.369 0 0 0 10.99 32c.791-.173 1.383-.61 1.759-1.301 1.215-2.233-.312-6.41-.378-6.586a.36.36 0 1 0-.677.252c.015.04 1.479 4.044.42 5.987-.274.505-.692.813-1.278.94a.362.362 0 0 0 .077.717Z"/><path fill="#F03F8A" d="M1.366 69.604c6.773 2.08 15.303 3.32 24.57 3.32 9.266 0 17.796-1.24 24.569-3.319v-.031c.003-.096.005-.191.006-.287v-.021a22.972 22.972 0 0 0-.036-1.674 24.508 24.508 0 0 0-.852-5.18l-.067-.24a24.113 24.113 0 0 0-1.113-3.077c-.033-.078-.068-.156-.103-.234a25.024 25.024 0 0 0-1.535-2.884l-.2-.321a22.118 22.118 0 0 0-.736-1.084 18.337 18.337 0 0 0-.413-.559 25.122 25.122 0 0 0-.486-.617v-.001a31.434 31.434 0 0 0-.455-.542 30.358 30.358 0 0 0-.306-.348c-.086-.096-.173-.193-.26-.287l-.266-.283-.24-.248-.044-.044a20.46 20.46 0 0 0-.26-.26 21.873 21.873 0 0 0-.84-.788 23.667 23.667 0 0 0-1.528-1.258 24.09 24.09 0 0 0-1.4-.986l-.08-.053-.027-.017a22.557 22.557 0 0 0-.93-.574l-.212-.123c-.21-.12-.424-.238-.638-.351l-.215-.113a24.95 24.95 0 0 0-1.768-.833 25.573 25.573 0 0 0-2.135-.79 24.945 24.945 0 0 0-3.154-.777 23.495 23.495 0 0 0-1.246-.188 22.512 22.512 0 0 0-1.34-.131c-.107-.008-.216-.014-.325-.02l-.091-.006a15.288 15.288 0 0 0-.32-.015 15.325 15.325 0 0 0-.646-.017 27.027 27.027 0 0 0-.949.005l-.271.009a26.426 26.426 0 0 0-1.893.143h-.001a24.305 24.305 0 0 0-6.41 1.643 24.45 24.45 0 0 0-4.436 2.358c-.036.025-.073.048-.11.072a23.688 23.688 0 0 0-.428.296c-.016.013-.032.025-.049.036l-.303.219a30.618 30.618 0 0 0-.646.49 28.79 28.79 0 0 0-.626.51 20.912 20.912 0 0 0-.606.527 19.093 19.093 0 0 0-.87.822c-.473.466-.923.95-1.35 1.45a21.9 21.9 0 0 0-.985 1.227 25.379 25.379 0 0 0-1.105 1.6l-.014.022c-.067.107-.134.213-.199.32a35.082 35.082 0 0 0-.395.67 20.42 20.42 0 0 0-.374.683 22.168 22.168 0 0 0-.52 1.044 22.979 22.979 0 0 0-.614 1.425c-.19.48-.364.965-.523 1.456-.001.007-.004.013-.006.02-.038.118-.075.235-.11.353-.04.123-.076.247-.112.371-.036.124-.07.249-.105.373l-.1.375c-.029.115-.058.23-.085.347l-.017.067c-.026.113-.053.226-.077.339-.057.252-.11.505-.158.76l-.07.381a18.352 18.352 0 0 0-.12.767c-.017.117-.034.234-.048.351a.949.949 0 0 1-.008.054l-.04.343-.004.032a24.9 24.9 0 0 0-.141 3.301Z"/><path fill="#A81251" d="M1.36 69.305c0 .086.002.17.004.258l.001.04c.217.066.434.132.655.197a65.48 65.48 0 0 0 3.6.944c1.66.386 3.397.726 5.201 1.017l.178.028c.003 0 .005 0 .009.002l.578.09a101.344 101.344 0 0 0 2.191.302c3.834.481 7.918.74 12.158.74 6.286 0 12.232-.57 17.522-1.587a67.162 67.162 0 0 0 7.046-1.733l.002-.03.003-.195.002-.092v-.022l.001-.154a23.807 23.807 0 0 0-.029-1.346l-.001-.022-.008-.15-.008-.143-.02-.297a24.01 24.01 0 0 0-.522-3.537 21.627 21.627 0 0 0-.3-1.204l-.068-.24a22.227 22.227 0 0 0-.46-1.431 26.98 26.98 0 0 0-.453-1.179 34.633 34.633 0 0 0-.303-.7 25.066 25.066 0 0 0-1.534-2.884c-.067-.107-.134-.215-.202-.32l-.062-.097a20.52 20.52 0 0 0-.673-.989 21.33 21.33 0 0 0-.654-.87 22.591 22.591 0 0 0-.244-.305v-.001l-.216-.261-.066-.078a9.401 9.401 0 0 0-.173-.204l-.092-.107-.213-.24c-.088-.097-.174-.193-.262-.288a26.104 26.104 0 0 0-.506-.53l-.043-.044c-.083-.085-.167-.169-.251-.251a25.347 25.347 0 0 0-.564-.539c-.094-.087-.19-.173-.285-.259a24.526 24.526 0 0 0-1.528-1.258c-.08-.06-.158-.12-.237-.178a23.882 23.882 0 0 0-.738-.524l-.176-.12-.102-.067-.227-.15-.027-.016a21.965 21.965 0 0 0-.931-.574 23.046 23.046 0 0 0-.849-.474c-.071-.039-.144-.076-.215-.114a24.088 24.088 0 0 0-2.98-1.308 24.97 24.97 0 0 0-4.078-1.092 23.82 23.82 0 0 0-1.935-.264 24.69 24.69 0 0 0-.65-.054c-.108-.008-.217-.014-.326-.021l-.092-.005-.32-.015c-.106-.005-.213-.007-.32-.01a27.534 27.534 0 0 0-1.274-.002l-.27.008c-.18.006-.361.015-.541.025-.271.018-.543.038-.813.062a24.315 24.315 0 0 0-6.95 1.701 24.425 24.425 0 0 0-3.288 1.632 45.765 45.765 0 0 0-.687.423 26.162 26.162 0 0 0-.999.67l-.05.036c-.101.071-.201.145-.302.218a22.161 22.161 0 0 0-.646.49 31.044 31.044 0 0 0-.626.51 21.682 21.682 0 0 0-.607.527 26.271 26.271 0 0 0-.87.822 24.64 24.64 0 0 0-2.096 2.366c-.08.104-.16.207-.238.312a25.774 25.774 0 0 0-1.106 1.6l-.013.021c-.067.107-.134.213-.199.32-.067.11-.134.223-.2.335a24.875 24.875 0 0 0-.921 1.712 25.18 25.18 0 0 0-1.304 3.231l-.008.02-.11.354c-.038.123-.074.247-.111.37a32.662 32.662 0 0 0-.204.749c-.03.115-.059.23-.086.347l-.016.067-.078.339a23.825 23.825 0 0 0-.227 1.14c-.023.128-.044.256-.064.384-.02.128-.04.255-.058.383-.016.118-.033.235-.047.352l-.007.054c-.015.115-.028.228-.04.343l-.005.032c-.01.09-.019.18-.027.272l-.01.105c-.014.13-.025.258-.035.388-.01.125-.018.25-.026.376a19.6 19.6 0 0 0-.033.65c-.005.103-.007.204-.01.306l-.005.235c-.003.222-.004.447-.002.67Z"/><path fill="#66042D" d="M9.22 50.92c6.708 7.208 12.217-3.911 18.365-2.378 2.232.557 3.898 2.205 9.291 1.96 2.217-.1 3.212-.727 3.657-1.344l-.01-.009a23.882 23.882 0 0 0-.727-.516l-.176-.119-.103-.068-.227-.15-.027-.016a21.962 21.962 0 0 0-.931-.574 23.046 23.046 0 0 0-.849-.474c-.07-.039-.143-.076-.214-.114a24.09 24.09 0 0 0-2.98-1.308 24.97 24.97 0 0 0-4.078-1.092 24.05 24.05 0 0 0-1.936-.264c-.216-.02-.432-.039-.65-.054-.108-.008-.216-.014-.326-.021l-.092-.005a18.52 18.52 0 0 0-.319-.015c-.107-.005-.214-.007-.32-.01a27.79 27.79 0 0 0-1.274-.002l-.272.008c-.18.006-.36.016-.54.025-.27.018-.543.037-.813.062a24.315 24.315 0 0 0-6.95 1.701 24.425 24.425 0 0 0-3.288 1.632 42.841 42.841 0 0 0-.687.423 25.908 25.908 0 0 0-.998.67l-.05.036c-.102.071-.202.145-.303.218a22.161 22.161 0 0 0-.646.49 29.712 29.712 0 0 0-.931.771 28.374 28.374 0 0 0-.596.536Z"/><path fill="#A81251" d="M50.391 66.535a24.9 24.9 0 0 1-.547 3.267c.222-.065.441-.13.659-.198a13.23 13.23 0 0 0 .008-.494 23.078 23.078 0 0 0-.03-1.346v-.022a15.88 15.88 0 0 0-.017-.292 27.317 27.317 0 0 0-.073-.915ZM1.36 69.306c0 .086.002.171.004.258v.04c.218.066.435.132.656.197a24.28 24.28 0 0 1-.54-3.224c-.002-.002-.002-.003-.002-.005l-.01.11c-.013.129-.024.257-.034.387-.01.125-.018.251-.027.377a21.77 21.77 0 0 0-.032.65 20.004 20.004 0 0 0-.015.54c-.003.223-.004.447 0 .67Z"/><path fill="#66042D" d="M4.1 70.372c.498.129 1.005.252 1.52.371a77.11 77.11 0 0 0 5.201 1.018c.059.01.118.018.178.027l.009.002a3.683 3.683 0 0 0-.021-.096c-.671-3.003-2.678-5.441-4.481-5.446-.906-.003-1.63.628-2.04 1.637-.28.682-.415 1.538-.366 2.487Z"/><path fill="#2B2B2B" d="m12.384 69.661.001.002c.388.758.621 1.562.713 2.384l.004.05c.224.03.45.059.675.086a6.57 6.57 0 0 0-.04-.234c-.17-.892-.542-1.758-1.128-2.439a.136.136 0 0 0-.225.151Z"/><path fill="#66042D" d="M36.954 56.346c-1.346-.086-2.377-1.09-2.304-2.242.074-1.152 1.225-2.015 2.57-1.929 1.347.087 2.379 1.09 2.305 2.242-.074 1.152-1.225 2.016-2.57 1.93Z"/><path fill="#F03F8A" d="M36.042 56.356c-.95-.353-1.49-1.263-1.207-2.032.284-.77 1.285-1.107 2.235-.754s1.49 1.263 1.207 2.032c-.284.769-1.284 1.107-2.235.754Z"/><path fill="#2B2B2B" d="M37.022 56.543a2.835 2.835 0 0 0 1.578-.275c.246-.126.476-.289.675-.49a2.28 2.28 0 0 0 .47-.712c.227-.537.195-1.173-.045-1.702-.12-.265-.297-.5-.498-.702a2.748 2.748 0 0 0-.684-.502 3.352 3.352 0 0 0-.792-.28 3.395 3.395 0 0 0-.833-.06c-.278.02-.554.074-.819.162-.265.09-.514.225-.74.39a2.241 2.241 0 0 0-.903 1.379 1.981 1.981 0 0 0 .358 1.562.08.08 0 0 0 .137-.087c-.234-.438-.304-.946-.166-1.398.127-.453.436-.838.829-1.09.784-.515 1.863-.535 2.68-.099.406.22.759.545.95.953a1.7 1.7 0 0 1 .08 1.302c-.149.427-.475.795-.88 1.043a2.87 2.87 0 0 1-1.39.405.1.1 0 0 0-.008.2Z"/><path fill="#2B2B2B" d="M33.949 52.785a2.718 2.718 0 0 0-.598 1.458c-.054.54.069 1.095.316 1.58.243.49.624.898 1.06 1.215.44.312.939.538 1.46.658a4.397 4.397 0 0 0 1.594.07 3.947 3.947 0 0 0 1.501-.533 3.355 3.355 0 0 0 1.135-1.11c.274-.46.423-.991.404-1.513a.081.081 0 0 0-.162-.007v.002a2.816 2.816 0 0 1-.523 1.33c-.28.384-.66.685-1.074.91-.835.446-1.837.545-2.752.325a3.751 3.751 0 0 1-1.278-.567 3.373 3.373 0 0 1-.532-.451 5.08 5.08 0 0 1-.224-.267c-.061-.098-.14-.186-.19-.29L34 55.441c-.026-.051-.046-.106-.07-.159-.05-.105-.078-.217-.113-.328-.02-.055-.028-.113-.039-.17l-.033-.172c-.006-.116-.02-.233-.02-.35 0-.47.14-.941.386-1.363a.101.101 0 0 0-.036-.138.1.1 0 0 0-.127.023ZM39.652 66.669c.178.722.459 1.418.85 2.047a7.026 7.026 0 0 0 1.439 1.67c.068.063.142.117.215.173l.22.167.23.152c.077.05.154.1.235.144l.24.133c.08.046.166.08.247.12.042.022.085.042.128.061.273-.052.544-.105.812-.16l-.028-.011c-.079-.032-.158-.062-.233-.101l-.229-.111c-.076-.035-.148-.082-.222-.122-.072-.043-.148-.08-.218-.127l-.212-.14c-.071-.044-.138-.096-.205-.147l-.202-.151-.192-.164c-.064-.055-.13-.108-.188-.168a6.995 6.995 0 0 1-1.244-1.573 6.797 6.797 0 0 1-.735-1.859 6.044 6.044 0 0 1-.138-1.98c.057-.66.238-1.308.529-1.9a4.64 4.64 0 0 1 .527-.837c.203-.261.436-.5.694-.71a4.736 4.736 0 0 1 1.787-.916h.001a.135.135 0 0 0 .096-.166.135.135 0 0 0-.147-.1c-.18.02-.36.053-.538.094a4.887 4.887 0 0 0-.525.164 4.899 4.899 0 0 0-.979.515c-.305.212-.586.46-.838.739a5.165 5.165 0 0 0-.648.914 5.734 5.734 0 0 0-.672 2.13 6.504 6.504 0 0 0 .143 2.22Z"/><path fill="#66042D" d="M41.829 66.418c-.408-2.311.809-4.46 2.718-4.8 1.91-.339 3.79 1.26 4.198 3.57.408 2.312-.809 4.461-2.719 4.8-1.91.34-3.789-1.258-4.197-3.57Z"/><path fill="#F03F8A" d="M45.415 69.435c-1.25.015-2.52-.838-3.172-2.271-.868-1.909-.312-4.125 1.242-4.95.22-.118.447-.2.68-.25.916.375 1.739 1.162 2.237 2.255.882 1.94.43 4.166-.987 5.216Z"/><path fill="#2B2B2B" d="M48.68 64.265a4.375 4.375 0 0 0-1.562-1.893 4.067 4.067 0 0 0-1.149-.532 3.56 3.56 0 0 0-1.283-.114 3.03 3.03 0 0 0-1.248.383c-.387.21-.734.498-1.01.843-.545.7-.805 1.583-.792 2.446.031 1.733 1.093 3.376 2.653 4.082.773.351 1.677.453 2.495.203a3.07 3.07 0 0 0 1.869-1.575.108.108 0 0 0-.186-.11v.002a3.036 3.036 0 0 1-.789.806c-.307.212-.65.364-1.01.441a2.898 2.898 0 0 1-1.087.03 3.457 3.457 0 0 1-1.036-.335c-1.303-.669-2.18-2.106-2.19-3.553-.005-.72.2-1.441.63-2 .214-.277.48-.512.783-.687.149-.093.31-.166.476-.221.084-.028.168-.053.254-.074.086-.022.174-.03.262-.048.704-.1 1.452.072 2.094.441.649.365 1.19.925 1.588 1.585v.002a.134.134 0 0 0 .239-.122ZM17.19 64.87a6.092 6.092 0 0 0 .55 3.71c.19.383.423.746.69 1.083a6.281 6.281 0 0 0 1.977 1.633 6.648 6.648 0 0 0 2.46.724 7.03 7.03 0 0 0 2.543-.236c.82-.235 1.6-.607 2.29-1.104a7.409 7.409 0 0 0 1.758-1.813 6.873 6.873 0 0 0 .99-2.293.108.108 0 0 0-.206-.06 7.52 7.52 0 0 1-1.148 2.087 7.526 7.526 0 0 1-1.73 1.588 7.322 7.322 0 0 1-2.13.934c-.751.19-1.533.26-2.3.18-1.532-.143-3.004-.875-4.014-2.048a5.747 5.747 0 0 1-.668-.948 5.757 5.757 0 0 1-.474-1.067 6.544 6.544 0 0 1-.321-2.341.134.134 0 0 0-.266-.029Z"/><path fill="#66042D" d="M22.831 69.087c-2.357-.665-3.778-2.953-3.173-5.109s3.007-3.364 5.364-2.699c2.358.666 3.779 2.953 3.174 5.11-.605 2.155-3.007 3.364-5.365 2.698Z"/><path fill="#F03F8A" d="M27.787 66.371c-.399 1.472-1.718 2.648-3.442 2.887-2.297.317-4.445-1.151-4.798-3.278-.05-.3-.061-.598-.037-.888.699-.938 1.8-1.613 3.116-1.796 2.333-.321 4.527 1.027 5.161 3.075Z"/><path fill="#2B2B2B" d="M23.424 60.672a4.647 4.647 0 0 0-2.57 1.226c-.354.335-.66.725-.9 1.156-.24.43-.41.904-.5 1.394a3.98 3.98 0 0 0-.01 1.494c.082.494.244.983.503 1.418a4.265 4.265 0 0 0 2.302 1.869c.477.158.978.235 1.477.234l.374-.014.37-.05a4.845 4.845 0 0 0 3.089-1.894c.293-.395.53-.834.686-1.3.156-.467.238-.958.231-1.448a4.174 4.174 0 0 0-.27-1.427 3.842 3.842 0 0 0-.75-1.221.108.108 0 0 0-.166.137c.534.728.787 1.627.736 2.503a4.003 4.003 0 0 1-.28 1.273 4.398 4.398 0 0 1-.656 1.118 4.361 4.361 0 0 1-2.105 1.429c-.205.061-.413.11-.624.14l-.317.04-.319.008a3.99 3.99 0 0 1-1.245-.21A3.606 3.606 0 0 1 20.556 67a3.426 3.426 0 0 1-.445-1.176 3.067 3.067 0 0 1-.07-.632c-.002-.107 0-.213.006-.32.005-.107.023-.212.035-.319a4.306 4.306 0 0 1 1.127-2.296 4.61 4.61 0 0 1 2.264-1.32.134.134 0 0 0-.049-.264Z"/><path fill="#A81251" d="M16.316 52.086c-.36-2.226 1.822-4.434 4.875-4.933 3.053-.498 5.821.902 6.183 3.128.36 2.226-1.822 4.434-4.875 4.933-3.054.498-5.822-.902-6.183-3.128Z"/><path fill="#66042D" d="M16.316 52.086c-.36-2.226 1.822-4.434 4.875-4.933 3.053-.498 5.821.902 6.183 3.128.36 2.226-1.822 4.434-4.875 4.933-3.054.498-5.822-.902-6.183-3.128Z"/><path fill="#F03F8A" d="M17.782 52.807c-.275-1.696 1.388-3.379 3.714-3.758 2.327-.38 4.436.687 4.71 2.383.276 1.696-1.387 3.379-3.713 3.758-2.327.38-4.436-.687-4.711-2.383Z"/><path fill="#2B2B2B" d="M25.784 47.98c.408.3.758.673.996 1.102.24.429.362.913.357 1.393-.002.482-.13.96-.348 1.394a4.524 4.524 0 0 1-.862 1.185c-.699.7-1.581 1.218-2.525 1.54a7.258 7.258 0 0 1-2.94.398c-.985-.072-1.962-.383-2.716-.975a2.95 2.95 0 0 1-.874-1.095 2.74 2.74 0 0 1-.235-1.374c.04-.475.203-.943.44-1.374.238-.432.556-.825.92-1.174.727-.702 1.637-1.218 2.609-1.562a.108.108 0 0 0-.061-.207 6.976 6.976 0 0 0-2.85 1.434 5.317 5.317 0 0 0-1.075 1.24 3.893 3.893 0 0 0-.574 1.579 3.269 3.269 0 0 0 .235 1.7 3.616 3.616 0 0 0 1.035 1.364c.439.364.944.632 1.468.818a6.426 6.426 0 0 0 1.62.343c1.1.091 2.204-.082 3.233-.446a7.656 7.656 0 0 0 1.475-.718c.463-.295.898-.64 1.273-1.048.378-.404.7-.869.93-1.382a3.683 3.683 0 0 0 .324-1.65 3.216 3.216 0 0 0-1.053-2.224 4.027 4.027 0 0 0-.655-.486.134.134 0 0 0-.183.046.134.134 0 0 0 .034.177l.002.001Z"/><path fill="#2B2B2B" d="M14.889 53.15a3.837 3.837 0 0 1 .12-2.345c.27-.745.741-1.407 1.291-1.987a8.29 8.29 0 0 1 1.895-1.464 9.708 9.708 0 0 1 2.22-.923 9.832 9.832 0 0 1 2.376-.38 8.56 8.56 0 0 1 2.386.237c.775.196 1.525.51 2.17.982a4.33 4.33 0 0 1 1.482 1.86.108.108 0 0 0 .204-.069c-.22-.835-.74-1.586-1.404-2.148-.668-.563-1.463-.958-2.293-1.204a8.535 8.535 0 0 0-2.561-.345 10.096 10.096 0 0 0-4.933 1.381 8.362 8.362 0 0 0-2.001 1.65c-.574.648-1.05 1.408-1.3 2.256a4.223 4.223 0 0 0-.17 1.307c.012.44.105.875.264 1.277a.134.134 0 0 0 .254-.085Z"/><path fill="#F03F8A" d="M5.62 70.744c1.66.386 3.398.727 5.202 1.017l.178.028c-.015-.07-.03-.141-.047-.213-.547-2.365-2.004-4.337-3.361-4.628a1.618 1.618 0 0 0-.301-.036c-1.302-.033-1.989 1.63-1.67 3.832Z"/><path fill="#2B2B2B" d="M4.364 67.88c.033.016.071.017.103.005.03-.01.055-.03.071-.056l.001-.002c.24-.397.564-.737.952-.942a2.02 2.02 0 0 1 1.263-.205 2.8 2.8 0 0 1 .838.268c.133.066.262.14.387.222a5.11 5.11 0 0 1 1.026.896c.61.688 1.086 1.5 1.418 2.367.17.432.301.877.4 1.329l.178.027.009.002.578.09a9.158 9.158 0 0 0-.498-1.713 8.566 8.566 0 0 0-.686-1.345 7.159 7.159 0 0 0-.927-1.198 5.96 5.96 0 0 0-.561-.518 4.917 4.917 0 0 0-.63-.439c-.446-.257-.944-.449-1.474-.495a2.448 2.448 0 0 0-1.525.36 2.594 2.594 0 0 0-.583.52c-.163.2-.295.42-.403.646a.135.135 0 0 0 .063.181Z"/><path fill="#fff" d="M12.808 53.166c-.123 2.98-4.978 5.422-6.863 13.166-.8 3.285-3.471-.466-.843-6.626 2.436-5.71 7.792-8.64 7.706-6.54Z" opacity=".6"/><path fill="#2B2B2B" d="M50.504 69.966a.362.362 0 0 0 .36-.353 24.957 24.957 0 0 0-3.132-12.769 24.979 24.979 0 0 0-10.297-10.047 25.15 25.15 0 0 0-10.114-2.779l-.044-.002-.059-.002a25.03 25.03 0 0 0-1.932-.028c-3 .076-5.928.69-8.703 1.823a24.89 24.89 0 0 0-3.68 1.865A24.91 24.91 0 0 0 3.95 57.19a25.201 25.201 0 0 0-2.946 12.422.362.362 0 1 0 .722-.017c-.206-8.642 4.222-16.806 11.557-21.306a21.568 21.568 0 0 1 .892-.525 24.214 24.214 0 0 1 2.68-1.284 23.881 23.881 0 0 1 10.333-1.743l.046.002.054.003a24.418 24.418 0 0 1 9.814 2.699 24.249 24.249 0 0 1 9.998 9.755 24.214 24.214 0 0 1 3.042 12.398c-.005.2.153.367.352.372h.01Z"/><path fill="#2B2B2B" d="M50.504 69.966a.362.362 0 0 0 .36-.353 24.957 24.957 0 0 0-3.132-12.769 24.979 24.979 0 0 0-10.297-10.047 25.15 25.15 0 0 0-10.114-2.779l-.044-.002-.059-.002a25.03 25.03 0 0 0-1.932-.028c-3 .076-5.928.69-8.703 1.823a24.89 24.89 0 0 0-3.68 1.865A24.91 24.91 0 0 0 3.95 57.19a25.201 25.201 0 0 0-2.946 12.422.362.362 0 1 0 .722-.017c-.206-8.642 4.222-16.806 11.557-21.306a21.568 21.568 0 0 1 .892-.525 24.214 24.214 0 0 1 2.68-1.284 23.881 23.881 0 0 1 10.333-1.743l.046.002.054.003a24.418 24.418 0 0 1 9.814 2.699 24.249 24.249 0 0 1 9.998 9.755 24.214 24.214 0 0 1 3.042 12.398c-.005.2.153.367.352.372h.01Z"/><path fill="#fff" d="M5.566 20.526c0 .048.003.098.01.15.142 1.232 1.9 3.658 1.9 3.658s1.302.465 1.882.095c.23-.148.386-1.105.418-2.026.025-.752-.033-1.48-.202-1.723-.485-.698-4.007-.904-4.008-.154Z"/><path fill="#2B2B2B" d="M5.578 20.676c.141 1.232 1.9 3.658 1.9 3.658s1.301.464 1.881.094c.232-.148.387-1.105.418-2.025-.252.305-.547.517-.802.323-.547-.415-.053-1.678-1.3-2.226-.395-.175-1.33-.01-2.097.176Z" opacity=".25"/><path fill="#2B2B2B" d="M8.722 24.936c.301 0 .598-.052.832-.201.204-.13.335-.407.438-.926.166-.835.275-2.77-.119-3.336-.541-.778-3.093-.93-4.013-.64-.567.178-.652.51-.652.693-.001 1.254 1.776 3.742 1.979 4.022l.065.09.106.038c.162.058.77.26 1.364.26Zm.422-.799c-.289.155-.984.037-1.44-.108-.54-.76-1.722-2.591-1.772-3.447.152-.096.735-.22 1.679-.144.98.079 1.576.315 1.67.45.249.363.14 2.838-.137 3.25Z"/><path fill="#fff" d="M3.496 25.65c.7 1.802 2.106 2.196 2.565 2.196.666 0 .925-.275 2.187-.575 1.262-.302.072-5.142-.289-5.844-.363-.705-1.531-1.237-2.2-1.352a1.446 1.446 0 0 0-.237-.023c-.58 0-2.35 1.63-2.398 2.23-.116 1.467.057 2.559.372 3.367Z"/><path fill="#2B2B2B" d="M3.496 25.65c.7 1.803 2.106 2.197 2.565 2.197.666 0 .925-.275 2.187-.576 1.262-.301.072-5.142-.289-5.843-.363-.705-1.531-1.237-2.2-1.352.303.636.883 2.062 1.175 4.164.354 2.543-1.916 2.288-3.438 1.41Z" opacity=".25"/><path fill="#2B2B2B" d="M6.061 28.21c.434 0 .73-.104 1.103-.236.28-.099.63-.222 1.167-.35.194-.046.462-.183.64-.57.631-1.381-.398-5.221-.692-5.792-.494-.96-2.089-1.572-2.758-1.572-.787 0-2.694 1.774-2.757 2.565-.216 2.71.55 4.16 1.232 4.9.767.833 1.659 1.055 2.065 1.055Zm-.538-7.795c.495 0 1.788.546 2.115 1.18.287.557 1.155 4.111.676 5.157-.067.148-.13.162-.15.167-.573.137-.943.267-1.24.372-.356.126-.552.195-.863.195-.216 0-.913-.148-1.535-.823-.836-.908-1.196-2.413-1.042-4.35.048-.42 1.61-1.874 2.039-1.898Z"/><path fill="#fff" d="M44.564 18.696s1.344 2.375 3.425 2.375c1.038.001 2.08-1.03 2.48-2.043.137-.347.2-.693.16-.995-.068-.52-.634-1.06-1.329-1.541-1.222-.845-2.842-1.498-2.842-1.498l-1.894 3.702Z"/><path fill="#2B2B2B" d="M44.561 18.696s1.345 2.375 3.426 2.375c1.038.001 2.08-1.03 2.48-2.043-.242.05-.558.005-.861-.36-1.154-1.39-.308-2.176-.308-2.176-1.222-.845-2.842-1.498-2.842-1.498l-1.895 3.702Z" opacity=".25"/><path fill="#2B2B2B" d="M47.987 21.434c.715 0 1.48-.407 2.1-1.115.646-.739.99-1.633.898-2.333-.204-1.565-3.696-3.047-4.394-3.328a.362.362 0 0 0-.27.672c1.465.59 3.832 1.86 3.948 2.75.064.485-.228 1.193-.725 1.761-.475.544-1.057.868-1.557.868-1.842 0-3.099-2.17-3.111-2.192a.36.36 0 0 0-.493-.136.363.363 0 0 0-.135.494c.059.104 1.474 2.558 3.739 2.559Z"/><path fill="#2B2B2B" d="M46.56 20.39a.181.181 0 0 0 .173-.232.755.755 0 0 1 .08-.626c.468-.787 2.137-1.156 2.154-1.16a.181.181 0 0 0-.065-.356c-1.615.246-2.44-1.105-2.475-1.163a.18.18 0 1 0-.31.185c.007.012.612 1.012 1.779 1.296-.525.214-1.115.545-1.392 1.012-.17.287-.21.595-.117.914a.18.18 0 0 0 .173.13Z"/><path fill="#fff" d="M27.012 26.566A7.327 7.327 0 0 0 28.7 27.83a7.166 7.166 0 0 0 3.445.885c.494 0 .973-.021 1.436-.063 6.656-.587 10.236-5.111 11.005-5.512.82-.43 5.088-.46 4.763-2.458-.025-.154-.112-.308-.241-.46-.742-.875-2.88-1.706-2.772-2.19.172-.78 2.379-2.836 2.808-3.76.886-1.907-.474-3.29-1.238-2.364-1.29 1.562-2.77 2.359-5.103 4.195-.771.606-2.592 1.873-3.5 2.438-1.23.765-2.411 1.365-3.636 1.795-1.888.663-3.877.923-6.297.758l-.244-.018c-4.536-.357-4.484 3.11-2.114 5.491Z"/><path fill="#2B2B2B" d="M28.703 27.829a7.166 7.166 0 0 0 3.445.885c.494 0 .973-.021 1.436-.063 6.655-.587 10.236-5.111 11.004-5.512.82-.43 5.088-.46 4.764-2.458-.026-.154-.112-.308-.242-.46-.054.311-.297.644-.99.85-1.593.472-3.901.447-4.593.824-.913.497-4.31 4.545-8.58 4.545-2.803 0-3.79-2.257-3.79-2.257l-2.454 3.646Z" opacity=".25"/><path fill="#2B2B2B" d="M32.145 29.078c.496 0 .99-.022 1.468-.065 5.517-.487 8.992-3.642 10.475-4.99.288-.26.56-.507.663-.561.173-.09.67-.182 1.151-.271 1.632-.3 4.097-.755 3.803-2.567-.119-.728-1.07-1.311-1.988-1.875-.354-.216-.874-.536-1.01-.701.137-.364.807-1.14 1.352-1.77.613-.71 1.192-1.38 1.412-1.852.634-1.367.248-2.567-.437-3.002-.477-.302-1.03-.203-1.407.254-.855 1.035-1.782 1.712-3.065 2.65-.582.426-1.242.908-1.983 1.49-.745.587-2.56 1.851-3.467 2.415-1.265.787-2.43 1.363-3.565 1.761-1.883.662-3.838.897-6.153.74l-.222-.017-.018-.001c-2.656-.21-3.564.871-3.87 1.534-.582 1.265.01 3.103 1.473 4.573a7.658 7.658 0 0 0 5.388 2.255Zm16.32-17.102c.059 0 .12.02.183.06.364.231.657 1.03.168 2.084-.177.381-.749 1.043-1.302 1.683-.883 1.022-1.427 1.677-1.532 2.151-.113.51.472.87 1.358 1.413.632.388 1.587.974 1.652 1.374.167 1.025-1.5 1.42-3.22 1.738-.607.111-1.086.2-1.354.34-.186.097-.423.312-.815.668-1.43 1.298-4.778 4.339-10.054 4.805-.458.04-.93.062-1.404.062a6.933 6.933 0 0 1-4.878-2.042c-1.25-1.257-1.783-2.767-1.327-3.759.39-.849 1.512-1.245 3.157-1.115l.019.001.229.017c2.416.165 4.462-.082 6.44-.778 1.185-.416 2.397-1.014 3.707-1.829.941-.586 2.757-1.85 3.533-2.46a66.46 66.46 0 0 1 1.962-1.476c1.276-.932 2.284-1.669 3.196-2.773.09-.11.184-.164.281-.164Z"/><path fill="#2B2B2B" d="M38.902 27.568a.363.363 0 0 0 .237-.636c-2.294-1.999-1.861-7.018-1.857-7.069a.362.362 0 1 0-.718-.067c-.021.221-.472 5.44 2.102 7.683.068.06.153.09.236.09Z"/><path fill="#fff" d="M20.61 37.872c3.7.609 14.39 1.373 14.837-.463.134-.552-.508-4.562-1.866-8.758a37.717 37.717 0 0 0-1.575-4.09 22.22 22.22 0 0 0-1.302-2.45c-.165-.263-.647-.622-1.334-1.017-3.651-2.102-13.114-5.235-11.75-.535.163.563.277 1.134.352 1.71.089.663.125 1.333.123 2.002-.005 2-.341 3.99-.617 5.811-.6 3.966-.908 7.124 3.132 7.79Z"/><path fill="#2B2B2B" d="M17.784 26.562a54.834 54.834 0 0 0-.885 5.015c-.055.425-.097.855-.125 1.29a10.27 10.27 0 0 0-.007 1.317c.029.444.092.895.226 1.34.134.443.345.879.646 1.253.298.377.682.68 1.092.9.41.222.845.374 1.281.482.109.028.219.045.328.068.11.022.22.045.325.06.212.034.424.066.635.095.424.06.846.111 1.27.159a70.814 70.814 0 0 0 5.087.382c.85.03 1.702.046 2.555.035a28.06 28.06 0 0 0 2.57-.134c.43-.047.86-.106 1.295-.203a5.61 5.61 0 0 0 .656-.186c.22-.08.444-.175.667-.34.11-.085.223-.193.313-.34.02-.04.042-.078.06-.12.015-.042.03-.086.043-.13.01-.044.016-.089.021-.134l.006-.102c.006-.256-.018-.466-.04-.687-.046-.436-.111-.86-.184-1.284a43.394 43.394 0 0 0-.517-2.514 45.247 45.247 0 0 0-.65-2.477c-.484-1.636-1.07-3.249-1.826-4.781a.18.18 0 0 0-.334.139 83.08 83.08 0 0 1 1.48 4.836c.44 1.624.833 3.268 1.11 4.922.068.413.129.828.17 1.236.02.2.037.413.032.582l-.003.056c-.003.008-.003.016-.004.024a.047.047 0 0 0-.007.02c-.003.007-.01.014-.012.023a.502.502 0 0 1-.118.12 1.83 1.83 0 0 1-.463.226c-.18.063-.37.113-.566.156-.391.085-.8.14-1.21.181-.823.082-1.66.11-2.496.115a52.094 52.094 0 0 1-2.517-.05 78.513 78.513 0 0 1-5.03-.373 47.688 47.688 0 0 1-1.249-.152 28.828 28.828 0 0 1-.62-.09c-.104-.016-.2-.036-.298-.055-.098-.02-.197-.036-.293-.06-.766-.189-1.492-.517-1.953-1.096-.471-.57-.667-1.352-.721-2.153-.058-.804.011-1.637.106-2.468.095-.832.233-1.667.341-2.51.105-.843.184-1.696.172-2.555a.182.182 0 0 0-.36-.038Z"/><path fill="#fff" d="m27.325 17.256.138-.127-.149.087.01.04Z"/><path fill="#fff" d="M36.727 16.995C30.13 31.967 9.077 23.52 13.847 8.5c6.392-15.487 28.144-6.736 22.88 8.495Z"/><path fill="#fff" d="M36.727 16.995C30.13 31.967 9.077 23.52 13.847 8.5c6.392-15.487 28.144-6.736 22.88 8.495Z"/><path fill="#2B2B2B" d="M16.594 22.982c.465.471.968.902 1.502 1.29.301.22.613.426.932.617 2.38 1.426 5.224 2.061 7.985 1.678a11.07 11.07 0 0 0 4.994-2.007c1.397-1.01 2.652-2.405 3.661-4.225-1.888.664-3.877.924-6.297.759-3.651-2.102-13.114-5.235-11.75-.535.163.563.277 1.134.352 1.71-.384.223-.85.47-1.38.713Z" opacity=".25"/><path fill="#fff" d="M36.727 16.995C30.13 31.967 9.077 23.52 13.847 8.5c6.392-15.487 28.144-6.736 22.88 8.495Z"/><path fill="#2B2B2B" d="M25.553 25.109c1.463 0 2.907-.26 4.264-.783 3.119-1.2 5.589-3.7 7.143-7.227l.008-.02c1.25-3.619 1.083-7.133-.484-10.161-1.4-2.703-3.812-4.817-6.793-5.953-2.976-1.134-6.157-1.149-8.958-.042-3.158 1.248-5.622 3.834-7.126 7.478l-.007.02c-1.135 3.575-.905 7.032.667 9.998 1.406 2.652 3.793 4.726 6.721 5.84 1.492.566 3.039.85 4.565.85ZM36.485 16.9c-3.315 7.51-10.08 8.865-15.314 6.875-5.115-1.944-9.512-7.525-7.084-15.187C17.28.862 24.318-.53 29.507 1.448c5.24 1.997 9.658 7.683 6.978 15.452Z"/><path fill="#2B2B2B" d="M36.727 16.996c-5.475 13.032-23.852 8.705-23.577-4.884 1.325 4.228 2.837 4.22 5.378 6.146 7.856 6.378 18.17-.27 18.496-9.18a12.274 12.274 0 0 1-.297 7.918Z" opacity=".25"/><path fill="#293856" d="M25.557 25.213c1.476 0 2.932-.263 4.301-.79 3.145-1.21 5.635-3.728 7.2-7.281l.011-.028c1.26-3.647 1.091-7.19-.49-10.244-1.41-2.725-3.843-4.856-6.848-6.002-3-1.143-6.208-1.158-9.032-.041-3.185 1.258-5.67 3.864-7.184 7.534l-.01.029c-1.144 3.602-.911 7.087.674 10.078 1.418 2.675 3.824 4.766 6.776 5.888 1.504.571 3.064.857 4.602.857Zm10.835-8.35c-3.288 7.444-9.992 8.788-15.18 6.815-5.07-1.927-9.429-7.459-7.024-15.054C17.356.965 24.332-.415 29.475 1.545c5.193 1.98 9.571 7.616 6.917 15.318Z"/><path fill="#2B2B2B" d="M25.557 25.213c1.476 0 2.932-.263 4.301-.79 3.145-1.21 5.635-3.728 7.2-7.281l.011-.028c1.26-3.647 1.091-7.19-.49-10.244-1.41-2.725-3.843-4.856-6.848-6.002-3-1.143-6.208-1.158-9.032-.041-3.185 1.258-5.67 3.864-7.184 7.534l-.01.029c-1.144 3.602-.911 7.087.674 10.078 1.418 2.675 3.824 4.766 6.776 5.888 1.504.571 3.064.857 4.602.857Zm10.835-8.35c-3.288 7.444-9.992 8.788-15.18 6.815-5.07-1.927-9.429-7.459-7.024-15.054C17.356.965 24.332-.415 29.475 1.545c5.193 1.98 9.571 7.616 6.917 15.318Z"/><path fill="#263238" d="M35.242 19.755C24.38 29.129 11.526 16.767 19.265 6.863c9.34-10.565 23.951.654 15.977 12.892Z"/><path fill="#0F1416" d="M36.993 10.793c2.339 12.776-15.7 17.12-19.75 5.792 7.07 5.831 17.44 1.01 19.75-5.792Z"/><path fill="#2B2B2B" d="M26.78 24.696a10.34 10.34 0 0 0 4.363-.949c2.588-1.202 4.634-3.489 5.916-6.614l.001-.002c2.085-5.19.222-12.702-5.872-15.616l-.057-.021c-3.184-.901-6.753-.36-9.79 1.486-3.028 1.84-5.15 4.742-5.824 7.963-.572 3.136.005 6.103 1.667 8.59a11.718 11.718 0 0 0 6.428 4.7c1.048.31 2.116.463 3.169.463Zm9.611-7.838c-2.808 6.839-8.529 7.873-12.575 6.68-4.652-1.37-8.752-6.09-7.59-12.456.63-3.016 2.632-5.747 5.488-7.483 2.859-1.736 6.206-2.252 9.19-1.417 5.707 2.747 7.445 9.8 5.487 14.676Z"/><path fill="#2B2B2B" d="M27.058 23.449c2.916 0 5.822-1.18 8.42-3.42l.038-.034.028-.043c1.92-2.948 2.69-6.057 2.224-8.992a10.275 10.275 0 0 0-3.912-6.576 10.028 10.028 0 0 0-7.142-2.039c-2.833.29-5.502 1.77-7.72 4.277l-.013.017c-1.812 2.318-2.64 4.924-2.396 7.536.221 2.365 1.324 4.607 3.105 6.314a10.62 10.62 0 0 0 7.368 2.96Zm7.91-3.937c-5.559 4.769-11.424 3.667-14.779.453-3.045-2.918-4.424-8.028-.646-12.871 4.65-5.254 10.32-4.858 13.875-2.134 3.537 2.708 5.523 8.413 1.55 14.552Z"/><path fill="#fff" d="M12.166 17.526c1.774 5.491 7.41 4.17 6.243-1.243-1.649-5.824-7.673-4.412-6.243 1.243Z"/><path fill="#2B2B2B" d="M16.455 21c1.692-.384 2.582-2.686 1.88-4.998-.656 2.659-3.94-.987-4.32-2.127-4.2 1.855-.653 7.895 2.44 7.124Z" opacity=".35"/><path fill="#2B2B2B" d="M15.87 21.41c.255 0 .503-.033.739-.097 1.531-.413 2.792-2.153 2.156-5.107l-.006-.022c-.899-3.177-3.114-4.369-4.838-3.905-1.556.42-2.877 2.268-2.102 5.336l.006.023c.864 2.674 2.572 3.772 4.044 3.772Zm2.191-5.04c.531 2.482-.44 3.92-1.64 4.244-1.271.344-3.035-.508-3.905-3.189-.65-2.585.37-4.117 1.593-4.446 1.38-.373 3.18.673 3.952 3.391Z"/><path fill="#C5B3F1" d="M12 17.877c1.442 4.448 5.68 3.53 4.738-.849-1.329-4.778-5.934-3.775-4.738.849Z"/><path fill="#2B2B2B" d="M14.928 21.156c.189 0 .372-.024.547-.072 1.179-.319 2.136-1.72 1.617-4.133l-.005-.02c-.743-2.67-2.51-3.695-3.873-3.328-1.212.328-2.218 1.832-1.563 4.364l.006.021c.728 2.244 2.107 3.168 3.27 3.168Zm1.46-4.041c.415 1.94-.253 3.04-1.101 3.27-.925.25-2.239-.46-2.94-2.61-.526-2.048.177-3.235 1.055-3.472 1.017-.275 2.369.603 2.986 2.812Z"/><path fill="#fff" d="M19.094 13.643c1.034 2.198 3.543 1.058 2.968-.993-.87-2.545-3.848-1.25-2.968.993ZM21.094 17.031c.444.818 1.55.34 1.15-.593-.444-.817-1.55-.34-1.15.593ZM35.548 11.747c.081-8.766-8.917-8.462-11.303-6.222 5.716-.516 8.777 2.586 11.303 6.222Z" opacity=".5"/><path fill="#2B2B2B" d="M17.133 18.026a4.156 4.156 0 0 0-.545-1.887c-.319 3.217-3.633 2.352-4.704.253.046 4.676 5.013 6.066 5.249 1.634Z" opacity=".25"/><path fill="#fff" d="M12.809 51.802c1.779.28 4.905-.448 6.034-3.037 0 0 1.312-4.601 4.346-7.609 2.24-2.22 7.107-2.73 8.155-1.211 1.011 1.465-1.057 5.436.2 7.552.5.84 3.562 2.305 7.721 1.691 1.738-.257 1.996-1.549 1.818-2.408a2.036 2.036 0 0 0-.051-.202c-.51-1.646-2.797-2.02-2.797-2.02s2.973-4.327 1.847-7.908c-.943-2.996-3.331-4.127-5.251-4.143-.877-.007-1.655.217-2.156.603l-9.427-1.71-5.789-1.05c-.094.95-.22 1.838-.378 2.691a30.54 30.54 0 0 1-.542 2.407c-.866 3.23-2.229 6.313-4.113 10.922-1.663 1.047-2.569 2.026-2.803 2.863-.352 1.257.806 2.195 3.186 2.569Z"/><path fill="#2B2B2B" d="M12.809 51.803c1.779.28 4.905-.448 6.034-3.036 0 0 1.312-4.602 4.346-7.61 2.24-2.22 7.107-2.729 8.155-1.21 1.011 1.464-1.057 5.436.2 7.551.5.84 3.562 2.306 7.721 1.692 1.738-.258 1.996-1.55 1.818-2.409-.514.329-1.504.616-3.405.555-4.132-.133-5.47-1.32-4.833-4.48.594-2.945.427-4.996-.718-5.955l.215-.026.004-.001.105-.013a1.44 1.44 0 0 0 .154-.027l.062-.016c.024-.008.049-.013.072-.02h-.003a1.583 1.583 0 0 0 1.09-1.692l-.04-.325c0-.21-.004-.418-.016-.627a1.403 1.403 0 0 0 1.074-1.579l-.006-.03-.007-.037c-.876-.007-1.655.218-2.155.603l-9.427-1.709c-.037.054-.07.11-.1.166-.007.012-.011.023-.016.034-.017.032-.031.064-.044.097l-.019.046a3.519 3.519 0 0 0-.045.143 1.677 1.677 0 0 0-.044.238c-.002.019-.005.036-.005.053a1.358 1.358 0 0 0-.004.107l-.001.042c.001.051.005.103.01.153l.08.67c-.792.145-3.985.657-5.979-.108a30.585 30.585 0 0 1-.543 2.407c.092.086.161.124.161.124s2.626 1.127 6.656.038l.09.743a1.534 1.534 0 0 0 .137.48l.008.017c.022.043.045.085.07.127 0 .002 0 .004.002.005l.02.032c.026.038.052.076.08.112l.037.047.046.053a2.366 2.366 0 0 0 .092.093c.028.026.057.052.087.075l.012.01.031.024a2.162 2.162 0 0 0 .119.08c.023.015.047.028.072.042.015.008.03.017.046.024.036.02.074.036.112.052l.05.019.04.014c-.97.408-1.8.894-2.305 1.426-2.795 2.938-3.448 6.942-5.173 9.745-.903 1.468-5.404 1.938-7.405.403-.353 1.257.805 2.194 3.185 2.568Z" opacity=".26"/><path fill="#2B2B2B" d="M13.578 52.22c1.942 0 4.554-.92 5.596-3.31l.017-.045c.013-.045 1.322-4.548 4.252-7.45 1.5-1.487 4.172-2.115 5.923-1.952.831.077 1.428.322 1.681.688.392.567.198 1.748-.008 3-.253 1.544-.54 3.294.195 4.532.6 1.008 3.813 2.494 8.084 1.863 1.061-.157 1.585-.67 1.837-1.072.523-.834.302-1.744.222-2.004-.414-1.335-1.799-1.919-2.565-2.145.735-1.217 2.58-4.715 1.614-7.785-.878-2.79-2.844-3.785-3.938-4.13-1.484-.469-3.105-.303-4.033.413a.363.363 0 0 0-.066.507.36.36 0 0 0 .506.067c.738-.57 2.127-.691 3.377-.297.96.303 2.686 1.181 3.466 3.658 1.06 3.369-1.771 7.552-1.8 7.594l-.323.47.563.093c.02.003 2.073.361 2.51 1.77.117.38.142.948-.144 1.403-.25.398-.698.647-1.331.74-4.11.608-6.967-.857-7.358-1.517-.6-1.01-.348-2.552-.103-4.043.23-1.4.447-2.723-.111-3.53-.382-.553-1.146-.898-2.208-.997-1.914-.179-4.842.517-6.498 2.158-2.985 2.958-4.312 7.334-4.431 7.742-1.043 2.353-3.978 3.064-5.639 2.803-1.707-.269-2.772-.845-2.924-1.582-.172-.843.803-2.005 2.677-3.186l.098-.061.044-.108c.306-.749.6-1.458.878-2.134 2.289-5.547 3.67-8.895 4.181-13.986a.362.362 0 1 0-.718-.073c-.5 4.986-1.867 8.297-4.13 13.782-.266.645-.544 1.319-.835 2.03-2.698 1.726-3.07 3.062-2.902 3.882.155.753.89 1.738 3.52 2.151.254.04.531.062.824.062Z"/><path fill="#fff" d="M32.834 32.6a1.405 1.405 0 0 1 0-1.982 1.395 1.395 0 0 1 1.976 0 1.405 1.405 0 0 1 0 1.983 1.395 1.395 0 0 1-1.976 0Z"/><path fill="#2B2B2B" d="M35.215 31.551a1.4 1.4 0 0 1-1.337 1.46 1.4 1.4 0 0 1-1.346-1.947 1.397 1.397 0 0 0 2.525-.106c.093.178.15.38.158.593Z" opacity=".26"/><path fill="#2B2B2B" d="m33.818 33.297.072-.001a1.67 1.67 0 0 0 1.168-.544 1.687 1.687 0 0 0-1.31-2.828 1.688 1.688 0 0 0-1.067 2.928c.313.289.714.445 1.137.445Zm.002-2.804a1.116 1.116 0 1 1-.754 1.939 1.116 1.116 0 0 1 .754-1.938Z"/><path fill="#2B2B2B" d="M33.97 32.883a21.59 21.59 0 0 1-.512-4.307c.083.747.207 1.527.387 2.336.21.95.323 1.947.3 2.937a13.245 13.245 0 0 0-.176-.966Z" opacity=".35"/><path fill="#fff" d="m32.809 35.683-7.256.873a1.58 1.58 0 0 1-1.75-1.38l-.463-3.872a1.585 1.585 0 0 1 1.375-1.755l7.255-.874a1.578 1.578 0 0 1 1.75 1.38l.367 3.067.097.806a1.582 1.582 0 0 1-1.375 1.755Z"/><path fill="#2B2B2B" d="m32.809 35.683-7.256.873a1.58 1.58 0 0 1-1.75-1.379l-.463-3.873a1.584 1.584 0 0 1 1.066-1.686c.445.225.728.37.728.37.725 3.066 1.793 4.51 5.65 4.11 1.664-.173 2.683-.554 3.303-.975l.097.805a1.582 1.582 0 0 1-1.375 1.755Z" opacity=".26"/><path fill="#2B2B2B" d="M25.459 36.84c.078 0 .156-.004.236-.014l7.038-.847a1.975 1.975 0 0 0 1.72-2.194l-.438-3.656a1.961 1.961 0 0 0-.739-1.316 1.95 1.95 0 0 0-1.449-.41l-7.039.848c-.52.063-.985.326-1.31.741-.326.416-.472.932-.409 1.454l.438 3.656c.119 1.001.97 1.739 1.952 1.739Zm.168-.58a1.4 1.4 0 0 1-1.555-1.226l-.438-3.656c-.044-.37.06-.737.29-1.032.232-.296.563-.483.932-.528l7.039-.847c.37-.044.734.06 1.03.292.294.232.48.564.525.934l.437 3.656a1.403 1.403 0 0 1-1.222 1.56l-7.038.846Z"/><path fill="#fff" d="M33.098 35.619c-.092.03-.188.052-.288.064l-7.257.873a1.576 1.576 0 0 1-1.748-1.38l-.207-1.72-.068-.568-.19-1.585a1.582 1.582 0 0 1 1.375-1.755l1.569-.189a1.583 1.583 0 0 0-1.09 1.692l.25 2.093.213 1.782a1.58 1.58 0 0 0 1.75 1.379l5.69-.686Z"/><path fill="#2B2B2B" d="M33.098 35.619c-.092.03-.188.052-.288.063l-7.257.873a1.578 1.578 0 0 1-1.748-1.379l-.275-2.288c.23.382.618.839 1.149.828.291-.005.55-.248.765-.573l.213 1.782a1.58 1.58 0 0 0 1.75 1.38l5.69-.686Z" opacity=".35"/><path fill="#2B2B2B" d="M25.362 36.855c.075 0 .15-.005.224-.014l7.257-.873c.115-.014.23-.04.342-.076l-.122-.555-5.692.686a1.276 1.276 0 0 1-.948-.269 1.284 1.284 0 0 1-.484-.86l-.463-3.875a1.294 1.294 0 0 1 .892-1.386l-.12-.556-1.568.188a1.865 1.865 0 0 0-1.623 2.074l.463 3.873c.058.493.306.934.698 1.243.332.261.731.4 1.144.4Zm.714-.648-.558.067c-.34.04-.677-.054-.948-.269a1.283 1.283 0 0 1-.484-.86l-.464-3.874a1.293 1.293 0 0 1 1.127-1.438l.502-.06c-.267.369-.398.835-.34 1.315l.463 3.873c.058.493.306.934.698 1.243l.004.003Z"/><path fill="#22A7F0" d="M28.29 32.676c.017.143-.052 1.323-.052 1.323l-.815.093c-.56.065-1.08-.465-1.163-1.184-.082-.718.307-1.352.867-1.416l.814-.094s.323 1.044.35 1.278Z"/><path fill="#8A66E4" d="M28.29 32.676c.017.143-.052 1.323-.052 1.323l-.815.093c-.56.065-1.08-.465-1.163-1.184-.082-.718.307-1.352.867-1.416l.814-.094s.323 1.044.35 1.278Z"/><path fill="#2B2B2B" d="M27.331 34.326c.039 0 .078-.002.117-.006l.566-.065a.524.524 0 0 0 .464-.494c.053-.976.042-1.074.038-1.11-.016-.139-.112-.501-.285-1.08a.524.524 0 0 0-.562-.371l-.569.065c-.684.078-1.163.827-1.067 1.67.09.793.66 1.391 1.298 1.391Zm.732-1.625c.004.054-.003.357-.04 1.035a.069.069 0 0 1-.061.065l-.566.065c-.436.05-.843-.392-.91-.983-.068-.592.23-1.114.666-1.164l.568-.065a.07.07 0 0 1 .074.049c.23.769.264.958.269.998Z"/><path fill="#8A66E4" d="M27.076 32.817c-.082-.718.306-1.352.867-1.416.56-.065 1.081.465 1.163 1.183.082.719-.307 1.353-.867 1.417-.56.064-1.081-.466-1.163-1.184Z"/><path fill="#fff" d="M29.113 32.852c-.164-.579-.622-.975-1.11-.919-.491.056-.85.548-.877 1.15a1.677 1.677 0 0 1-.052-.268c-.081-.718.307-1.352.868-1.416.56-.064 1.08.465 1.162 1.184.011.091.014.182.009.27Z" opacity=".7"/><path fill="#8A66E4" d="M28.238 33.999c-.561.065-1.082-.465-1.164-1.184a1.65 1.65 0 0 1 .014-.476c.202.472.611.776 1.043.726.432-.05.762-.437.852-.941.061.14.103.294.121.459.082.718-.306 1.352-.866 1.416Z"/><path fill="#2B2B2B" d="M28.147 34.234c.039 0 .078-.002.117-.007.684-.078 1.163-.827 1.068-1.67-.096-.841-.731-1.463-1.416-1.384-.684.078-1.163.827-1.067 1.67.09.793.66 1.391 1.298 1.391Zm.732-1.624c.067.592-.232 1.113-.667 1.163-.436.05-.843-.391-.91-.983-.068-.592.23-1.113.666-1.163.436-.05.843.391.91.983ZM30.55 36.154h.022a.228.228 0 0 0 .205-.25l-.188-1.965c-.036-.38.119-.75.414-.99.425-.346.641-.877.578-1.422l-.32-2.763a.227.227 0 1 0-.453.053l.32 2.763a1.13 1.13 0 0 1-.412 1.014 1.59 1.59 0 0 0-.58 1.39l.188 1.964c.01.118.11.206.226.206Z"/><path fill="#fff" d="M17.013 31.67s-.637.584-.61 1.416c.03.962.655 1.31.655 1.31s2.71 1.166 6.852-.015c0 0 1.13-1.653-.308-2.443 0 0-4.393.914-6.589-.268Z"/><path fill="#2B2B2B" d="M16.402 33.086c.03.961.655 1.31.655 1.31s2.71 1.166 6.852-.015c0 0 .372-.545.417-1.157-.018.031-.03.048-.03.048-3.026.863-5.289.472-6.287.2-.693-.19-1.188-.776-1.218-1.466l-.002-.029a.29.29 0 0 1 0-.047c-.18.248-.404.658-.387 1.156Z" opacity=".26"/><path fill="#2B2B2B" d="M20.256 35.199c1.044 0 2.303-.136 3.73-.543l.1-.029.057-.085c.026-.038.638-.945.429-1.824-.104-.437-.384-.784-.834-1.03l-.092-.051-.103.021c-.043.009-4.318.88-6.397-.24l-.178-.096-.149.137c-.03.027-.733.683-.703 1.636.036 1.11.771 1.533.803 1.55l.026.013c.075.032 1.29.54 3.31.54Zm3.47-1.063c-3.777 1.045-6.315.094-6.54.004-.07-.046-.477-.343-.5-1.064-.015-.475.233-.86.391-1.055 2.13.985 5.783.35 6.474.218.254.16.407.36.467.61.12.505-.17 1.076-.293 1.287ZM21.746 43.217a.361.361 0 0 0 0-.725c-2.342 0-6.275-.417-6.854-1.533a.36.36 0 1 0-.64.334c.968 1.87 6.83 1.924 7.494 1.924ZM31.485 40.58a.36.36 0 0 0 .298-.157c1.978-2.893 3.98-3.977 5.31-4.377 1.432-.43 2.417-.184 2.427-.181a.362.362 0 0 0 .186-.7c-.18-.048-4.44-1.115-8.519 4.848a.363.363 0 0 0 .298.567Z"/><path fill="#fff" d="M38.23 44.559s-1.44.896-4.037.193Z"/><path fill="#2B2B2B" d="M38.042 44.25a.99.99 0 0 1-.08.049c-.03.018-.066.034-.1.051-.068.032-.139.066-.213.093-.145.06-.299.107-.454.149a5.3 5.3 0 0 1-.964.154c-.165.008-.33.018-.495.011-.167.003-.332-.014-.5-.025-.166-.012-.331-.042-.498-.061-.165-.029-.33-.063-.496-.094l-.012-.003a.18.18 0 0 0-.21.145.182.182 0 0 0 .128.207c.17.048.338.099.509.144.173.036.344.083.52.11.175.029.35.06.53.075.177.022.356.027.536.035a5.89 5.89 0 0 0 1.085-.078 4.458 4.458 0 0 0 .81-.217c.046-.018.09-.034.136-.056.048-.021.086-.038.149-.073l.012-.007a.364.364 0 1 0-.393-.608ZM15.918 47.628a6.454 6.454 0 0 1-.964-.083 5.083 5.083 0 0 1-.926-.233 2.734 2.734 0 0 1-.793-.43 1.483 1.483 0 0 1-.479-.651.361.361 0 1 0-.666.28c.088.184.2.354.332.504.131.15.284.274.442.38a3.32 3.32 0 0 0 1.004.436c.345.09.69.14 1.036.164.347.023.685.024 1.036-.006a.18.18 0 0 0-.013-.361h-.008Z"/></svg>