<svg width="400" height="200" fill="none" xmlns="http://www.w3.org/2000/svg"><g clip-path="url(#a)"><path fill="#060C34" d="M0 0h400v200H0z"/><path d="m303.5 210.506-3.5-2.739c-29.077 3.811 8 1.826 8 1.826s27.171-3.668 5.5 3.652c-21.671 7.315 11.5-1.37 11.5-1.37-5.766-2.191-8.632-6.024-11.5-9.129-2.519-2.729-5.393-4.896-5.393-4.896C286 180 265.402 187.331 265.402 187.331 257.118 165.38 232.9 175.44 232.9 175.44c-6.375-19.207-24.855-10.519-24.855-10.519C199 156.5 199 146.5 199 146.5l-6.894 1.5c0 11.891-4.464 16.003-4.464 16.003-11.475-4.571-17.843 7.315-17.843 7.315C137.933 166.289 129.5 189.5 129.5 189.5c-18.487-10.519-37 11.5-37 11.5-21 9.13-12.5 10.875-12.5 10.875-7.011-18.747 9 5.935 9 5.935s-17.257 16.413-30 3.609c-8.19-8.22 44-11.826-25-8.174h79.5c0 2.443 4.143 2.739 7.499 2.739H303.5c3.407 0 0-3.035 0-5.478Z" fill="url(#b)"/><path d="m204.422 152.327-.58 2.582a3.257 3.257 0 0 1-2.299 2.422 19.547 19.547 0 0 1-10.502.01 3.258 3.258 0 0 1-2.303-2.417l-.585-2.581" fill="#C6115D"/><path d="m189.716 152.46.58 2.557a3.599 3.599 0 0 0 2.546 2.671c.492.137.989.256 1.488.357a19.433 19.433 0 0 1-2.992-.585 3.239 3.239 0 0 1-1.485-.892 3.24 3.24 0 0 1-.818-1.525l-.585-2.582 1.266-.001Z" fill="#fff" opacity=".6"/><path d="M196.708 157.802a19.485 19.485 0 0 0 3.516-.644 3.253 3.253 0 0 0 2.298-2.421l.54-2.409-14.91.015.125.551 11.054-.012-.58 2.584a3.253 3.253 0 0 1-2.043 2.336Zm1.265-4.918-9.696.01-.04-.174 9.775-.01-.039.174Z" fill="#2D2D2D" opacity=".35"/><path d="M186.773 144.879c-2.977.288-7.965 3.332-5.913 13.99.027.14.213.174.287.053.812-1.319 4.579-7.546 8.532-7.401" fill="#DF2A76"/><path d="M181.81 157.583c-.372.56-.65 1.017-.811 1.279a.157.157 0 0 1-.287-.053c-2.052-10.659 2.935-13.702 5.912-13.991l.315.72c-2.756.804-6.197 3.889-5.129 12.045Z" fill="#fff" opacity=".6"/><path d="M190.248 151.743a.609.609 0 0 1-.59.387c-1.322-.049-4.112.802-7.951 7.049l-.038.062a.765.765 0 0 1-.792.352.764.764 0 0 1-.616-.61c-.997-5.181-.494-9.158 1.496-11.82 1.755-2.348 4.052-2.806 4.957-2.894a.612.612 0 0 1 .118 1.216c-.744.072-2.633.451-4.097 2.41-1.607 2.149-2.11 5.488-1.473 9.704 3.675-5.62 6.6-6.758 8.44-6.69a.612.612 0 0 1 .546.834Z" fill="#2D2D2D"/><path d="M205.473 144.86c2.978.283 8.137 3.316 6.107 13.979a.157.157 0 0 1-.288.053c-.814-1.317-4.771-7.537-8.723-7.384" fill="#FF81B6"/><path d="M211.58 158.839a.158.158 0 0 1-.288.053c-.418-.674-1.659-2.635-3.303-4.367-1.552-1.637-3.465-3.069-5.378-3.017l-.043.001.018-.04 2.886-6.608a6.427 6.427 0 0 1 2.816.997c2.492 1.589 4.752 5.31 3.292 12.981Z" fill="#DF2A76"/><path d="M207.991 154.524c-1.552-1.638-3.465-3.069-5.378-3.017-.008-.013-.018-.026-.025-.039l2.886-6.608a6.427 6.427 0 0 1 2.816.997c.727 2.134.838 4.979-.299 8.667Z" fill="#2D2D2D" opacity=".35"/><path d="M212.138 159.093a.763.763 0 0 1-.574.471.762.762 0 0 1-.792-.351c-1.05-1.698-4.742-7.228-8.18-7.095a.61.61 0 1 1-.047-1.22c3.498-.136 6.87 4.059 8.628 6.682.617-4.162.097-7.475-1.521-9.629-1.56-2.079-3.638-2.426-4.238-2.483a.61.61 0 0 1 .115-1.216c.931.088 3.29.554 5.1 2.965 2.003 2.669 2.524 6.617 1.549 11.736a.707.707 0 0 1-.04.14Z" fill="#2D2D2D"/><path d="M196.165 94.884s13.307 7.818 14.832 29.642c1.299 18.592-6.642 27.965-6.642 27.965a23.427 23.427 0 0 1-16.269.016s-3.553-4.176-5.533-12.494a43.76 43.76 0 0 1-.199-.874c-.698-3.219-1.153-7.016-1.094-11.389a58.38 58.38 0 0 1 .13-3.193l.01-.129c.309-4.419 1.104-8.262 2.172-11.581.033-.107.068-.211.102-.316 4.223-12.769 12.491-17.647 12.491-17.647Z" fill="#fff"/><path d="M208.046 110.385a56.495 56.495 0 0 0-23.604.024c4.369-11.313 11.788-15.69 11.788-15.69s7.424 4.362 11.816 15.666Z" fill="#DF2A76"/><path d="M197.019 95.3c-.59-.434-.938-.64-.938-.64s-7.418 4.377-11.787 15.69a55.214 55.214 0 0 1 1.51-.302c3.898-9.513 9.897-13.876 11.215-14.747Z" fill="#fff" opacity=".6"/><path d="m209.026 111.22-1.106-.235a55.501 55.501 0 0 0-23.348.023l-1.105.237.407-1.054c3.461-8.968 8.846-13.67 11-15.276a2.259 2.259 0 0 1 2.714-.003c2.157 1.602 7.549 6.296 11.029 15.255l.409 1.053Zm-23.592-1.635a56.653 56.653 0 0 1 21.621-.021c-3.362-7.983-8.209-12.196-10.195-13.672a1.046 1.046 0 0 0-1.256.001c-1.984 1.48-6.824 5.704-10.17 13.692Z" fill="#2D2D2D"/><path d="M208.753 145.641c-1.827 4.64-3.787 6.982-3.87 7.08l-.103.122-.15.055a23.953 23.953 0 0 1-8.346 1.505 23.936 23.936 0 0 1-8.346-1.488l-.151-.056-.103-.122c-.084-.098-2.077-2.471-3.924-7.175-1.695-4.313-3.576-11.494-2.916-21.212.346-5.094 1.364-9.859 3.026-14.161l.119-.308.323-.069a56.718 56.718 0 0 1 23.802-.036l.351.008.149.38c1.671 4.299 2.699 9.062 3.054 14.156.679 9.716-1.188 16.901-2.874 21.217l-.041.104Zm-4.706 6.17c.414-.531 2.097-2.812 3.633-6.779 1.629-4.19 3.431-11.17 2.77-20.627-.338-4.849-1.299-9.386-2.855-13.49a55.495 55.495 0 0 0-22.703.022c-1.549 4.107-2.5 8.645-2.829 13.496-1.156 17.028 5.566 26.255 6.456 27.393a22.698 22.698 0 0 0 7.764 1.355 22.712 22.712 0 0 0 7.764-1.37Z" fill="#2D2D2D"/><path d="M204.262 155.615a3.86 3.86 0 0 1-2.553 2.303 20.166 20.166 0 0 1-10.83.011 3.859 3.859 0 0 1-2.735-2.871l-.586-2.581a.612.612 0 0 1 1.192-.27l.585 2.582c.215.95.932 1.703 1.871 1.963 3.328.925 6.846.922 10.174-.01a2.642 2.642 0 0 0 1.867-1.967l.58-2.583a.611.611 0 0 1 1.191.268l-.58 2.583a3.827 3.827 0 0 1-.176.572Z" fill="#2D2D2D"/><path d="M204.855 118.349a8.4 8.4 0 1 0-15.406 6.698 8.4 8.4 0 0 0 15.406-6.698Z" fill="#2D2D2D" opacity=".35"/><path d="M203.283 123.912a7.555 7.555 0 0 0-14.056-5.536 7.553 7.553 0 1 0 14.056 5.536Z" fill="#DF2A76"/><path d="M197.851 113.788a7.552 7.552 0 0 0-8.062 7.542 7.555 7.555 0 0 0 6.115 7.409 7.554 7.554 0 1 1 1.947-14.951Z" fill="#fff" opacity=".6"/><path d="M203.81 121.136a7.554 7.554 0 0 1-11.167 6.64 7.554 7.554 0 0 0 5.297-13.997 7.556 7.556 0 0 1 5.87 7.357Z" fill="#2D2D2D" opacity=".35"/><path d="M203.855 124.139a8.137 8.137 0 0 1-1.821 2.772 8.106 8.106 0 0 1-5.77 2.397 8.108 8.108 0 0 1-5.775-2.386 8.107 8.107 0 0 1-2.397-5.77 8.115 8.115 0 0 1 2.385-5.776 8.113 8.113 0 0 1 5.771-2.396 8.108 8.108 0 0 1 5.775 2.385 8.11 8.11 0 0 1 2.397 5.771 8.15 8.15 0 0 1-.565 3.003Zm-14.062-5.543a6.941 6.941 0 0 0-.48 2.555 6.9 6.9 0 0 0 2.038 4.907 6.898 6.898 0 0 0 4.912 2.028 6.892 6.892 0 0 0 4.907-2.038 6.898 6.898 0 0 0 2.029-4.911 6.9 6.9 0 0 0-2.039-4.908 6.894 6.894 0 0 0-4.911-2.028 6.896 6.896 0 0 0-4.907 2.038 6.947 6.947 0 0 0-1.549 2.357Z" fill="#2D2D2D"/><path d="M200.571 119.138a4.805 4.805 0 1 0-8.814 3.832 4.805 4.805 0 0 0 8.814-3.832Z" fill="#FF81B6"/><path d="M200.972 121.049a4.806 4.806 0 0 1-6.439 4.524c.054.003.107.003.162.004a4.806 4.806 0 0 0 1.629-9.326 4.806 4.806 0 0 1 4.648 4.798Z" fill="#fff" opacity=".3"/><path d="M198.175 116.626a4.805 4.805 0 0 0-2.092 9.235 4.806 4.806 0 1 1 2.092-9.235Z" fill="#2D2D2D" opacity=".35"/><path d="M201.208 123.041A5.396 5.396 0 0 1 200 124.88a5.382 5.382 0 0 1-3.828 1.59 5.422 5.422 0 0 1-5.421-5.41 5.422 5.422 0 0 1 5.411-5.422 5.423 5.423 0 0 1 5.046 7.403Zm-8.946-3.52a4.198 4.198 0 0 0 3.909 5.727 4.168 4.168 0 0 0 2.965-1.231 4.165 4.165 0 0 0 1.225-2.967 4.2 4.2 0 0 0-4.198-4.191 4.202 4.202 0 0 0-3.901 2.662Z" fill="#2D2D2D"/><path d="M192.326 102.687c-1.081-.386-2.791 1.502-3.275 2.76-.502 1.304-.586 2.174.041 2.427.875.354 1.583-.536 2.103-1.721.367-.839 2.465-2.989 1.131-3.466ZM194.959 99.962c-.953-.295-2.255.484-2.565 1.065-.32.602-.321 1.027.234 1.213.775.259 1.306-.117 1.651-.659.244-.383 1.856-1.255.68-1.62Z" fill="#fff" opacity=".2"/><path d="M203.253 152.214s7.94-9.373 6.643-27.965c-1.319-18.88-11.456-27.276-14.166-29.198.08-.056.151-.103.213-.145-.251.167-.655.45-1.174.86 4.054 4.09 9.922 12.335 10.904 26.391.613 8.778-.834 15.502-2.531 20.153-2.169 5.941-8.027 9.742-14.327 9.186l-.104-.01a23.746 23.746 0 0 1-.748-.083c-.105-.007-.211-.012-.316-.021l-.104-.01-.111-.012-.023-.032c.457.676.745 1.015.745 1.015a23.328 23.328 0 0 0 5.24 1.272 23.408 23.408 0 0 0 9.859-1.401Z" fill="#2D2D2D" opacity=".35"/><path d="M199.094 151.459c.002 3.723-2.941 7.392-2.941 7.392l-.031-.04c-.317-.405-2.921-3.849-2.926-7.345-.004-3.356 2.42-6.054 2.871-6.526l.072-.074s2.953 2.895 2.955 6.593Z" fill="#DF2A76"/><path d="M196.348 144.777s.18.177.45.497c-.798.93-2.563 3.315-2.56 6.18.004 2.812 1.689 5.59 2.512 6.781-.235.338-.388.528-.388.528l-.032-.04c-.315-.405-2.919-3.85-2.924-7.346-.005-3.355 2.418-6.053 2.87-6.525l.072-.075Z" fill="#fff" opacity=".6"/><path d="M199.093 151.461c.003 3.723-2.941 7.392-2.941 7.392l-.031-.04-.055-13.872.072-.073s2.953 2.895 2.955 6.593Z" fill="#2D2D2D" opacity=".35"/><path d="M198.916 155.224a17.027 17.027 0 0 1-2.287 4.012l-.476.592-.476-.591c-.126-.157-3.086-3.876-3.091-7.769-.005-3.91 2.997-6.909 3.124-7.035l.428-.42.428.42c.128.125 3.136 3.118 3.139 7.028 0 1.317-.337 2.616-.789 3.763Zm-2.766 2.588c.802-1.182 2.335-3.782 2.333-6.35-.002-2.569-1.565-4.753-2.343-5.681-.775.932-2.337 3.125-2.333 5.685.003 2.574 1.54 5.166 2.343 6.346Z" fill="#2D2D2D"/><path d="M176.705 119.967s3.877-3.974 5.432-4.294c1.555-.32.42 2.652.42 2.652" fill="#fff"/><path d="M182.975 118.493a.456.456 0 0 1-.3.271l-5.852 1.642a.455.455 0 0 1-.448-.755c.407-.417 4.022-4.083 5.666-4.421.577-.119.905.099 1.078.303.632.743.051 2.45-.142 2.956l-.002.004Zm-4.684.557 3.913-1.098c.274-.806.382-1.643.223-1.831-.016-.018-.092-.024-.203-.001-.778.16-2.504 1.593-3.933 2.93Z" fill="#2D2D2D"/><path d="M158.339 135.823c.658 2.396 6.591 6.692 10.695 7.813 4.104 1.122 7.139-5.718 8.578-9.746 1.439-4.028-7.56-7.557-9.99-8.454-3.795-1.401-10.257 6.837-9.283 10.387Z" fill="#fff"/><path d="M177.612 133.889c-1.44 4.029-4.475 10.868-8.579 9.747a14.063 14.063 0 0 1-1.689-.593c1.296-.758 1.13-2.592.147-3.192-6.07-3.708-7.616-7.121-8.009-8.633 1.911-3.381 5.615-6.715 8.139-5.782 2.43.896 11.43 4.425 9.991 8.453Z" fill="#2D2D2D" opacity=".25"/><path d="M177.512 135.452c-1.894 4.807-4.798 9.661-8.597 8.623-3.97-1.085-10.26-5.385-11.014-8.131-.668-2.435 1.713-6.507 4.302-8.884 2.059-1.889 4.039-2.618 5.577-2.05 4.45 1.643 11.701 5.001 10.26 9.033-.166.466-.342.937-.528 1.409Zm-18.34-2.561c-.431 1.094-.592 2.091-.394 2.812.607 2.213 6.426 6.415 10.376 7.495 3.686 1.007 6.614-5.495 8.031-9.461 1.255-3.514-7.122-6.916-9.72-7.875-1.184-.437-2.878.244-4.647 1.868-1.644 1.508-2.973 3.454-3.646 5.161Z" fill="#2D2D2D"/><path d="m165.094 138.032-1.399 1.489a.768.768 0 0 0 .106 1.146c1.285.934 4.025 2.673 5.199 1.473 1.423-1.455-.346-2.866-2.99-4.262a.767.767 0 0 0-.916.154Z" fill="#fff"/><path d="M166.003 137.882c2.647 1.389 4.42 2.797 3 4.254-.583.6-1.556.471-2.544.075.341-.034.642-.156.879-.4 1.271-1.305-.017-2.571-2.202-3.818a.758.758 0 0 1 .867-.111Z" fill="#2D2D2D" opacity=".25"/><path d="M169.812 141.677a2.3 2.3 0 0 1-.507.752c-1.297 1.332-3.842-.034-5.749-1.414a1.187 1.187 0 0 1-.17-1.773l1.396-1.492a1.189 1.189 0 0 1 1.417-.241c2.432 1.277 3.541 2.267 3.707 3.312.047.293.015.579-.094.856Zm-5.883-1.75a.336.336 0 0 0-.022.161.337.337 0 0 0 .141.246c1.736 1.257 3.871 2.314 4.655 1.509.298-.306.42-.597.373-.89-.17-1.074-2.501-2.298-3.267-2.7a.347.347 0 0 0-.414.071l-1.396 1.492a.36.36 0 0 0-.07.111ZM158.244 136.085l1.78-1.701c.598-.564 1.191-1.128 1.812-1.678a.228.228 0 0 1 .318.325l-.003.003c-.554.591-1.095 1.209-1.635 1.822l-1.611 1.853-.003.004a.456.456 0 0 1-.686-.597c.008-.011.018-.021.028-.031Z" fill="#2D2D2D"/><path d="M169.559 103.627c2.07 1.607 4.351 8.523 1.624 16.082a21.585 21.585 0 0 1-.936 2.207l-3.111-.455-2.49-.364s.246-1.244.449-2.996c.162-1.384.297-3.086.266-4.742-.029-1.562-.206-3.086-.652-4.265 0 0-2.325-.971-2.302-1.73.028-.926 1.914-.879 1.914-.879s-1.172-2.593-.564-3.597c.903-1.494 3.533-1.026 5.802.739Z" fill="#fff"/><path d="M167.779 102.538c.594.27 1.199.638 1.781 1.089 2.269 1.764 4.794 9.911.688 18.29l-5.601-.819s.077-.386.179-1.031l3.271-.332c4.969-6.3 1.86-14.983-.318-17.197Z" fill="#2D2D2D" opacity=".35"/><path d="M171.384 120.468a22.462 22.462 0 0 1-.728 1.648.454.454 0 0 1-.816-.399c4.05-8.264 1.443-16.175-.56-17.732-1.429-1.111-3.057-1.699-4.147-1.497-.451.084-.783.297-.987.635-.333.551.145 2.189.59 3.176l.298.66-.724-.019c-.579-.013-1.425.147-1.447.431.067.268 1.025.887 2.022 1.304l.181.076.069.183c1.541 4.086.023 11.92-.042 12.251a.453.453 0 1 1-.891-.175c.015-.078 1.486-7.674.147-11.575-.854-.375-2.422-1.187-2.395-2.084.026-.911 1.005-1.196 1.705-1.283-.348-.918-.824-2.533-.29-3.415.339-.562.892-.927 1.599-1.058 1.353-.251 3.22.39 4.87 1.673 2.312 1.797 4.673 9.259 1.546 17.2Z" fill="#2D2D2D"/><path d="M183.466 118.069s-.075 12.058-1.811 15.615c-1.736 3.557-3.874 7.282-10.923 4.755-4.382-1.571-7.798-5.39-9.754-8.055-1.192-1.623-1.843-2.819-1.843-2.819l4.496-9.9s.548.171 1.464.437c.571.167 1.286.37 2.1.592 1.168.318 2.54.676 3.987 1.016 2.217.522 4.608 1.003 6.706 1.25.907.107 2.491-3.254 5.578-2.891Z" fill="#fff"/><path d="M168.274 118.827c1.381.108 2.713.382 4.044.653 1.331.268 2.656.561 3.989.789.333.056.667.107 1.001.155l.501.068.126.016.007.001-.001-.001-.003-.001-.006-.001-.005.002.003-.002.008-.001.022-.009c.012-.001.04-.021.06-.03.096-.054.216-.151.332-.254.118-.104.237-.219.359-.336.242-.235.492-.48.757-.716.528-.471 1.123-.918 1.818-1.213a4.36 4.36 0 0 1 2.234-.33l.406.046-.005.408a119.807 119.807 0 0 1-.205 5.721c-.117 1.905-.276 3.81-.551 5.712-.14.95-.304 1.9-.559 2.848a8.762 8.762 0 0 1-.491 1.417c-.052.122-.105.224-.158.332l-.16.322c-.108.215-.218.43-.333.643-.457.853-.974 1.7-1.644 2.452a7.105 7.105 0 0 1-1.123 1.023 6.065 6.065 0 0 1-1.347.74 6.41 6.41 0 0 1-1.484.374 7.772 7.772 0 0 1-1.507.051l-.188-.009-.185-.019-.371-.04-.366-.057-.183-.029-.181-.037-.362-.074c-.12-.027-.238-.059-.357-.088-.239-.056-.473-.127-.707-.197a15.546 15.546 0 0 1-2.716-1.097 18.183 18.183 0 0 1-2.47-1.558c-1.561-1.161-2.942-2.529-4.195-3.993-.626-.732-1.257-1.465-1.795-2.266-.536-.8-1.018-1.642-1.28-2.603a.156.156 0 0 1 .262-.149l.004.004c.673.694 1.239 1.441 1.797 2.192.566.746 1.097 1.52 1.706 2.232 1.213 1.424 2.553 2.745 4.044 3.854a17.295 17.295 0 0 0 2.346 1.481c.819.427 1.671.766 2.561 1.034.221.066.442.133.666.185.111.027.223.058.334.083l.337.069.168.034.169.027.337.052.338.036.169.018.169.008c.45.031.898.012 1.336-.045a5.41 5.41 0 0 0 1.274-.32c.814-.316 1.53-.853 2.123-1.521.597-.669 1.082-1.455 1.52-2.275.111-.204.217-.413.322-.622l.158-.316c.05-.105.108-.214.148-.311.041-.102.091-.196.128-.302l.115-.315c.067-.218.139-.432.195-.657.24-.888.401-1.814.538-2.742.268-1.86.427-3.747.542-5.635.112-1.887.182-3.785.204-5.672l.402.454a3.459 3.459 0 0 0-1.772.263c-.565.24-1.082.62-1.57 1.056-.245.218-.483.451-.731.691-.123.12-.25.241-.388.363-.14.122-.282.246-.483.363-.056.029-.1.058-.169.083l-.098.036c-.036.011-.078.019-.117.027a.935.935 0 0 1-.259.009l-.128-.015-.515-.063a57.994 57.994 0 0 1-3.061-.486 40.278 40.278 0 0 1-2.014-.434c-1.334-.324-2.654-.705-3.913-1.292a.155.155 0 0 1 .077-.294Z" fill="#2D2D2D"/><path d="M188.589 131.458c.609-.145 5.394-.916 6.207 1.542.713 2.152-.687 5.054-3.431 5.794-1.815.488-3.517.061-4.732-.486-1.42-.639-2.698-1.442-4.066-1.147-.73.157-1.495.588-2.353 1.09-.051-.213-.101-.43-.148-.651-.519-2.394-.858-5.22-.814-8.474.484-.448 1.035-.843 1.65-1.114 2.432-1.069 5.945.259 6.892 2.007.373.69.795 1.439.795 1.439Z" fill="#2D2D2D" opacity=".25"/><path d="M187.946 129.985c.609-.145 5.395-.917 6.208 1.541.713 2.152-.687 5.055-3.431 5.795-1.815.487-3.517.061-4.733-.486-1.419-.64-2.697-1.443-4.065-1.147-1.558.334-3.281 3.357-5.736 4.231-1.446.516-3.599.249-5.959-.779a18.206 18.206 0 0 1-2.195-1.149c-3.151-1.925-6.392-5.113-8.638-9.519 0 0 5.322.697 10.127 1.124 3.349.297 6.447.462 7.311.169.115-.039.19-.086.222-.142a8.124 8.124 0 0 1 1.436-1.861c.511-.492 1.101-.93 1.767-1.224 2.431-1.068 5.945.259 6.891 2.008.374.689.795 1.439.795 1.439Z" fill="#fff"/><path d="M193.503 130.585c.297.243.524.549.652.94.713 2.152-.687 5.054-3.431 5.794-1.814.488-3.517.061-4.732-.486-1.42-.64-2.699-1.441-4.065-1.147-1.558.335-3.282 3.358-5.736 4.233-1.446.515-3.6.247-5.959-.781l-.033-.014-.237-.107a20.14 20.14 0 0 1-.22-.102l-.101-.048a21.281 21.281 0 0 1-.95-.495 10.91 10.91 0 0 1-.147-.083c-.077-.043-.153-.088-.23-.133a22.867 22.867 0 0 1-.263-.158l-.015-.009c-.068-.136-.101-.225-.101-.225s.27-.263.715-.875c.708-.972 1.859-2.828 3.071-5.917l-1.621-.582a.87.87 0 0 1-.544-1.049l.551-1.999 7.807-.128-1.078 2.549-.81 1.918a.87.87 0 0 1-1.082.449l-.814-.292c-.288 1.844-1.293 4.686-2.606 6.266 1.726.523 3.26.589 4.373.192 2.455-.874 2.416-3.649 4.938-4.524 1.578-.545 3.444.8 4.864 1.44 1.215.547 2.843 1.741 4.656 1.254 2.399-.645 3.406-3.687 3.148-5.881Z" fill="#2D2D2D" opacity=".25"/><path d="M165.36 113.361a12.082 12.082 0 0 1 1.834 5.334 11.9 11.9 0 0 1-.059 2.769 12.079 12.079 0 0 1-.759 2.85 11.964 11.964 0 0 1-2.894 4.256 3.024 3.024 0 0 0-.084 4.299c1.683 1.735 3.498 3.078 5.252 4.022-.446.612-.716.875-.716.875s.033.09.101.225c-3.15-1.925-6.391-5.113-8.637-9.519l.337.096c-.393-.622-.6-1.002-.6-1.002l4.495-9.9s.549.171 1.464.437c.162-1.384.297-3.085.266-4.742Z" fill="#2D2D2D" opacity=".25"/><path d="M177.024 129.376a5.805 5.805 0 0 1 .886-1.537 6.229 6.229 0 0 1 1.308-1.247 5.79 5.79 0 0 1 .802-.467c.287-.134.59-.238.895-.313a5.783 5.783 0 0 1 1.85-.12c.611.06 1.208.193 1.78.397a6.94 6.94 0 0 1 1.635.815c.507.349.989.775 1.33 1.357l.831 1.501-.501-.22c.158-.036.293-.058.436-.082.14-.021.28-.042.421-.059.28-.034.561-.06.843-.077a11.047 11.047 0 0 1 1.705.022c.573.059 1.154.165 1.721.404.282.12.561.27.813.478.252.205.475.465.633.762l.059.111c.018.037.032.076.048.115.029.077.067.158.083.23.038.149.084.297.112.447.022.151.047.303.062.454l.014.455a5.063 5.063 0 0 1-.369 1.751 5.583 5.583 0 0 1-.92 1.521 5.218 5.218 0 0 1-1.367 1.138c-.129.075-.256.153-.395.209-.137.059-.27.128-.411.177l-.424.14c-.142.044-.285.071-.427.107a7.096 7.096 0 0 1-1.743.134 8.268 8.268 0 0 1-2.927-.729l-.378-.175c-.5-.234-.982-.476-1.462-.666-.48-.188-.961-.328-1.424-.328a1.092 1.092 0 0 0-.172.005c-.057.006-.115.004-.171.015l-.169.028c-.051.014-.094.022-.144.041a2.457 2.457 0 0 0-.598.328c-.402.291-.789.661-1.177 1.036-.776.753-1.566 1.559-2.54 2.193-.489.313-1.02.584-1.616.736a5.975 5.975 0 0 1-1.757.156 10.092 10.092 0 0 1-1.699-.24 14.227 14.227 0 0 1-1.621-.49 18.123 18.123 0 0 1-3.015-1.471c-1.906-1.161-3.618-2.616-5.108-4.265-.736-.83-1.468-1.672-2.086-2.598-.611-.928-1.143-1.917-1.409-3.015a.155.155 0 0 1 .269-.139l.001.001c.73.843 1.314 1.733 1.938 2.604.617.872 1.236 1.749 1.962 2.538 1.434 1.588 3.082 2.987 4.904 4.097a17.334 17.334 0 0 0 2.859 1.396c.496.181 1 .335 1.509.456.51.113 1.025.193 1.537.217a5.01 5.01 0 0 0 1.491-.128c.464-.117.921-.344 1.348-.619.861-.558 1.616-1.318 2.401-2.082.396-.381.797-.772 1.28-1.122.243-.173.512-.337.834-.45.078-.028.169-.05.25-.069l.235-.04c.078-.013.157-.014.236-.022a3.85 3.85 0 0 1 1.148.113c.291.073.572.165.837.272.534.212 1.028.461 1.515.69l.365.168c.118.051.237.104.357.149a7.321 7.321 0 0 0 2.242.501c1.011.043 2.053-.137 2.897-.645.424-.25.818-.562 1.135-.944a4.66 4.66 0 0 0 .766-1.267c.184-.458.292-.947.305-1.433l-.012-.363c-.013-.119-.033-.237-.049-.356-.022-.118-.059-.23-.087-.346-.012-.062-.037-.103-.055-.155-.01-.024-.018-.05-.03-.073l-.038-.069c-.194-.37-.556-.651-1-.833-.44-.188-.943-.285-1.454-.337a10.053 10.053 0 0 0-1.563-.018 12.136 12.136 0 0 0-1.176.126c-.126.02-.26.043-.368.068l-.337.077-.164-.296-.826-1.492c-.236-.406-.621-.767-1.054-1.056-.872-.581-1.935-.921-2.984-.999a5.412 5.412 0 0 0-1.55.101c-.25.054-.489.133-.724.23a4.801 4.801 0 0 0-.692.361 8.925 8.925 0 0 0-1.279.978 14.98 14.98 0 0 0-1.156 1.2l-.001.001a.154.154 0 0 1-.259-.155Z" fill="#2D2D2D"/><path d="M183.547 135.827a.34.34 0 0 1-.398.206c-3.843-.944-4.717-3.784-4.914-4.961-.327-1.952.333-3.888 1.606-4.709a.34.34 0 1 1 .37.573c-1.035.667-1.583 2.359-1.304 4.023.175 1.044.955 3.565 4.404 4.412a.34.34 0 0 1 .25.412c-.004.015-.008.03-.014.044ZM188.126 129.381c.025.061.039.102.055.151.017.047.03.094.043.141a4.275 4.275 0 0 1 .138.86 3.81 3.81 0 0 1-.119 1.166c-.104.38-.269.754-.527 1.055a2.013 2.013 0 0 1-.941.64c.197-.323.365-.615.47-.924.057-.15.1-.303.135-.456.036-.152.063-.306.074-.463a4.532 4.532 0 0 0-.021-.945c-.015-.158-.043-.315-.069-.473l-.047-.234-.048-.216-.007-.033a.455.455 0 0 1 .864-.269Z" fill="#2D2D2D"/><path d="M161.111 109.394a.245.245 0 0 1-.308.158l-6.72-2.163a.245.245 0 0 1-.158-.309 2.571 2.571 0 0 1 3.235-1.659l2.291.737a2.572 2.572 0 0 1 1.66 3.236Z" fill="#fff"/><path d="M161.152 109.426a.295.295 0 0 1-.364.172l-6.719-2.163a.295.295 0 0 1-.19-.37 2.624 2.624 0 0 1 3.297-1.691l2.291.738a2.599 2.599 0 0 1 1.528 1.298 2.6 2.6 0 0 1 .163 1.998l-.006.018Zm-7.125-2.485c-.02.05-.038.102-.055.154a.195.195 0 0 0 .127.247l6.719 2.163a.195.195 0 0 0 .247-.126 2.505 2.505 0 0 0-.156-1.924 2.506 2.506 0 0 0-1.472-1.25l-2.291-.738a2.51 2.51 0 0 0-1.924.157c-.551.282-.97.746-1.195 1.317Z" fill="#2D2D2D"/><path d="m158.374 105.812 1.075.346a2.572 2.572 0 0 1 1.66 3.235.246.246 0 0 1-.309.159l-1.787-.575a.244.244 0 0 0 .207-.168l.051-.159a2.569 2.569 0 0 0-.897-2.838Z" fill="#2D2D2D" opacity=".35"/><path d="M161.53 109.577a.7.7 0 0 1-.865.409l-6.72-2.163a.7.7 0 0 1-.451-.88 3.005 3.005 0 0 1 1.499-1.765 3.004 3.004 0 0 1 2.308-.188l2.291.737c.77.248 1.396.78 1.765 1.499.369.719.436 1.539.188 2.308l-.015.043Zm-7.098-2.552 6.302 2.029a2.12 2.12 0 0 0-1.421-2.462l-2.291-.737a2.1 2.1 0 0 0-1.615.132c-.44.225-.78.59-.975 1.038Z" fill="#2D2D2D"/><path d="M146.785 129.261a.245.245 0 0 1 .308-.159l6.72 2.163c.129.042.2.18.158.309a2.571 2.571 0 0 1-3.235 1.659l-2.291-.737a2.571 2.571 0 0 1-1.66-3.235Z" fill="#fff"/><path d="M153.96 131.75a2.593 2.593 0 0 1-1.24 1.367 2.599 2.599 0 0 1-1.999.163l-2.291-.737a2.605 2.605 0 0 1-1.528-1.298 2.603 2.603 0 0 1-.163-1.999.295.295 0 0 1 .37-.189l6.72 2.163a.296.296 0 0 1 .189.37 3.424 3.424 0 0 1-.058.16Zm-7.128-2.474a2.505 2.505 0 0 0 .156 1.924 2.513 2.513 0 0 0 1.472 1.25l2.291.737a2.505 2.505 0 0 0 1.924-.157c.6-.307 1.045-.83 1.25-1.471a.196.196 0 0 0-.127-.247l-6.719-2.163a.196.196 0 0 0-.247.127Z" fill="#2D2D2D"/><path d="m151.949 130.665 1.864.6c.129.042.2.18.158.309a2.563 2.563 0 0 1-1.363 1.544 2.565 2.565 0 0 1-1.871.116l-.966-.311a2.574 2.574 0 0 0 2.156-1.767l.078-.245a.247.247 0 0 0-.056-.246Z" fill="#2D2D2D" opacity=".35"/><path d="M154.34 131.897a3.03 3.03 0 0 1-3.742 1.769l-2.291-.737a3.008 3.008 0 0 1-1.765-1.499 3.004 3.004 0 0 1-.188-2.308.7.7 0 0 1 .88-.452l6.72 2.164a.698.698 0 0 1 .451.879c-.02.063-.042.124-.065.184Zm-7.175-2.294a2.118 2.118 0 0 0 1.42 2.461l2.292.737a2.098 2.098 0 0 0 1.614-.131 2.1 2.1 0 0 0 .975-1.039l-6.301-2.028Z" fill="#2D2D2D"/><path d="M164.979 114.531c-2.649-6.092-9.735-8.884-15.828-6.235-6.092 2.649-8.884 9.736-6.235 15.829 2.649 6.092 9.736 8.884 15.829 6.235 6.092-2.65 8.884-9.736 6.234-15.829Z" fill="#fff"/><path d="m165.186 123.752-.033.081c-2.485 6.179-9.533 9.184-15.712 6.699-6.152-2.474-9.158-9.472-6.732-15.631l.033-.081a11.996 11.996 0 0 1 6.469-6.604 11.998 11.998 0 0 1 9.243-.095c6.152 2.474 9.158 9.472 6.732 15.631Zm-22.387-8.814a11.902 11.902 0 0 0 .128 9.087 11.9 11.9 0 0 0 6.55 6.417 11.898 11.898 0 0 0 9.169-.095 11.9 11.9 0 0 0 6.417-6.55 11.912 11.912 0 0 0-.095-9.169 11.9 11.9 0 0 0-6.55-6.417 11.898 11.898 0 0 0-9.169.095 11.9 11.9 0 0 0-6.417 6.55l-.033.082Z" fill="#2D2D2D"/><path d="M156.852 107.651c.533.132 1.063.303 1.588.514 6.164 2.48 9.151 9.486 6.672 15.65-2.48 6.163-9.486 9.15-15.65 6.672a11.167 11.167 0 0 1-.524-.226c5.736 1.433 11.793-1.546 14.062-7.186 2.407-5.986-.341-12.767-6.148-15.424Z" fill="#2D2D2D" opacity=".35"/><path d="M165.568 123.899a12.401 12.401 0 0 1-6.72 6.911 12.402 12.402 0 0 1-9.554.099 12.4 12.4 0 0 1-6.825-6.687 12.397 12.397 0 0 1-.099-9.554 12.401 12.401 0 0 1 6.686-6.825 12.404 12.404 0 0 1 9.555-.099 12.404 12.404 0 0 1 6.825 6.686 12.398 12.398 0 0 1 .132 9.469Zm-22.386-8.813a11.498 11.498 0 0 0 .122 8.78 11.497 11.497 0 0 0 6.329 6.199 11.494 11.494 0 0 0 8.858-.091 11.497 11.497 0 0 0 6.2-6.328 11.514 11.514 0 0 0-.091-8.859 11.497 11.497 0 0 0-6.329-6.199 11.497 11.497 0 0 0-8.859.091 11.495 11.495 0 0 0-6.199 6.328l-.031.079Z" fill="#2D2D2D"/><path d="M158.711 108.316a10.792 10.792 0 0 1 5.181 4.212c.913 1.401 1.681 6.012-.063 10.67-1.617 4.319-5.419 7.351-7.036 7.779-2.156.57-4.47.499-6.667-.347-5.814-2.237-6.303-8.159-3.932-14.321 2.371-6.162 6.703-10.23 12.517-7.993Z" fill="#263238"/><path d="M164.001 123.505c-1.711 4.345-5.474 7.294-7.138 7.734a11.056 11.056 0 0 1-6.835-.356c-2.838-1.092-4.588-3.072-5.202-5.884-.537-2.458-.151-5.496 1.115-8.788 1.266-3.293 3.017-5.805 5.063-7.269 2.341-1.676 4.966-1.971 7.804-.88a11.055 11.055 0 0 1 5.311 4.318c.897 1.376 1.807 5.99-.036 10.913l-.082.212Zm-17.489-7.265-.065.166c-1.261 3.278-3.418 11.203 3.776 13.971a10.51 10.51 0 0 0 6.501.337c1.525-.403 5.151-3.292 6.774-7.412.027-.067.052-.133.077-.2 1.754-4.683.908-9.171.089-10.426a10.503 10.503 0 0 0-5.05-4.107c-7.075-2.723-10.782 4.319-12.102 7.671Z" fill="#2D2D2D"/><path d="M157.326 110.318c-1.005-.611-2.178-.516-2.621.212-.443.727.013 1.813 1.017 2.424 1.005.611 2.178.517 2.621-.211.443-.728-.013-1.814-1.017-2.425ZM160.312 114.265c-.418-.342-.994-.328-1.287.031-.293.358-.192.926.226 1.267.418.342.994.328 1.287-.031.293-.358.192-.926-.226-1.267Z" fill="#fff" opacity=".7"/><path d="M152.451 108.4c1.827-.863 3.924-.981 6.259-.083a10.792 10.792 0 0 1 5.181 4.212c.913 1.401 1.681 6.012-.063 10.67-.615 1.645-1.548 3.102-2.557 4.301 2.022-5.771 1.066-11.396-.067-13.133-1.546-2.373-3.787-4.274-6.575-5.346a12.182 12.182 0 0 0-2.178-.621Z" fill="#111A28" opacity=".35"/><path d="m145.88 127.652-.785.458.373-.214-.353.245c-2.168-3.124-2.364-7.636-.539-12.381 1.816-4.713 4.924-7.945 8.54-8.881a.456.456 0 0 1 .526.224.453.453 0 0 1-.289.653c-3.333.859-6.225 3.896-7.929 8.331-1.716 4.458-1.556 8.663.437 11.536a.18.18 0 0 1 .019.029Z" fill="#2D2D2D"/><path d="M154.547 129.456s-6.428-.406-7.524-4.377c-1.097-3.97.623-8.413.869-8.2 0 0-.703 5.382 2.448 8.806 2.43 2.64 4.207 3.771 4.207 3.771Z" fill="#fff" opacity=".7"/><path d="m173.133 118.725 2.457.618 1.911.48c.519.131.849.639.756 1.167-.06.34-.139.76-.238 1.24-.354 1.709-.973 4.184-1.941 6.536-.208.505-.78.755-1.294.568l-4.873-1.779a1.022 1.022 0 0 1-.591-1.357c.69-1.627 2.034-4.881 2.585-6.771a1.018 1.018 0 0 1 1.228-.702Z" fill="#fff"/><path d="m169.292 126.27-.551 1.999a.87.87 0 0 0 .544 1.049l4.845 1.739a.87.87 0 0 0 1.081-.449l.809-1.729" fill="#fff"/><path d="m169.292 126.27-.551 1.999a.87.87 0 0 0 .544 1.049l4.845 1.739a.87.87 0 0 0 1.081-.449l.809-1.729" fill="#2D2D2D" opacity=".25"/><path d="M176.611 128.524c-.052.132-.105.263-.159.394a1.418 1.418 0 0 1-1.802.792l-4.874-1.779a1.41 1.41 0 0 1-.817-.769 1.41 1.41 0 0 1-.005-1.121c.728-1.719 2.03-4.879 2.569-6.727a1.416 1.416 0 0 1 1.711-.979l4.367 1.098a1.427 1.427 0 0 1 1.053 1.625c-.276 1.569-.901 4.566-2.043 7.466Zm-6.924-2.155a.615.615 0 0 0 .364.808l4.874 1.779a.616.616 0 0 0 .785-.343c1.213-2.949 1.872-6.086 2.155-7.694a.622.622 0 0 0-.46-.708l-4.367-1.098a.616.616 0 0 0-.745.425c-.55 1.888-1.865 5.081-2.6 6.816l-.006.015Z" fill="#2D2D2D"/><path d="m176.397 129.027-.01.024-.81 1.729c-.279.597-.959.88-1.579.657l-4.845-1.74a1.276 1.276 0 0 1-.795-1.533l.551-2a.4.4 0 1 1 .773.214l-.551 1.999a.47.47 0 0 0 .293.565l4.845 1.74a.466.466 0 0 0 .582-.243l.809-1.728a.403.403 0 0 1 .534-.194c.192.091.28.315.203.51ZM177.827 124.916a.403.403 0 0 1-.498.234l-2.502-.821-1.323.91a.398.398 0 0 1-.348.051l-3.024-.957a.401.401 0 1 1 .242-.765l2.837.898 1.325-.91a.402.402 0 0 1 .353-.051l2.689.883a.4.4 0 0 1 .256.506l-.007.022Z" fill="#2D2D2D"/><path d="M175.258 119.882c.154.043 1.338.606 1.338.606l-.245.879c-.168.604-.931.92-1.703.705-.773-.215-1.262-.879-1.094-1.484l.245-.878s1.208.102 1.459.172Z" fill="#8A66E4"/><path d="M175.257 119.883c.154.042 1.339.605 1.339.605l-.009.029c-.342-.16-.751-.346-.837-.37-.251-.071-1.458-.173-1.458-.173l-.245.878c-.118.422.086.875.483 1.183-.704-.246-1.136-.874-.976-1.447l.245-.878s1.207.103 1.458.173Z" fill="#fff"/><path d="M176.64 121.58c-.278.707-1.181 1.073-2.083.822-.952-.266-1.549-1.12-1.33-1.904l.171-.613a.67.67 0 0 1 .708-.489c1.014.095 1.187.144 1.244.159.046.013.153.043 1.14.507a.67.67 0 0 1 .36.787l-.17.611c-.011.04-.024.081-.04.12Zm-2.588-1.505-.168.605c-.116.416.276.903.856 1.065.581.162 1.167-.054 1.284-.468l.168-.602c-.659-.31-.964-.443-1.027-.464-.086-.023-.423-.071-1.113-.136Z" fill="#2D2D2D"/><path d="M176.594 120.487c.168-.605-.321-1.27-1.094-1.485-.772-.215-1.535.101-1.703.706-.168.605.321 1.269 1.094 1.484.772.215 1.534-.101 1.703-.705Z" fill="#8A66E4"/><path d="M175.502 119.005c.094.026.183.058.267.097-.668-.078-1.273.229-1.421.76-.148.532.212 1.11.827 1.388a1.77 1.77 0 0 1-.283-.056c-.772-.215-1.262-.88-1.093-1.484.168-.605.931-.92 1.703-.705Z" fill="#fff"/><path d="M176.884 120.706c-.133.337-.406.604-.782.759a2.005 2.005 0 0 1-1.3.059 2.009 2.009 0 0 1-1.083-.722c-.27-.367-.358-.786-.247-1.182.11-.396.402-.71.823-.884a2.005 2.005 0 0 1 1.3-.058c.446.124.831.38 1.082.722.27.366.359.786.248 1.182a1.636 1.636 0 0 1-.041.124Zm-2.738-.958a.505.505 0 0 0-.018.055c-.053.189-.003.4.14.594.161.22.416.387.717.47.3.084.604.073.856-.031.223-.093.375-.248.427-.437.053-.19.003-.401-.14-.595a1.327 1.327 0 0 0-.716-.47 1.326 1.326 0 0 0-.857.032c-.201.083-.344.218-.409.382Z" fill="#2D2D2D"/><path d="M166.879 137.349s2.136-2.073 4.294-8.157c0 0 1.488-.685 1.925.758.437 1.442-1.5 7.829-3.935 8.779-1.542.602-2.284-1.38-2.284-1.38Z" fill="#fff"/><path d="M173.099 129.948c.436 1.442-1.501 7.828-3.936 8.779-.733.287-1.285-.011-1.662-.404.121-.016.247-.049.38-.101 2.436-.951 4.373-7.337 3.936-8.779a1.644 1.644 0 0 0-.173-.39c.475-.079 1.176-.022 1.455.895Z" fill="#2D2D2D" opacity=".25"/><path d="M172.546 134.764c-.552 1.402-1.676 3.729-3.235 4.338-.495.193-.973.189-1.422-.011-.931-.416-1.366-1.554-1.384-1.602l-.092-.246.188-.182c.032-.032 2.111-2.125 4.196-8.004l.057-.16.154-.071c.088-.04.884-.388 1.609-.061.287.129.67.419.867 1.067.293.968-.261 3.185-.9 4.836l-.038.096Zm-5.189 2.661c.142.278.435.745.862.934.248.11.51.109.8-.005 2.231-.87 4.066-7.072 3.697-8.289-.089-.293-.229-.479-.428-.569-.258-.116-.592-.057-.798.005-1.792 4.99-3.553 7.263-4.133 7.924Z" fill="#2D2D2D"/><path d="M184.253 119.231c.736 1.334.648 4.647-.944 5.822-1.329.982-2.514.563-3.551 1.222-.06.038-.195.173-.402.378.23-3.288.822-6.148 1.616-8.617 1.687-.535 2.671.091 3.281 1.195Z" fill="#2D2D2D" opacity=".25"/><path d="M165.479 126.383c5.366-1.662 9.99-6.07 14.166-8.146 2.288-1.138 2.946-.559 3.664.742.737 1.333.955 3.869-.637 5.044-1.33.981-2.138.757-3.174 1.415-.409.26-4.272 5.508-10.624 6.764" fill="#fff"/><path d="M183.308 118.977c.736 1.333.954 3.869-.638 5.044-1.329.981-2.137.757-3.174 1.416-.409.259-4.272 5.507-10.624 6.762l-.059-.1c5.244-2.125 6.962-5.817 9.885-7.568 1.053-.63 1.315-.618 2.644-1.6 1.592-1.175 1.374-3.711.638-5.043a6.735 6.735 0 0 0-.141-.246c.675.093 1.062.598 1.469 1.335Z" fill="#2D2D2D" opacity=".25"/><path d="M165.434 126.238c.763-.501 1.545-.854 2.32-1.257a76.552 76.552 0 0 0 2.317-1.216 37.483 37.483 0 0 0 2.242-1.387c.737-.482 1.466-.984 2.199-1.483.736-.499 1.468-1.004 2.222-1.487.186-.123.376-.243.568-.36.191-.118.38-.238.573-.354.391-.225.777-.457 1.183-.662.396-.215.815-.417 1.258-.586.114-.039.227-.079.342-.116.121-.03.238-.065.362-.091l.19-.032.095-.016.101-.007.201-.01c.069 0 .14.008.21.013.278.027.579.113.822.277.244.158.442.357.597.558.154.202.285.408.399.61.058.098.115.209.17.322.06.111.099.225.148.338.176.456.285.927.337 1.406.051.479.044.968-.041 1.453-.086.485-.254.97-.533 1.403l-.109.159a1.1 1.1 0 0 1-.119.153c-.088.095-.169.198-.266.284-.098.083-.198.171-.297.249-.098.068-.194.139-.296.203a5.359 5.359 0 0 1-1.306.616c-.45.145-.863.238-1.211.403-.046.018-.087.042-.131.064a1.559 1.559 0 0 0-.127.069l-.062.037-.031.019-.016.009c-.007.004.001.001 0 .001a.012.012 0 0 0 .008-.006l-.019.018-.046.046c-.139.145-.292.315-.442.478-.304.33-.615.657-.935.975-1.28 1.273-2.7 2.421-4.27 3.341-.39.233-.793.445-1.2.65-.411.196-.817.405-1.241.578a6.204 6.204 0 0 1-.645.233 3.686 3.686 0 0 1-.331.094c-.111.027-.222.054-.334.077a4.748 4.748 0 0 1-.685.084 3.694 3.694 0 0 1-.702-.039.16.16 0 0 1-.133-.185.159.159 0 0 1 .067-.107l.007-.005c.197-.136.398-.232.597-.33.198-.102.4-.18.599-.265.1-.042.201-.08.302-.117.1-.037.2-.08.3-.117.1-.04.201-.077.302-.112.1-.039.201-.078.302-.114a12.77 12.77 0 0 0 1.195-.492c.386-.192.768-.395 1.14-.616 1.492-.876 2.855-1.975 4.089-3.202.309-.308.61-.623.907-.946.151-.163.294-.324.462-.498.019-.021.047-.048.072-.072.014-.013.022-.022.042-.039.023-.019.047-.039.072-.057a.906.906 0 0 1 .034-.024l.02-.012.04-.024.081-.048c.107-.064.221-.12.333-.172.458-.212.917-.312 1.31-.441a4.487 4.487 0 0 0 1.093-.515c.086-.053.168-.116.252-.173l.213-.179c.07-.06.124-.136.188-.202a.602.602 0 0 0 .085-.109l.079-.115c.202-.313.333-.681.401-1.068a4.59 4.59 0 0 0-.248-2.371c-.039-.091-.071-.187-.118-.271-.043-.087-.085-.174-.141-.267a4.411 4.411 0 0 0-.327-.503 1.527 1.527 0 0 0-.366-.349.895.895 0 0 0-.426-.141c-.321-.03-.713.062-1.096.207a9.529 9.529 0 0 0-1.152.538c-.386.195-.76.421-1.138.638-.187.112-.373.23-.559.344-.187.115-.372.231-.556.353-.74.474-1.469.976-2.201 1.474-.734.499-1.466 1.003-2.213 1.492-.742.495-1.506.963-2.268 1.439-.772.459-1.553.915-2.392 1.261-.823.37-1.709.63-2.628.69a.157.157 0 0 1-.166-.146.157.157 0 0 1 .07-.14l.005-.003Z" fill="#2D2D2D"/><path d="M175.076 129.87a.4.4 0 0 1-.605.18c-.188-.132-4.571-3.275-3.236-6.664a.9.9 0 0 1 .022-.055.4.4 0 0 1 .524-.218.398.398 0 0 1 .218.523l-.017.042c-1.108 2.812 2.91 5.688 2.951 5.717a.402.402 0 0 1 .143.475ZM172.807 113.012a.4.4 0 0 1-.119.163c-1.798 1.466-6.939-.401-7.52-.618a.401.401 0 0 1-.234-.517l.002-.006a.401.401 0 0 1 .514-.228c1.457.546 5.507 1.744 6.731.747a.4.4 0 0 1 .626.459ZM164.48 106.162c.025.005.069.021.106.032l.117.039c.08.023.159.051.239.074.161.051.325.093.491.133.167.041.336.07.513.103.178.042.359.065.568.123a1.407 1.407 0 0 1-.533.312c-.097.035-.198.053-.299.072-.101.011-.204.024-.305.024a2.615 2.615 0 0 1-.612-.051c-.1-.023-.201-.046-.298-.081a1.632 1.632 0 0 1-.299-.131.358.358 0 0 1 .25-.663l.062.014Z" fill="#2D2D2D"/></g><defs><radialGradient id="b" cx="0" cy="0" r="1" gradientUnits="userSpaceOnUse" gradientTransform="matrix(439.548 0 0 319.986 235.291 63.326)"><stop stop-color="#fff"/><stop offset=".193" stop-color="#fff"/><stop offset=".391" stop-color="#BEA5FF"/><stop offset=".609" stop-color="#6B3DE1"/><stop offset=".898" stop-color="#2B1B6C"/></radialGradient><clipPath id="a"><path fill="#fff" d="M0 0h400v200H0z"/></clipPath></defs></svg>