<svg width="320" height="405" fill="none" xmlns="http://www.w3.org/2000/svg"><g clip-path="url(#a)"><path fill="#060C34" d="M0 0h320v405H0z"/><path d="M320.34 400.953v-86.002c-23.289 4.174-23.759 32.137-23.759 32.137s-8.166-11.522-25.523-3.504c-17.358 8.013-11.232 27.547-11.232 27.547-8.676-4.509-11.232 4.006-11.232 4.006-14.807-27.044-34.205-11.521-34.205-11.521-6.635-24.043-26.033-13.024-26.033-13.024-5.106-21.038-19.908-11.522-19.908-11.522-5.106-9.516-4.953-18.478-4.953-18.478l-7.814-.056c0 13.025-3.576 17.529-3.576 17.529-9.191-5.007-14.292 8.012-14.292 8.012-25.523-5.509-27.059 16.529-27.059 16.529-14.807-11.522-26.549 2.503-26.549 2.503-18.377-15.025-32.164 1.503-32.164 1.503-5.616-20.535-25.014-15.025-25.014-15.025s2.04-15.025-8.166-29.05C12.301 313.534 4.054 311.97-1 312v88.953c0 2.676-2.688 5.262 0 5.262l323.123.785c2.729 0-1.782-3.371-1.782-6.047Z" fill="url(#b)"/><path d="M-.764 323.427c.753.432 1.42.879 1.933 1.274.418.308.738.583.957.779l.346.308s.127.112.35.303c.225.196.535.476.876.835a14.61 14.61 0 0 1 2.152 2.824 13.755 13.755 0 0 1 1.332 3.151c.255.891.362 1.506.468 1.502.092 0 .183-.627.092-1.566-.081-.938-.392-2.185-.936-3.383a13.55 13.55 0 0 0-2.01-3.123 12.814 12.814 0 0 0-.874-.943c-.224-.219-.357-.343-.357-.343s-.142-.116-.396-.316a17.382 17.382 0 0 0-1.094-.79c-.733-.5-1.735-1.063-2.839-1.558v1.046ZM310.826 332.138c-1.165.18-2.676.691-3.897 1.53-1.241.819-2.106 1.961-2.488 2.872a7.22 7.22 0 0 0-.376 1.114c-.066.272-.087.427-.087.427s-.04.308-.045.827a9.217 9.217 0 0 0 .076 1.186l.01.064.005.008.005.016c.01.02.026.056.031.088h-.041l-.086-.004-.148-.008c-.122 0-.244-.004-.371-.004a6.562 6.562 0 0 0-1.587.184c-1.028.248-1.928.711-2.539 1.25-.626.531-.961 1.118-1.089 1.546a1.428 1.428 0 0 0-.081.507c0 .12.015.184.051.188.03.004.081-.056.137-.16.056-.108.127-.26.25-.439.223-.364.62-.835 1.236-1.247.605-.415 1.429-.746 2.294-.89.432-.068.87-.1 1.282-.064l.153.012.076.004.035.004.072.016c.183.036.371.076.549.112.173.032.382.084.59.139.209.052.417.108.621.16-.041-.375-.082-.735-.117-1.078-.01-.088-.015-.176-.026-.26-.005-.068-.01-.132-.01-.199 0-.084-.005-.168-.005-.252a8.096 8.096 0 0 1 .026-.839c.035-.467.091-.735.091-.735s.01-.14.051-.379c.041-.24.107-.583.249-.979.265-.791.901-1.797 1.918-2.6.997-.815 2.299-1.39 3.342-1.681 1.048-.3 1.816-.356 1.811-.444 0-.075-.793-.175-1.968.008Z" fill="#FBFBFB"/><path d="M260.163 381.516c1.704-.826 3.749-1.418 5.85-1.617 1.048-.12 2.111-.084 3.139 0 .127.004.254.036.381.052l.565.088.707.103.356.052.086.012c.016 0 .031.008.041.004v-.036l-.005-.135-.046-1.095a5.825 5.825 0 0 1 0-.591c.031-1.558.305-3.003.692-4.21a15.56 15.56 0 0 1 1.236-2.835c.188-.332.356-.579.463-.755.107-.176.173-.264.173-.264l.356-.515a5.92 5.92 0 0 1 .448-.591c.183-.228.381-.491.646-.763.127-.14.259-.284.397-.431.152-.144.31-.292.473-.448.315-.319.712-.615 1.109-.946a16.38 16.38 0 0 1 3.011-1.802c2.351-1.07 5.393-1.729 8.369-1.661a16.65 16.65 0 0 1 4.258.607c.34.072.641.208.956.304.32.095.61.223.895.351.483.16 1.374.727 2.005 1.027.061-.328.137-.643.228-.947.011-.036.021-.076.036-.112.005-.016.015-.036.026-.06l.015-.036.061-.136c.035-.091.086-.179.137-.263a4.18 4.18 0 0 1 .712-.919c.535-.539 1.165-.902 1.71-1.15 1.114-.487 1.887-.511 1.872-.575 0-.02-.194-.028-.545-.004-.351.036-.87.124-1.485.343-.605.224-1.313.575-1.933 1.135a4.43 4.43 0 0 0-.85.974 2.967 2.967 0 0 0-.173.288l-.076.152-.025.051c-.011.012-.011.028-.021.044a2.237 2.237 0 0 0-.117.336c.005.028-.025 0-.046-.008l-.061-.036-.122-.076-.234-.148c-.096-.076-.447-.235-.737-.375a7.319 7.319 0 0 0-.931-.404c-.331-.115-.646-.263-1.002-.351-1.379-.439-2.925-.699-4.508-.767-3.169-.148-6.44.479-9.019 1.59a17.946 17.946 0 0 0-3.322 1.893c-.437.347-.875.667-1.226 1.002-.178.164-.356.324-.519.476l-.442.459c-.29.288-.514.567-.718.807a5.992 5.992 0 0 0-.493.631l-.397.547s-.066.096-.178.288c-.107.187-.285.459-.473.814-.376.711-.86 1.75-1.231 3.032a15.432 15.432 0 0 0-.595 4.445c0 .204 0 .411.02.619l.015.132c.016.032-.025.016-.05.016l-.087-.008-.229-.028c-.137-.016-.28-.044-.417-.048-1.129-.068-2.284-.076-3.413.076-2.259.268-4.406.959-6.156 1.881-1.755.927-3.118 2.061-4.054 3.143a9.141 9.141 0 0 0-1.14 1.658h.473a9.74 9.74 0 0 1 1.13-1.406c.961-1.01 2.324-2.049 4.029-2.88Z" fill="#F2F2F2"/><path d="M13.58 362.277c.906.875 1.496 1.685 1.96 2.228.218.28.355.512.462.663l.163.236.32.443c.23.28.453.723.774 1.259.147.271.356.559.488.894.178.4.371.827.575 1.278.081.184.163.372.25.559.025.04.035.108.07.128l.178-.064.357-.127c.239-.084.473-.176.727-.26.132-.044.27-.084.407-.128a12.705 12.705 0 0 1 1.613-.343 12.218 12.218 0 0 1 3.617.048c1.226.207 2.42.611 3.443 1.206 1.018.595 1.883 1.346 2.493 2.164.31.408.565.831.763 1.255.092.223.178.403.255.655.106.327.162.667.249.954.183-.076.361-.148.539-.219.178-.068.346-.124.514-.18l.127-.044.087-.02.172-.04c.112-.032.23-.048.341-.068a5.988 5.988 0 0 1 1.323-.072c.844.036 1.557.24 2.1.455 1.095.452 1.496.955 1.563.911.02-.012-.056-.14-.26-.359a4.36 4.36 0 0 0-1.124-.787 6.345 6.345 0 0 0-2.228-.619 6.577 6.577 0 0 0-1.48.016c-.133.016-.265.032-.392.06l-.199.04-.101.02-.056.016a3.001 3.001 0 0 0-.412.127c-.031-.104-.036-.235-.072-.347-.04-.196-.137-.451-.218-.679a7.447 7.447 0 0 0-.748-1.386c-.62-.911-1.521-1.761-2.62-2.452-1.099-.691-2.432-1.187-3.8-1.45a13.619 13.619 0 0 0-4.075-.148c-.646.076-1.272.2-1.852.352-.132.039-.264.075-.391.115l-.036.008c-.03.016-.03-.016-.036-.032v-.012l-.025-.06a6.279 6.279 0 0 1-.117-.287 17.522 17.522 0 0 0-.229-.543c-.127-.356-.34-.659-.483-.951-.32-.571-.55-1.042-.778-1.342a41.42 41.42 0 0 1-.32-.471s-.062-.084-.179-.248c-.122-.159-.275-.399-.509-.687-.498-.563-1.15-1.402-2.126-2.3-1.882-1.817-4.812-4.018-8.302-5.564-.438-.192-.87-.383-1.308-.571-.427-.196-.895-.336-1.337-.503-.448-.156-.88-.336-1.333-.464l-1.338-.387c-.219-.064-.438-.124-.651-.184l-.657-.143-.478-.104v.595c2.137.571 4.436 1.39 6.557 2.444 3.302 1.57 6.039 3.746 7.784 5.516Z" fill="#F5F5F5"/><path d="m170.549 322.051-.794 3.534a4.45 4.45 0 0 1-3.144 3.312 26.723 26.723 0 0 1-14.367.014 4.45 4.45 0 0 1-3.151-3.306l-.801-3.532" fill="#C6115D"/><path d="m150.433 322.235.793 3.498a4.92 4.92 0 0 0 3.484 3.655c.673.187 1.352.349 2.035.488a26.599 26.599 0 0 1-4.093-.801 4.434 4.434 0 0 1-2.032-1.219 4.442 4.442 0 0 1-1.119-2.087l-.8-3.532 1.732-.002Z" fill="#fff" opacity=".6"/><path d="M159.997 329.542c1.62-.146 3.23-.44 4.81-.882a4.45 4.45 0 0 0 3.143-3.312l.74-3.296-20.399.02.171.754 15.122-.015-.793 3.535a4.451 4.451 0 0 1-2.794 3.196Zm1.73-6.729-13.265.014-.054-.238 13.373-.014-.054.238Z" fill="#2D2D2D" opacity=".35"/><path d="M146.406 311.862c-4.073.395-10.896 4.559-8.089 19.141a.215.215 0 0 0 .393.072c1.111-1.805 6.264-10.325 11.672-10.126" fill="#DF2A76"/><path d="M139.617 329.243c-.509.766-.889 1.391-1.11 1.749a.215.215 0 0 1-.393-.072c-2.807-14.583 4.016-18.746 8.089-19.14l.43.984c-3.77 1.099-8.477 5.321-7.016 16.479Z" fill="#fff" opacity=".6"/><path d="M151.158 321.254a.838.838 0 0 1-.809.529c-1.807-.067-5.624 1.098-10.877 9.643l-.052.085a1.042 1.042 0 0 1-1.083.482 1.042 1.042 0 0 1-.842-.834c-1.365-7.089-.677-12.53 2.045-16.17 2.402-3.213 5.544-3.84 6.783-3.96a.836.836 0 0 1 .161 1.663c-1.018.099-3.603.618-5.606 3.297-2.198 2.94-2.886 7.508-2.015 13.276 5.028-7.689 9.029-9.245 11.547-9.152a.835.835 0 0 1 .748 1.141Z" fill="#2D2D2D"/><path d="M171.987 311.837c4.074.387 11.133 4.536 8.354 19.124a.215.215 0 0 1-.393.073c-1.114-1.803-6.527-10.312-11.934-10.102" fill="#FF81B6"/><path d="M180.343 330.961a.215.215 0 0 1-.393.073c-.572-.923-2.27-3.606-4.518-5.975-2.124-2.24-4.741-4.199-7.359-4.128a1.124 1.124 0 0 1-.058.002l.024-.055 3.948-9.04c1.144.109 2.523.513 3.853 1.364 3.41 2.173 6.501 7.265 4.503 17.759Z" fill="#DF2A76"/><path d="M175.432 325.058c-2.123-2.24-4.74-4.199-7.358-4.127l-.034-.054 3.948-9.04c1.144.109 2.523.514 3.853 1.364.995 2.92 1.146 6.812-.409 11.857Z" fill="#2D2D2D" opacity=".35"/><path d="M181.106 331.308a1.042 1.042 0 0 1-.785.644 1.044 1.044 0 0 1-1.084-.48c-1.436-2.323-6.487-9.889-11.191-9.707a.835.835 0 1 1-.064-1.669c4.786-.186 9.398 5.553 11.804 9.142.844-5.694.133-10.227-2.08-13.174-2.135-2.844-4.978-3.319-5.799-3.397a.834.834 0 1 1 .158-1.663c1.273.12 4.5.758 6.977 4.057 2.74 3.65 3.453 9.052 2.119 16.055a1.01 1.01 0 0 1-.055.192Z" fill="#2D2D2D"/><path d="M159.255 243.467s18.205 10.695 20.291 40.552c1.776 25.436-9.087 38.259-9.087 38.259a32.069 32.069 0 0 1-22.257.021s-4.861-5.713-7.57-17.092a57.418 57.418 0 0 1-.272-1.196c-.955-4.403-1.578-9.598-1.497-15.582.018-1.411.077-2.867.179-4.367.003-.06.008-.118.013-.176.422-6.047 1.51-11.305 2.971-15.845.046-.146.093-.288.14-.431 5.778-17.47 17.089-24.143 17.089-24.143Z" fill="#fff"/><path d="M175.509 264.674a77.259 77.259 0 0 0-32.291.032c5.977-15.477 16.126-21.464 16.126-21.464s10.158 5.967 16.165 21.432Z" fill="#DF2A76"/><path d="M160.424 244.036c-.807-.595-1.283-.876-1.283-.876s-10.149 5.988-16.126 21.464a76.919 76.919 0 0 1 2.065-.413c5.334-13.014 13.541-18.983 15.344-20.175Z" fill="#fff" opacity=".6"/><path d="m176.848 265.814-1.512-.321a75.947 75.947 0 0 0-31.943.031l-1.511.325.557-1.442c4.735-12.269 12.102-18.702 15.049-20.9a3.09 3.09 0 0 1 3.713-.003c2.951 2.192 10.327 8.614 15.088 20.869l.559 1.441Zm-32.275-2.236a77.5 77.5 0 0 1 29.579-.03c-4.599-10.92-11.23-16.684-13.948-18.703a1.431 1.431 0 0 0-1.718.001c-2.714 2.025-9.335 7.803-13.913 18.732Z" fill="#2D2D2D"/><path d="M176.477 312.907c-2.5 6.347-5.182 9.55-5.295 9.684l-.141.167-.205.077a32.8 32.8 0 0 1-11.417 2.058A32.735 32.735 0 0 1 148 322.857l-.206-.076-.141-.167c-.115-.134-2.841-3.38-5.369-9.816-2.318-5.9-4.891-15.725-3.989-29.019.474-6.97 1.867-13.489 4.14-19.374l.163-.421.441-.095a77.622 77.622 0 0 1 32.564-.049l.48.011.204.52c2.286 5.881 3.692 12.397 4.178 19.366.929 13.293-1.626 23.122-3.933 29.027l-.055.143Zm-6.439 8.441c.567-.727 2.869-3.848 4.971-9.275 2.228-5.733 4.693-15.282 3.79-28.219-.464-6.635-1.778-12.842-3.907-18.456a75.915 75.915 0 0 0-31.059.031c-2.118 5.618-3.42 11.827-3.871 18.463-1.581 23.295 7.616 35.918 8.833 37.476a31.057 31.057 0 0 0 10.622 1.854 31.095 31.095 0 0 0 10.621-1.874Z" fill="#2D2D2D"/><path d="M170.331 326.55a5.28 5.28 0 0 1-3.494 3.151 27.577 27.577 0 0 1-14.816.015 5.28 5.28 0 0 1-3.741-3.927l-.801-3.532a.835.835 0 1 1 1.63-.369l.8 3.532a3.613 3.613 0 0 0 2.56 2.686 25.898 25.898 0 0 0 13.918-.013 3.616 3.616 0 0 0 2.555-2.692l.793-3.533a.835.835 0 0 1 1.63.366l-.793 3.533a5.422 5.422 0 0 1-.241.783Z" fill="#2D2D2D"/><path d="M171.142 275.567c-2.53-5.82-9.3-8.487-15.12-5.956-5.82 2.53-8.486 9.3-5.956 15.12 2.531 5.82 9.3 8.486 15.12 5.956 5.82-2.531 8.487-9.301 5.956-15.12Z" fill="#2D2D2D" opacity=".35"/><path d="M168.992 283.179c2.092-5.31-.517-11.31-5.827-13.402-5.31-2.091-11.31.518-13.401 5.827-2.092 5.31.517 11.31 5.827 13.402 5.31 2.092 11.31-.517 13.401-5.827Z" fill="#DF2A76"/><path d="M161.561 269.328a9.782 9.782 0 0 0-.707-.025c-5.707.004-10.328 4.637-10.323 10.343.004 5.031 3.603 9.218 8.365 10.136-5.384-.352-9.643-4.827-9.649-10.3-.005-5.708 4.617-10.338 10.325-10.345.68.001 1.345.066 1.989.191Z" fill="#fff" opacity=".6"/><path d="M169.712 279.381c.005 5.706-4.615 10.338-10.322 10.344a10.282 10.282 0 0 1-4.955-1.26c.745.169 1.518.259 2.315.259 5.707-.006 10.33-4.637 10.324-10.344a10.327 10.327 0 0 0-5.393-9.064c4.595 1.044 8.026 5.153 8.031 10.065Z" fill="#2D2D2D" opacity=".35"/><path d="M169.776 283.49a11.16 11.16 0 0 1-2.491 3.792 11.093 11.093 0 0 1-7.894 3.279 11.098 11.098 0 0 1-7.901-3.264 11.094 11.094 0 0 1-3.279-7.895 11.099 11.099 0 0 1 3.263-7.901 11.096 11.096 0 0 1 7.895-3.278 11.099 11.099 0 0 1 7.901 3.263 11.093 11.093 0 0 1 3.278 7.895 11.14 11.14 0 0 1-.772 4.109Zm-19.237-7.583a9.465 9.465 0 0 0-.657 3.494 9.435 9.435 0 0 0 2.788 6.714 9.44 9.44 0 0 0 6.719 2.775 9.44 9.44 0 0 0 6.714-2.789 9.435 9.435 0 0 0 2.775-6.719 9.44 9.44 0 0 0-2.788-6.713 9.437 9.437 0 0 0-6.72-2.776 9.436 9.436 0 0 0-6.713 2.789 9.476 9.476 0 0 0-2.118 3.225Z" fill="#2D2D2D"/><path d="M165.284 276.647a6.574 6.574 0 1 0-12.057 5.244 6.574 6.574 0 0 0 12.057-5.244Z" fill="#FF81B6"/><path d="M165.83 279.262a6.572 6.572 0 0 1-6.568 6.58 6.476 6.476 0 0 1-2.24-.39 6.575 6.575 0 0 0 2.449-12.753 6.573 6.573 0 0 1 6.359 6.563Z" fill="#fff" opacity=".3"/><path d="M162.005 273.21c-.113-.004-.225-.008-.34-.008a6.574 6.574 0 0 0-2.521 12.643 6.574 6.574 0 1 1 2.861-12.635Z" fill="#2D2D2D" opacity=".35"/><path d="M166.153 281.987a7.405 7.405 0 0 1-1.652 2.516 7.365 7.365 0 0 1-5.238 2.175c-4.085.004-7.412-3.316-7.416-7.402-.005-4.085 3.316-7.412 7.402-7.416 4.086-.004 7.413 3.316 7.417 7.402a7.405 7.405 0 0 1-.513 2.725Zm-12.239-4.816a5.745 5.745 0 0 0 5.348 7.836 5.7 5.7 0 0 0 4.056-1.685 5.701 5.701 0 0 0 1.677-4.059 5.745 5.745 0 0 0-5.744-5.733 5.749 5.749 0 0 0-5.337 3.641Z" fill="#2D2D2D"/><path d="M154.002 254.141c-1.479-.528-3.818 2.055-4.481 3.776-.686 1.784-.801 2.974.056 3.321 1.198.484 2.167-.734 2.877-2.355.503-1.147 3.373-4.089 1.548-4.742ZM157.605 250.412c-1.303-.404-3.085.662-3.509 1.457-.438.824-.439 1.406.32 1.66 1.06.354 1.786-.161 2.259-.902.334-.523 2.538-1.718.93-2.215Z" fill="#fff" opacity=".2"/><path d="M168.949 321.897s10.862-12.822 9.087-38.256c-1.805-25.83-15.671-37.317-19.38-39.946a24.436 24.436 0 0 0-1.314.978c5.546 5.595 13.573 16.876 14.917 36.105.839 12.009-1.14 21.207-3.463 27.571-2.967 8.127-10.981 13.328-19.599 12.566l-.143-.013c-.341-.031-.682-.07-1.023-.113-.145-.01-.288-.016-.433-.029l-.142-.013-.153-.017a1.678 1.678 0 0 1-.03-.044c.625.924 1.019 1.389 1.019 1.389a31.98 31.98 0 0 0 7.168 1.74c4.548.332 9.15-.305 13.489-1.918Z" fill="#2D2D2D" opacity=".35"/><path d="M163.258 320.865c.004 5.094-4.023 10.114-4.023 10.114s-.016-.019-.042-.055c-.433-.554-3.996-5.266-4.003-10.049-.005-4.591 3.31-8.282 3.928-8.929l.098-.1s4.04 3.96 4.042 9.019Z" fill="#DF2A76"/><path d="M159.503 311.724s.246.241.616.679c-1.091 1.273-3.507 4.535-3.502 8.455.005 3.847 2.31 7.647 3.436 9.276-.322.463-.531.724-.531.724l-.042-.056c-.433-.554-3.995-5.266-4.002-10.05-.006-4.59 3.309-8.28 3.927-8.927l.098-.101Z" fill="#fff" opacity=".6"/><path d="M163.259 320.867c.004 5.094-4.023 10.113-4.023 10.113l-.042-.054-.075-18.978c.063-.067.098-.101.098-.101s4.04 3.961 4.042 9.02Z" fill="#2D2D2D" opacity=".35"/><path d="M163.017 326.015c-1.208 3.068-3.015 5.346-3.129 5.489l-.65.81-.652-.809c-.172-.214-4.222-5.303-4.229-10.628-.006-5.349 4.1-9.452 4.275-9.624l.585-.576.586.575c.175.172 4.29 4.266 4.293 9.616.001 1.801-.461 3.578-1.079 5.147Zm-3.783 3.541c1.096-1.618 3.193-5.175 3.191-8.688-.003-3.515-2.141-6.502-3.205-7.771-1.061 1.274-3.197 4.275-3.192 7.778.004 3.521 2.107 7.067 3.206 8.681Z" fill="#2D2D2D"/><path d="M132.629 277.783s5.304-5.436 7.431-5.874c2.128-.437.574 3.628.574 3.628" fill="#fff"/><path d="M141.21 275.766a.622.622 0 0 1-.41.371l-8.005 2.247a.623.623 0 0 1-.613-1.033c.556-.57 5.501-5.586 7.751-6.048.789-.163 1.238.136 1.475.414.864 1.017.069 3.352-.196 4.044a.01.01 0 0 1-.002.005Zm-6.408.763 5.354-1.502c.375-1.103.522-2.249.304-2.505-.021-.024-.125-.033-.277-.002-1.065.219-3.426 2.179-5.381 4.009Z" fill="#2D2D2D"/><path d="M107.504 299.477c.9 3.278 9.017 9.154 14.632 10.689 5.614 1.534 9.766-7.823 11.735-13.334 1.969-5.511-10.343-10.339-13.668-11.566-5.19-1.916-14.032 9.354-12.699 14.211Z" fill="#fff"/><path d="M133.869 296.831c-1.969 5.511-6.121 14.868-11.735 13.334a19.01 19.01 0 0 1-2.312-.811c1.773-1.037 1.547-3.545.201-4.367-8.304-5.072-10.419-9.742-10.957-11.81 2.614-4.626 7.682-9.187 11.135-7.911 3.325 1.226 15.637 6.055 13.668 11.565Z" fill="#2D2D2D" opacity=".25"/><path d="M133.732 298.969c-2.59 6.576-6.563 13.217-11.761 11.797-5.432-1.485-14.036-7.367-15.067-11.124-.915-3.331 2.342-8.902 5.885-12.153 2.817-2.586 5.526-3.582 7.629-2.806 6.088 2.248 16.008 6.842 14.037 12.359a61.25 61.25 0 0 1-.723 1.927Zm-25.09-3.503c-.589 1.497-.81 2.86-.539 3.847.83 3.026 8.791 8.776 14.196 10.253 5.042 1.378 9.047-7.518 10.986-12.943 1.717-4.808-9.744-9.462-13.298-10.774-1.62-.597-3.937.334-6.357 2.555-2.249 2.064-4.067 4.726-4.988 7.062Z" fill="#2D2D2D"/><path d="m116.745 302.499-1.914 2.036a1.05 1.05 0 0 0 .145 1.568c1.757 1.278 5.506 3.658 7.113 2.016 1.946-1.991-.474-3.921-4.091-5.831a1.05 1.05 0 0 0-1.253.211Z" fill="#fff"/><path d="M117.987 302.292c3.622 1.901 6.047 3.826 4.104 5.82-.797.82-2.128.644-3.48.102.466-.046.879-.213 1.203-.547 1.738-1.786-.023-3.517-3.013-5.223a1.039 1.039 0 0 1 1.186-.152Z" fill="#2D2D2D" opacity=".25"/><path d="M123.198 307.485c-.139.354-.37.698-.693 1.029-1.774 1.823-5.257-.046-7.866-1.935a1.626 1.626 0 0 1-.231-2.425l1.91-2.04a1.626 1.626 0 0 1 1.938-.331c3.328 1.747 4.844 3.102 5.072 4.532.063.4.02.791-.13 1.17Zm-8.048-2.394a.481.481 0 0 0 .163.558c2.375 1.719 5.296 3.165 6.368 2.064.408-.419.575-.817.511-1.218-.233-1.47-3.422-3.144-4.47-3.694a.474.474 0 0 0-.566.098l-1.909 2.04a.491.491 0 0 0-.097.152ZM107.373 299.836l2.435-2.328c.818-.772 1.63-1.543 2.479-2.295a.311.311 0 0 1 .434.444l-.003.005c-.759.808-1.498 1.653-2.238 2.492l-2.203 2.536-.004.004a.622.622 0 1 1-.9-.858Z" fill="#2D2D2D"/><path d="M122.855 255.429c2.831 2.199 5.952 11.661 2.221 22.002a29.248 29.248 0 0 1-1.28 3.019l-4.256-.622-3.406-.499s.336-1.701.614-4.099c.222-1.893.407-4.221.364-6.487-.04-2.137-.282-4.222-.892-5.835 0 0-3.181-1.328-3.149-2.366.038-1.268 2.618-1.202 2.618-1.202s-1.604-3.548-.772-4.922c1.235-2.044 4.833-1.403 7.938 1.011Z" fill="#fff"/><path d="M120.42 253.939c.812.37 1.64.873 2.436 1.491 3.105 2.412 6.559 13.559.941 25.021l-7.662-1.121s.105-.528.245-1.41l4.475-.455c6.797-8.617 2.544-20.497-.435-23.526Z" fill="#2D2D2D" opacity=".35"/><path d="M125.349 278.469a30.65 30.65 0 0 1-.995 2.255.622.622 0 0 1-1.116-.547c5.539-11.305 1.974-22.127-.767-24.257-1.956-1.521-4.183-2.325-5.674-2.048-.616.114-1.07.406-1.35.868-.456.753.198 2.995.807 4.345l.408.903-.99-.026c-.793-.018-1.95.201-1.981.589.092.368 1.404 1.215 2.767 1.785l.247.103.095.251c2.108 5.589.032 16.307-.057 16.76a.622.622 0 0 1-1.22-.24c.021-.106 2.034-10.497.202-15.835-1.168-.513-3.314-1.623-3.277-2.851.036-1.246 1.375-1.635 2.332-1.755-.475-1.256-1.126-3.465-.396-4.672.464-.768 1.221-1.269 2.187-1.448 1.852-.343 4.405.534 6.663 2.289 3.163 2.458 6.394 12.667 2.115 23.531Z" fill="#2D2D2D"/><path d="M141.88 275.186s-.103 16.497-2.478 21.363c-2.374 4.866-5.3 9.962-14.944 6.505-5.994-2.149-10.668-7.374-13.343-11.02-1.631-2.221-2.522-3.856-2.522-3.856l6.151-13.545s.75.234 2.002.599c.783.228 1.76.506 2.874.809 1.598.436 3.475.925 5.455 1.391 3.032.713 6.304 1.372 9.174 1.709 1.241.147 3.408-4.451 7.631-3.955Z" fill="#fff"/><path d="M121.097 276.224c1.89.147 3.711.522 5.532.893 1.821.367 3.634.767 5.457 1.079.456.076.913.146 1.37.213l.686.092.171.022.011.001-.002-.001-.004-.002h-.008l-.007.003.004-.003c.004-.002.005 0 .011-.001.01-.005.02-.01.03-.013.017-.002.055-.029.083-.041.13-.074.294-.207.454-.348.161-.142.324-.299.49-.46.332-.321.674-.656 1.037-.979.722-.645 1.535-1.255 2.487-1.659a6.118 6.118 0 0 1 1.495-.428 5.994 5.994 0 0 1 1.56-.024l.556.063-.006.558c-.03 2.618-.127 5.22-.282 7.828-.159 2.606-.377 5.211-.753 7.813-.192 1.301-.416 2.6-.765 3.896-.174.648-.374 1.295-.672 1.939-.071.168-.144.306-.216.455l-.219.441c-.148.293-.298.587-.455.879-.626 1.167-1.332 2.325-2.249 3.354a9.751 9.751 0 0 1-1.536 1.4 8.309 8.309 0 0 1-1.844 1.012 8.725 8.725 0 0 1-2.03.512 10.56 10.56 0 0 1-2.062.069l-.256-.012-.254-.026-.507-.054-.501-.078-.251-.04-.247-.05-.495-.102c-.164-.037-.326-.081-.489-.121a16.394 16.394 0 0 1-.966-.269 21.243 21.243 0 0 1-3.717-1.501 24.966 24.966 0 0 1-3.379-2.131c-2.135-1.588-4.024-3.46-5.739-5.463-.857-1.001-1.719-2.004-2.455-3.099-.734-1.095-1.394-2.247-1.751-3.562a.213.213 0 0 1 .358-.204l.006.006c.92.949 1.694 1.971 2.458 2.999.775 1.02 1.501 2.078 2.334 3.053 1.659 1.949 3.492 3.755 5.532 5.273a23.659 23.659 0 0 0 3.21 2.025 19.996 19.996 0 0 0 3.503 1.415c.303.091.605.182.911.253.153.038.305.08.458.114l.46.094.23.047.231.036.462.072.462.049.232.024.23.011a9.213 9.213 0 0 0 1.829-.06 7.479 7.479 0 0 0 1.742-.438c1.114-.433 2.093-1.167 2.905-2.082.816-.915 1.479-1.99 2.079-3.111.151-.28.297-.566.441-.852l.215-.432c.07-.144.148-.293.202-.426.058-.139.126-.267.176-.413l.158-.431c.092-.297.189-.591.266-.898.329-1.215.548-2.482.736-3.752.367-2.545.584-5.125.742-7.708.153-2.583.249-5.179.279-7.76l.549.621a4.715 4.715 0 0 0-2.423.36c-.773.327-1.48.847-2.148 1.444-.335.298-.661.617-1 .945-.169.164-.342.331-.531.498-.191.166-.386.336-.661.496-.077.039-.137.079-.232.113l-.133.049a1.272 1.272 0 0 1-.514.05l-.176-.022-.704-.085a64.755 64.755 0 0 1-1.402-.199 76.315 76.315 0 0 1-2.786-.466 55.753 55.753 0 0 1-2.755-.594c-1.825-.443-3.631-.965-5.354-1.768a.209.209 0 0 1-.101-.279.208.208 0 0 1 .207-.122Z" fill="#2D2D2D"/><path d="M148.887 293.503c.833-.198 7.38-1.253 8.492 2.109.975 2.945-.94 6.916-4.694 7.927-2.483.668-4.811.084-6.474-.664-1.942-.875-3.691-1.973-5.562-1.57-1 .215-2.046.805-3.22 1.491a45.294 45.294 0 0 1-.202-.889c-.711-3.277-1.174-7.142-1.114-11.594.663-.613 1.416-1.153 2.258-1.525 3.327-1.462 8.133.355 9.429 2.747.51.943 1.087 1.968 1.087 1.968Z" fill="#2D2D2D" opacity=".25"/><path d="M148.011 291.488c.833-.198 7.38-1.254 8.493 2.109.974 2.944-.94 6.915-4.694 7.927-2.483.667-4.812.084-6.475-.665-1.942-.875-3.69-1.973-5.562-1.569-2.131.458-4.488 4.593-7.847 5.789-1.979.706-4.923.341-8.152-1.066a24.826 24.826 0 0 1-3.003-1.572c-4.311-2.634-8.744-6.996-11.817-13.023 0 0 7.281.954 13.854 1.537 4.581.407 8.82.634 10.002.232.158-.053.26-.118.303-.194a11.17 11.17 0 0 1 1.965-2.546c.7-.674 1.507-1.273 2.417-1.674 3.327-1.462 8.133.354 9.429 2.747.511.942 1.087 1.968 1.087 1.968Z" fill="#fff"/><path d="M155.612 292.31c.405.332.716.751.892 1.285.975 2.944-.94 6.915-4.694 7.927-2.481.668-4.812.084-6.475-.665-1.941-.875-3.691-1.971-5.56-1.569-2.131.459-4.49 4.593-7.848 5.791-1.977.704-4.925.338-8.152-1.068-.015-.006-.03-.014-.045-.019a29.965 29.965 0 0 1-.763-.353 22.8 22.8 0 0 1-.715-.36c-.113-.059-.228-.121-.343-.183-.08-.043-.161-.089-.242-.134-.067-.036-.134-.075-.201-.113-.105-.059-.21-.121-.315-.182l-.36-.215a.226.226 0 0 0-.02-.013c-.094-.186-.139-.309-.139-.309s.37-.358.979-1.196c.969-1.331 2.543-3.869 4.201-8.094l-2.217-.797a1.19 1.19 0 0 1-.744-1.435l.753-2.735 10.68-.176-1.474 3.489-1.108 2.623a1.192 1.192 0 0 1-1.48.615l-1.113-.4c-.394 2.522-1.769 6.411-3.566 8.572 2.36.715 4.46.806 5.983.263 3.359-1.195 3.304-4.993 6.755-6.189 2.159-.747 4.712 1.094 6.654 1.969 1.663.749 3.89 2.383 6.37 1.717 3.281-.884 4.66-5.044 4.307-8.046Z" fill="#2D2D2D" opacity=".25"/><path d="M117.112 268.746a16.54 16.54 0 0 1 2.509 7.296 16.36 16.36 0 0 1-.081 3.788 16.549 16.549 0 0 1-1.038 3.9 16.383 16.383 0 0 1-3.96 5.822c-1.671 1.577-1.716 4.233-.115 5.882 2.303 2.373 4.786 4.211 7.185 5.502-.609.838-.979 1.197-.979 1.197s.045.123.139.308c-4.311-2.633-8.744-6.995-11.817-13.022l.461.131c-.538-.852-.821-1.371-.821-1.371l6.15-13.544s.75.233 2.003.598c.221-1.894.406-4.221.364-6.487Z" fill="#2D2D2D" opacity=".25"/><path d="M133.069 290.655a7.947 7.947 0 0 1 1.212-2.102 8.484 8.484 0 0 1 1.789-1.706 8.012 8.012 0 0 1 1.098-.64 6.712 6.712 0 0 1 1.225-.427c.838-.203 1.696-.236 2.53-.164a10.11 10.11 0 0 1 2.435.543c.785.273 1.54.638 2.237 1.115.693.478 1.353 1.059 1.82 1.856l1.136 2.053-.686-.3c.217-.049.402-.08.597-.112a18.488 18.488 0 0 1 1.729-.186c.771-.047 1.55-.044 2.334.03.783.08 1.578.226 2.353.552.386.164.768.37 1.113.654.345.281.649.637.866 1.042l.081.152c.024.051.043.105.065.158.04.104.092.215.113.314.052.204.115.406.154.612.029.207.064.414.085.621l.02.623a6.923 6.923 0 0 1-.506 2.395 7.605 7.605 0 0 1-1.258 2.08 7.134 7.134 0 0 1-1.871 1.557c-.176.103-.351.21-.54.286-.187.081-.37.175-.562.243l-.581.191c-.194.061-.389.097-.584.146a9.609 9.609 0 0 1-2.385.183 10.601 10.601 0 0 1-2.34-.392 11.135 11.135 0 0 1-1.119-.376c-.184-.071-.364-.15-.544-.228l-.518-.239c-.684-.322-1.343-.652-2-.913-.656-.257-1.314-.448-1.947-.447a1.438 1.438 0 0 0-.237.006c-.077.008-.157.006-.234.021l-.231.038c-.069.019-.128.03-.196.055a3.362 3.362 0 0 0-.819.45c-.549.397-1.078.904-1.609 1.417-1.063 1.03-2.143 2.133-3.475 3-.669.429-1.396.799-2.211 1.007-.803.206-1.614.25-2.404.213a13.695 13.695 0 0 1-2.324-.328 19.713 19.713 0 0 1-2.219-.669 25.016 25.016 0 0 1-4.124-2.013c-2.608-1.589-4.95-3.579-6.988-5.835-1.007-1.136-2.009-2.287-2.854-3.554-.835-1.27-1.564-2.623-1.927-4.126a.212.212 0 0 1 .157-.257c.08-.019.16.009.211.067l.001.002c.999 1.153 1.798 2.371 2.652 3.562.843 1.194 1.691 2.393 2.683 3.473 1.962 2.172 4.217 4.086 6.71 5.604a23.612 23.612 0 0 0 3.911 1.91c.678.249 1.368.458 2.065.624.697.155 1.402.264 2.102.298.698.033 1.395-.01 2.04-.175.635-.161 1.259-.471 1.844-.847 1.177-.764 2.21-1.804 3.285-2.849.542-.522 1.09-1.056 1.751-1.535.332-.237.7-.461 1.141-.615.107-.04.231-.069.342-.096l.321-.053c.107-.019.215-.02.323-.03a5.223 5.223 0 0 1 1.571.154c.398.099.782.225 1.145.372.731.29 1.406.631 2.073.943l.499.23c.162.071.323.142.488.205.329.128.663.244 1.002.337a9.349 9.349 0 0 0 2.065.347c1.384.059 2.809-.187 3.964-.881a5.898 5.898 0 0 0 1.553-1.293 6.36 6.36 0 0 0 1.047-1.732c.252-.628.4-1.296.417-1.961l-.015-.496c-.018-.164-.046-.325-.067-.488-.031-.16-.082-.315-.12-.473-.016-.084-.051-.141-.075-.212-.014-.033-.025-.068-.041-.1l-.051-.094c-.267-.507-.762-.891-1.369-1.14-.602-.256-1.291-.39-1.989-.46-.702-.066-1.42-.07-2.139-.026a16.828 16.828 0 0 0-1.608.172c-.173.028-.356.06-.504.094l-.461.105-.225-.405-1.129-2.042c-.323-.555-.85-1.048-1.442-1.444-1.194-.794-2.647-1.26-4.082-1.366a7.39 7.39 0 0 0-2.121.138 5.73 5.73 0 0 0-.99.314 6.618 6.618 0 0 0-.947.494c-.611.38-1.197.836-1.749 1.339a20.214 20.214 0 0 0-1.582 1.641l-.001.001a.21.21 0 0 1-.355-.212Z" fill="#2D2D2D"/><path d="M141.993 299.48a.467.467 0 0 1-.545.282c-5.257-1.291-6.453-5.177-6.722-6.787-.448-2.67.456-5.319 2.197-6.442a.465.465 0 0 1 .644.139.465.465 0 0 1-.139.644c-1.415.913-2.164 3.228-1.783 5.505.239 1.429 1.306 4.877 6.025 6.036a.467.467 0 0 1 .323.623ZM148.254 290.663c.034.083.053.138.075.206.023.064.04.129.059.193a5.803 5.803 0 0 1 .188 1.177 5.2 5.2 0 0 1-.163 1.595c-.142.52-.368 1.031-.72 1.443a2.741 2.741 0 0 1-1.288.875c.27-.442.5-.84.643-1.263.079-.206.137-.415.185-.624.05-.209.087-.419.101-.634.038-.427.024-.86-.028-1.292-.021-.217-.059-.432-.095-.647l-.064-.32-.066-.297-.01-.045a.62.62 0 0 1 1.183-.367Z" fill="#2D2D2D"/><path d="M111.297 263.318a.336.336 0 0 1-.422.217l-9.193-2.959a.335.335 0 0 1-.216-.422 3.516 3.516 0 0 1 4.425-2.27l3.135 1.008a3.518 3.518 0 0 1 2.271 4.426Z" fill="#fff"/><path d="M111.352 263.363a.403.403 0 0 1-.497.235l-9.193-2.959a.402.402 0 0 1-.259-.506 3.588 3.588 0 0 1 4.509-2.314l3.135 1.009a3.564 3.564 0 0 1 2.091 1.776 3.557 3.557 0 0 1 .214 2.759Zm-9.747-3.401c-.027.07-.052.14-.075.212a.266.266 0 0 0 .173.338l9.193 2.959a.268.268 0 0 0 .338-.173 3.427 3.427 0 0 0-.215-2.632 3.423 3.423 0 0 0-2.013-1.71l-3.134-1.009a3.43 3.43 0 0 0-2.633.214 3.428 3.428 0 0 0-1.634 1.801Z" fill="#2D2D2D"/><path d="m107.554 258.418 1.471.473a3.52 3.52 0 0 1 2.271 4.427.337.337 0 0 1-.423.216l-2.444-.786c.127-.014.24-.1.283-.23l.069-.218a3.514 3.514 0 0 0-1.227-3.882Z" fill="#2D2D2D" opacity=".35"/><path d="M111.869 263.568a.959.959 0 0 1-1.183.56l-9.193-2.959a.958.958 0 0 1-.617-1.204 4.104 4.104 0 0 1 2.05-2.415 4.11 4.11 0 0 1 3.158-.257l3.134 1.009a4.11 4.11 0 0 1 2.415 2.05 4.11 4.11 0 0 1 .236 3.216Zm-9.71-3.491 8.622 2.775a2.9 2.9 0 0 0-1.944-3.367l-3.135-1.009a2.877 2.877 0 0 0-2.209.18 2.88 2.88 0 0 0-1.334 1.421Z" fill="#2D2D2D"/><path d="M91.698 290.498a.335.335 0 0 1 .422-.216l9.193 2.958a.335.335 0 0 1 .216.422 3.518 3.518 0 0 1-4.426 2.271l-3.134-1.009a3.518 3.518 0 0 1-2.271-4.426Z" fill="#fff"/><path d="M101.514 293.903a3.556 3.556 0 0 1-1.697 1.87 3.558 3.558 0 0 1-2.734.223l-3.135-1.009a3.557 3.557 0 0 1-2.09-1.775 3.561 3.561 0 0 1-.223-2.734.403.403 0 0 1 .505-.26l9.193 2.959a.398.398 0 0 1 .235.2.397.397 0 0 1 .025.306 5.205 5.205 0 0 1-.079.22Zm-9.753-3.385a3.426 3.426 0 0 0 .215 2.632 3.431 3.431 0 0 0 2.013 1.71l3.134 1.009a3.433 3.433 0 0 0 2.633-.214 3.428 3.428 0 0 0 1.71-2.014.27.27 0 0 0-.174-.338l-9.193-2.959a.27.27 0 0 0-.338.174Z" fill="#2D2D2D"/><path d="m98.764 292.419 2.551.821a.337.337 0 0 1 .216.423 3.51 3.51 0 0 1-1.865 2.111 3.504 3.504 0 0 1-2.56.159l-1.32-.425a3.52 3.52 0 0 0 2.948-2.418l.107-.335a.34.34 0 0 0-.077-.336Z" fill="#2D2D2D" opacity=".35"/><path d="M102.033 294.104a4.145 4.145 0 0 1-5.119 2.42l-3.134-1.009a4.11 4.11 0 0 1-2.415-2.05 4.113 4.113 0 0 1-.257-3.158.956.956 0 0 1 1.203-.617l9.193 2.959a.955.955 0 0 1 .618 1.204 4.138 4.138 0 0 1-.089.251Zm-9.816-3.139a2.9 2.9 0 0 0 1.943 3.367l3.135 1.009c.736.237 1.52.173 2.209-.18a2.876 2.876 0 0 0 1.334-1.421l-8.621-2.775Z" fill="#2D2D2D"/><path d="M116.589 270.345c-3.625-8.335-13.319-12.154-21.655-8.53-8.335 3.624-12.154 13.319-8.53 21.654 3.625 8.336 13.32 12.155 21.655 8.53 8.335-3.624 12.154-13.319 8.53-21.654Z" fill="#fff"/><path d="m116.871 282.96-.044.111c-3.4 8.453-13.043 12.565-21.496 9.165-8.416-3.385-12.528-12.959-9.21-21.385l.045-.111a16.415 16.415 0 0 1 8.85-9.035 16.415 16.415 0 0 1 12.646-.13c8.415 3.385 12.528 12.959 9.209 21.385Zm-30.626-12.059a16.281 16.281 0 0 0 .174 12.432 16.283 16.283 0 0 0 8.961 8.779 16.281 16.281 0 0 0 12.544-.129 16.283 16.283 0 0 0 8.779-8.962 16.295 16.295 0 0 0-.129-12.544 16.282 16.282 0 0 0-8.962-8.778 16.28 16.28 0 0 0-12.544.129 16.281 16.281 0 0 0-8.778 8.961l-.045.112Z" fill="#2D2D2D"/><path d="M105.468 260.934c.73.181 1.455.415 2.173.704 8.432 3.392 12.519 12.977 9.128 21.41-3.393 8.432-12.978 12.518-21.41 9.127-.243-.097-.483-.2-.718-.308 7.847 1.96 16.134-2.116 19.238-9.831 3.293-8.19-.467-17.466-8.411-21.102Z" fill="#2D2D2D" opacity=".35"/><path d="m117.393 283.162-.046.117a16.97 16.97 0 0 1-9.148 9.338 16.963 16.963 0 0 1-13.07.134 16.967 16.967 0 0 1-9.338-9.147 16.965 16.965 0 0 1-.135-13.071 16.967 16.967 0 0 1 9.147-9.337 16.968 16.968 0 0 1 13.071-.135 16.966 16.966 0 0 1 9.338 9.147 16.967 16.967 0 0 1 .181 12.954Zm-30.627-12.057a15.731 15.731 0 0 0 .168 12.012 15.73 15.73 0 0 0 8.658 8.481 15.732 15.732 0 0 0 12.119-.125 15.736 15.736 0 0 0 8.482-8.658c1.575-3.931 1.534-8.228-.125-12.119a15.732 15.732 0 0 0-8.658-8.481 15.733 15.733 0 0 0-12.12.124 15.733 15.733 0 0 0-8.481 8.658l-.043.108Z" fill="#2D2D2D"/><path d="M108.013 261.844c3.006 1.156 5.421 3.206 7.088 5.763 1.249 1.917 2.3 8.224-.086 14.596-2.212 5.909-7.413 10.058-9.625 10.643-2.951.78-6.116.682-9.122-.474-7.954-3.06-8.622-11.162-5.378-19.593 3.243-8.43 9.169-13.995 17.123-10.935Z" fill="#263238"/><path d="M115.251 282.623c-2.341 5.945-7.489 9.979-9.766 10.58-3.135.829-6.368.661-9.35-.486-3.883-1.494-6.277-4.202-7.117-8.05-.734-3.362-.206-7.519 1.526-12.022 1.732-4.505 4.128-7.942 6.926-9.945 3.202-2.292 6.794-2.697 10.677-1.203 2.982 1.147 5.494 3.19 7.265 5.906 1.228 1.883 2.473 8.195-.049 14.93l-.112.29Zm-23.927-9.938-.088.226c-1.726 4.486-4.677 15.327 5.165 19.114 2.836 1.091 5.911 1.25 8.894.462 2.087-.552 7.047-4.505 9.268-10.141.036-.091.071-.182.105-.274 2.399-6.407 1.242-12.546.122-14.264-1.685-2.585-4.074-4.528-6.91-5.619-9.679-3.724-14.75 5.91-16.556 10.496Z" fill="#2D2D2D"/><path d="M106.118 264.582c-1.374-.836-2.98-.706-3.585.289-.606.996.017 2.481 1.391 3.317 1.374.836 2.979.707 3.585-.289.606-.996-.017-2.481-1.391-3.317ZM110.204 269.982c-.572-.467-1.36-.448-1.761.042-.401.491-.263 1.267.309 1.734.572.468 1.36.449 1.761-.042.401-.49.262-1.267-.309-1.734Z" fill="#fff" opacity=".7"/><path d="M99.452 261.959c2.498-1.182 5.367-1.343 8.562-.114 3.006 1.156 5.42 3.206 7.088 5.762 1.249 1.917 2.299 8.225-.086 14.597-.842 2.251-2.118 4.245-3.498 5.884 2.765-7.895 1.458-15.59-.092-17.967-2.115-3.245-5.181-5.846-8.995-7.313a16.574 16.574 0 0 0-2.98-.849Z" fill="#111A28" opacity=".35"/><path d="m90.46 288.297-1.074.626.51-.292-.483.335c-2.966-4.274-3.234-10.448-.737-16.938 2.484-6.449 6.736-10.87 11.684-12.151a.621.621 0 1 1 .323 1.2c-4.559 1.176-8.516 5.33-10.847 11.397-2.347 6.1-2.129 11.853.598 15.783a.37.37 0 0 1 .026.04Z" fill="#2D2D2D"/><path d="M102.315 290.764s-8.794-.555-10.294-5.987.853-11.511 1.189-11.218c0 0-.96 7.362 3.35 12.046 3.324 3.612 5.755 5.159 5.755 5.159Z" fill="#fff" opacity=".7"/><path d="m127.745 276.084 3.36.846 2.615.656c.71.179 1.162.875 1.034 1.597a54.96 54.96 0 0 1-.326 1.696c-.484 2.338-1.33 5.724-2.655 8.942a1.396 1.396 0 0 1-1.77.776l-6.667-2.433a1.398 1.398 0 0 1-.808-1.857c.944-2.225 2.783-6.677 3.536-9.263.21-.72.953-1.143 1.681-.96Z" fill="#fff"/><path d="m122.49 286.406-.754 2.735a1.188 1.188 0 0 0 .744 1.435l6.628 2.38a1.19 1.19 0 0 0 1.479-.615l1.107-2.365" fill="#fff"/><path d="m122.49 286.406-.754 2.735a1.188 1.188 0 0 0 .744 1.435l6.628 2.38a1.19 1.19 0 0 0 1.479-.615l1.107-2.365" fill="#2D2D2D" opacity=".25"/><path d="M132.501 289.49c-.071.18-.143.36-.217.539a1.939 1.939 0 0 1-2.465 1.083l-6.668-2.434a1.927 1.927 0 0 1-1.118-1.052 1.938 1.938 0 0 1-.007-1.534c.996-2.351 2.778-6.673 3.514-9.203a1.939 1.939 0 0 1 2.341-1.338l5.974 1.502a1.951 1.951 0 0 1 1.442 2.223c-.377 2.146-1.233 6.246-2.796 10.214Zm-9.472-2.949a.842.842 0 0 0 .011.648.841.841 0 0 0 .487.458l6.668 2.434a.844.844 0 0 0 1.074-.47c1.66-4.034 2.56-8.326 2.948-10.525a.852.852 0 0 0-.629-.969l-5.974-1.501a.843.843 0 0 0-1.02.581c-.752 2.583-2.551 6.95-3.557 9.324a.167.167 0 0 0-.008.02Z" fill="#2D2D2D"/><path d="m132.208 290.178-.014.032-1.107 2.365a1.73 1.73 0 0 1-2.161.899l-6.628-2.38a1.747 1.747 0 0 1-1.088-2.098l.754-2.735a.548.548 0 1 1 1.058.292l-.754 2.735a.644.644 0 0 0 .401.773l6.628 2.38a.637.637 0 0 0 .796-.331l1.107-2.365a.55.55 0 0 1 1.008.433ZM134.163 284.555a.548.548 0 0 1-.681.319l-3.422-1.122-1.81 1.244a.55.55 0 0 1-.476.071l-4.138-1.31a.55.55 0 0 1 .331-1.047l3.882 1.229 1.813-1.245a.55.55 0 0 1 .482-.07l3.68 1.207a.55.55 0 0 1 .35.693l-.011.031Z" fill="#2D2D2D"/><path d="M130.65 277.667c.211.059 1.831.83 1.831.83l-.335 1.201c-.23.827-1.273 1.259-2.33.965-1.057-.294-1.727-1.203-1.496-2.031l.334-1.201s1.653.141 1.996.236Z" fill="#8A66E4"/><path d="M130.65 277.668c.211.058 1.831.828 1.831.828l-.012.04c-.468-.219-1.027-.474-1.145-.507-.344-.096-1.996-.236-1.996-.236l-.334 1.201c-.162.578.118 1.197.661 1.618-.964-.336-1.554-1.195-1.335-1.979l.334-1.202s1.652.141 1.996.237Z" fill="#fff"/><path d="M132.54 279.989c-.38.967-1.615 1.468-2.849 1.124-1.303-.362-2.119-1.531-1.82-2.604l.234-.839a.917.917 0 0 1 .969-.668c1.387.13 1.623.196 1.701.217.063.018.209.059 1.56.694a.916.916 0 0 1 .493 1.077l-.233.835a1.503 1.503 0 0 1-.055.164Zm-3.54-2.058-.231.827c-.158.569.379 1.236 1.172 1.457.794.221 1.597-.074 1.756-.641l.23-.823c-.901-.423-1.319-.606-1.405-.634-.118-.032-.578-.097-1.522-.186Z" fill="#2D2D2D"/><path d="M132.478 278.494c.23-.827-.44-1.736-1.496-2.03-1.057-.294-2.1.138-2.331.965-.23.827.44 1.736 1.496 2.03 1.057.295 2.1-.138 2.331-.965Z" fill="#8A66E4"/><path d="M130.983 276.467c.128.036.25.08.365.133-.914-.106-1.741.314-1.944 1.04-.202.728.29 1.519 1.131 1.898a2.54 2.54 0 0 1-.387-.075c-1.056-.294-1.726-1.204-1.495-2.031.23-.828 1.274-1.259 2.33-.965Z" fill="#fff"/><path d="M132.873 278.794c-.181.461-.555.826-1.069 1.039-.536.222-1.167.25-1.779.08-.61-.17-1.136-.521-1.48-.988-.37-.502-.49-1.076-.34-1.617.151-.542.551-.971 1.127-1.209.536-.222 1.167-.25 1.778-.08.611.17 1.137.521 1.481.988.37.501.49 1.075.339 1.617a1.615 1.615 0 0 1-.057.17Zm-3.744-1.311c-.01.025-.018.05-.026.075-.072.259-.004.548.192.813.221.301.569.529.98.643.412.115.828.099 1.172-.043.305-.126.513-.339.584-.598.072-.259.005-.548-.191-.813-.221-.3-.569-.529-.98-.643-.412-.115-.828-.099-1.172.043-.275.115-.471.298-.559.523Z" fill="#2D2D2D"/><path d="M119.189 301.563s2.923-2.837 5.875-11.16c0 0 2.035-.936 2.633 1.037.599 1.974-2.051 10.711-5.383 12.011-2.109.824-3.125-1.888-3.125-1.888Z" fill="#fff"/><path d="M127.696 291.439c.598 1.973-2.052 10.71-5.384 12.011-1.003.391-1.758-.016-2.274-.553.165-.022.338-.067.52-.138 3.332-1.301 5.982-10.038 5.384-12.011a2.244 2.244 0 0 0-.235-.534c.648-.108 1.608-.029 1.989 1.225Z" fill="#2D2D2D" opacity=".25"/><path d="M126.939 298.027c-.755 1.917-2.293 5.102-4.426 5.934-.677.264-1.331.259-1.945-.015-1.273-.569-1.869-2.126-1.893-2.192l-.126-.336.257-.249c.043-.043 2.888-2.907 5.741-10.951l.077-.218.211-.097c.121-.055 1.209-.53 2.201-.084.393.177.917.573 1.186 1.461.401 1.323-.357 4.357-1.231 6.615l-.052.132Zm-7.099 3.639c.195.381.595 1.02 1.179 1.279.34.151.698.149 1.095-.006 3.052-1.191 5.563-9.675 5.057-11.341-.121-.401-.313-.656-.585-.778-.353-.159-.81-.079-1.091.006-2.452 6.827-4.861 9.936-5.655 10.84Z" fill="#2D2D2D"/><path d="M142.956 276.777c1.007 1.824.887 6.357-1.292 7.964-1.818 1.343-3.439.77-4.857 1.671-.082.053-.267.237-.55.518.315-4.499 1.124-8.411 2.211-11.789 2.307-.732 3.654.124 4.488 1.636Z" fill="#2D2D2D" opacity=".25"/><path d="M117.272 286.561c7.341-2.274 13.667-8.304 19.38-11.145 3.131-1.557 4.03-.764 5.013 1.015 1.007 1.824 1.306 5.293-.872 6.901-1.819 1.343-2.924 1.035-4.342 1.936-.56.356-5.845 7.535-14.535 9.253" fill="#fff"/><path d="M141.664 276.43c1.007 1.823 1.306 5.293-.872 6.9-1.819 1.343-2.924 1.037-4.343 1.938-.559.354-5.844 7.534-14.534 9.251l-.08-.136c7.173-2.909 9.523-7.96 13.522-10.354 1.441-.863 1.8-.846 3.618-2.189 2.178-1.608 1.88-5.077.873-6.9a10.1 10.1 0 0 0-.194-.337c.924.128 1.453.819 2.01 1.827Z" fill="#2D2D2D" opacity=".25"/><path d="M117.211 286.362c1.044-.686 2.114-1.169 3.174-1.719a106.6 106.6 0 0 0 3.169-1.664 51.586 51.586 0 0 0 3.068-1.897c1.008-.661 2.006-1.347 3.009-2.03 1.005-.683 2.007-1.373 3.039-2.034.255-.169.514-.332.776-.493.262-.161.521-.325.785-.483.535-.308 1.063-.626 1.618-.907.542-.294 1.115-.57 1.722-.801.156-.053.31-.108.468-.158.165-.042.325-.09.494-.126l.261-.043.13-.021c.045-.005.091-.007.137-.01l.276-.014c.094.001.191.011.287.017.381.037.793.155 1.125.379.333.216.604.489.816.764.211.277.391.558.546.835.08.133.157.286.233.44.081.151.136.308.202.463.241.624.39 1.267.461 1.923.07.655.061 1.324-.056 1.988a5.204 5.204 0 0 1-.729 1.919l-.15.218a1.48 1.48 0 0 1-.162.209c-.121.13-.231.271-.364.388-.134.115-.27.234-.406.341-.135.093-.265.191-.405.279a7.55 7.55 0 0 1-.868.483c-.302.14-.613.261-.919.359-.616.198-1.181.326-1.657.551-.062.025-.119.058-.178.087-.06.03-.118.06-.174.095l-.086.051-.042.025-.022.013c-.01.005.002.001.001.001a.016.016 0 0 0 .01-.008l-.025.025c-.021.02-.038.035-.063.063-.191.198-.4.431-.606.654-.415.451-.841.898-1.279 1.333-1.75 1.742-3.694 3.312-5.841 4.572a25.68 25.68 0 0 1-1.642.888c-.562.269-1.118.555-1.698.791-.288.122-.582.23-.882.319a4.742 4.742 0 0 1-.452.128 6.68 6.68 0 0 1-1.395.221 5.012 5.012 0 0 1-.96-.054.22.22 0 0 1-.091-.399l.011-.007c.269-.186.544-.317.816-.451.27-.14.547-.246.819-.363.137-.057.275-.109.413-.16.138-.051.273-.109.411-.161.137-.054.274-.105.413-.153.137-.053.274-.106.413-.156a16.553 16.553 0 0 0 1.634-.673 23.197 23.197 0 0 0 1.56-.842c2.042-1.198 3.907-2.702 5.595-4.381.423-.421.834-.853 1.241-1.294.206-.223.402-.443.631-.682.026-.028.065-.064.099-.097.019-.018.03-.03.057-.053a1.49 1.49 0 0 1 .145-.112l.028-.016.055-.033.111-.065a4.9 4.9 0 0 1 .455-.236c.627-.29 1.255-.428 1.792-.604a6.155 6.155 0 0 0 1.496-.704c.117-.073.23-.159.345-.237l.29-.245c.096-.082.17-.185.258-.275a.896.896 0 0 0 .116-.15l.108-.157a3.98 3.98 0 0 0 .549-1.462c.183-1.06.05-2.224-.34-3.243-.053-.125-.097-.256-.161-.371-.059-.119-.117-.238-.193-.365a5.964 5.964 0 0 0-.447-.688 2.069 2.069 0 0 0-.501-.478c-.172-.119-.364-.168-.582-.193-.439-.041-.977.085-1.5.284-.527.201-1.051.45-1.576.735-.528.267-1.04.576-1.557.873-.257.154-.51.315-.765.472-.255.156-.509.316-.761.482-1.011.648-2.009 1.336-3.011 2.016-1.004.683-2.005 1.373-3.027 2.042-1.016.676-2.061 1.317-3.102 1.968-1.057.629-2.125 1.252-3.273 1.725-1.126.507-2.339.863-3.596.944a.211.211 0 0 1-.226-.199.21.21 0 0 1 .095-.191l.007-.005Z" fill="#2D2D2D"/><path d="M130.4 291.331a.548.548 0 0 1-.828.247c-.257-.182-6.253-4.482-4.427-9.118l.031-.075a.548.548 0 0 1 .716-.298c.28.115.421.439.298.716l-.022.057c-1.516 3.847 3.981 7.782 4.037 7.822a.55.55 0 0 1 .195.649ZM127.298 268.268a.56.56 0 0 1-.164.224c-2.46 2.005-9.493-.548-10.287-.846a.55.55 0 0 1-.321-.707l.003-.008a.55.55 0 0 1 .703-.313c1.994.747 7.535 2.387 9.209 1.023a.55.55 0 0 1 .857.627ZM115.905 258.898c.034.007.094.028.144.044l.161.052c.108.033.217.071.327.102.22.07.444.128.671.182.229.056.461.095.702.141.244.058.492.088.777.168a1.892 1.892 0 0 1-.729.426c-.133.048-.27.073-.409.099-.138.015-.279.034-.418.034a3.68 3.68 0 0 1-.837-.071c-.136-.031-.274-.062-.407-.11-.067-.024-.134-.047-.2-.078a1.796 1.796 0 0 1-.209-.102.49.49 0 0 1 .342-.906l.085.019Z" fill="#2D2D2D"/></g><defs><radialGradient id="b" cx="0" cy="0" r="1" gradientUnits="userSpaceOnUse" gradientTransform="matrix(352.066 0 0 350.487 190.271 227.79)"><stop stop-color="#fff"/><stop offset=".193" stop-color="#fff"/><stop offset=".391" stop-color="#BEA5FF"/><stop offset=".609" stop-color="#6B3DE1"/><stop offset=".898" stop-color="#2B1B6C"/></radialGradient><clipPath id="a"><path fill="#fff" d="M0 0h320v405H0z"/></clipPath></defs></svg>