<svg xmlns="http://www.w3.org/2000/svg" width="41" height="42" fill="none"><path fill="url(#a)" d="M10.443 10.37C5.512 15.154 4.499 22.556 7.51 28.356a.818.818 0 0 0 1.146.316l2.338-1.353c.43-.25.57-.81.348-1.256-2.009-4.04-1.27-9.139 2.138-12.445a10.525 10.525 0 0 1 1.786-1.394c.428-.265.602-.823.359-1.262l-1.311-2.368a.818.818 0 0 0-1.138-.323 14.979 14.979 0 0 0-2.733 2.1Z"/><path fill="url(#b)" d="M20.37 31.847a10.126 10.126 0 0 1-4.78-1.294.9.9 0 0 0-.892-.004l-2.69 1.557c-.522.302-.597 1.035-.116 1.393a14.41 14.41 0 0 0 8.354 2.844c2.708.053 5.326-.63 7.629-1.963a15.041 15.041 0 0 0 2.302-1.641.853.853 0 0 0 .052-1.227l-1.848-1.971c-.329-.35-.875-.358-1.249-.05a10.28 10.28 0 0 1-6.763 2.356Z"/><path fill="url(#c)" d="M19.52 6.269c-.601.048-.925.718-.633 1.251l1.513 2.761a.898.898 0 0 0 .75.459c2.286.111 4.533.984 6.336 2.613.357.322.904.336 1.252-.002l1.959-1.9c.347-.337.365-.896.018-1.227A14.51 14.51 0 0 0 19.52 6.27Z"/><rect width="1.586" height="9.435" x="17.027" y="16.811" fill="#9C7DFF" rx=".793"/><rect width="1.586" height="7.821" x="9.426" y="18.069" fill="#9C7DFF" rx=".793"/><rect width="1.586" height="3.747" x="14.43" y="18.78" fill="#9C7DFF" rx=".793"/><rect width="1.586" height="3.747" x="14.43" y="23.457" fill="#9C7DFF" rx=".793"/><rect width="1.586" height="10.064" x="11.941" y="19.328" fill="#9C7DFF" rx=".793"/><rect width="1.586" height="4.294" x="17.027" y="27.806" fill="#9C7DFF" rx=".793"/><rect width="1.586" height="6.673" x="18.615" y="27.806" fill="#9C7DFF" rx=".793" transform="rotate(90 18.615 27.806)"/><rect width="1.586" height="3.418" x="18.615" y="30.513" fill="#9C7DFF" rx=".793" transform="rotate(90 18.615 30.513)"/><rect width="1.586" height="2.352" x="16.234" y="10.685" fill="#9C7DFF" rx=".793"/><rect width="2.352" height="1.586" x="12.406" y="10.685" fill="#9C7DFF" rx=".793"/><rect width="1.586" height="1.586" x="15.277" y="13.612" fill="#9C7DFF" rx=".793"/><rect width="1.586" height="4.184" x="11.941" y="13.312" fill="#9C7DFF" rx=".793"/><rect width="1.586" height="3.418" x="13.527" y="13.284" fill="#9C7DFF" rx=".793" transform="rotate(90 13.527 13.284)"/><rect width="1.586" height="4.594" x="16.537" y="15.938" fill="#9C7DFF" rx=".793" transform="rotate(90 16.537 15.938)"/><rect width="1.586" height="5.798" x="19.762" y="15.882" fill="#9C7DFF" rx=".793"/><rect width="1.586" height="4.184" x="19.762" y="10.685" fill="#9C7DFF" rx=".793"/><rect width="1.586" height="3.418" x="23.18" y="10.685" fill="#9C7DFF" rx=".793" transform="rotate(90 23.18 10.685)"/><rect width="1.586" height="3.719" x="28.021" y="10.685" fill="#9C7DFF" rx=".793" transform="rotate(90 28.021 10.685)"/><rect width="1.586" height="3.719" x="26.436" y="10.685" fill="#9C7DFF" rx=".793"/><rect width="1.586" height="5.196" x="25.041" y="13.312" fill="#9C7DFF" rx=".793" transform="rotate(90 25.041 13.312)"/><rect width="1.586" height="4.376" x="25.314" y="15.882" fill="#9C7DFF" rx=".793"/><rect width="1.586" height="5.934" x="30.975" y="24.77" fill="#9C7DFF" rx=".793" transform="rotate(90 30.975 24.77)"/><rect width="1.586" height="3.528" x="30.127" y="27.012" fill="#9C7DFF" rx=".793" transform="rotate(90 30.127 27.012)"/><rect width="1.586" height="3.528" x="30.428" y="14.678" fill="#9C7DFF" rx=".793" transform="rotate(90 30.428 14.678)"/><rect width="1.586" height="3.528" x="31.357" y="17.741" fill="#9C7DFF" rx=".793" transform="rotate(90 31.357 17.741)"/><rect width="1.586" height="3.528" x="31.357" y="20.311" fill="#9C7DFF" rx=".793" transform="rotate(90 31.357 20.311)"/><rect width="1.586" height="3.528" x="29.771" y="20.311" fill="#9C7DFF" rx=".793"/><rect width="1.586" height="2.297" x="27.83" y="17.03" fill="#9C7DFF" rx=".793"/><rect width="1.586" height="2.243" x="28.377" y="29.255" fill="#9C7DFF" rx=".793" transform="rotate(90 28.377 29.255)"/><rect width="1.586" height="6.235" x="22.496" y="15.608" fill="#9C7DFF" rx=".793"/><rect width="1.458" height="2.817" x="25.313" y="20.386" fill="#9C7DFF" rx=".729" transform="rotate(90 25.313 20.386)"/><rect width="1.586" height="7.548" x="28.377" y="22.664" fill="#9C7DFF" rx=".793" transform="rotate(90 28.377 22.664)"/><rect width="1.586" height="3.835" x="24.664" y="30.513" fill="#9C7DFF" rx=".793" transform="rotate(90 24.664 30.513)"/><rect width="1.586" height="4.535" x="25.363" y="26.766" fill="#9C7DFF" rx=".793" transform="rotate(90 25.363 26.766)"/><rect width="1.765" height="1.996" x="23.598" y="26.766" fill="#9C7DFF" rx=".883"/><rect width="1.765" height="9.435" x="22.594" y="32.099" fill="#9C7DFF" rx=".883" transform="rotate(180 22.594 32.099)"/><defs><linearGradient id="a" x1="7.179" x2="14.891" y1="11.74" y2="25.062" gradientUnits="userSpaceOnUse"><stop stop-color="#fff"/><stop offset="1" stop-color="#fff"/></linearGradient><linearGradient id="b" x1="18.588" x2="23.555" y1="28.298" y2="36.88" gradientUnits="userSpaceOnUse"><stop stop-color="#fff"/><stop offset="1" stop-color="#fff"/></linearGradient><linearGradient id="c" x1="22.286" x2="28.021" y1="4.105" y2="14.013" gradientUnits="userSpaceOnUse"><stop stop-color="#fff"/><stop offset="1" stop-color="#fff"/></linearGradient></defs></svg>