<svg width="108" height="108" fill="none" xmlns="http://www.w3.org/2000/svg"><path d="M54 108c29.823 0 54-24.177 54-54S83.823 0 54 0 0 24.177 0 54s24.177 54 54 54Z" fill="url(#a)"/><path d="M54 100.163c25.496 0 46.164-20.668 46.164-46.164 0-25.496-20.668-46.164-46.164-46.164-25.496 0-46.164 20.668-46.164 46.164 0 25.496 20.668 46.164 46.164 46.164Z" fill="url(#b)"/><path d="M54 100.163c25.496 0 46.164-20.668 46.164-46.164 0-25.496-20.668-46.164-46.164-46.164-25.496 0-46.164 20.668-46.164 46.164 0 25.496 20.668 46.164 46.164 46.164Z" fill="url(#c)"/><path d="M73.537 71.744c.38-.633.725-1.335.633-2.06-.184-1.427-1.898-2.083-3.325-2.106-3.406-.046-6.525 1.818-9.252 3.867-2.727 2.048-5.327 4.372-8.537 5.534-3.2 1.15-7.272.794-9.367-1.898-2.197-2.82-1.45-6.962-2.945-10.207-.196-.437-.46-.874-.863-1.127-.99-.622-2.244.08-3.21.736-5.478 3.74-11.588 6.858-18.18 7.594a23.724 23.724 0 0 1-7.1-.276 46.393 46.393 0 0 0 17.605 21.011 8.259 8.259 0 0 1 .517-1.53c2.451-5.224 9.367-6.099 15.131-6.536 5.489-.414 11.012-1.093 16.156-3.038 5.131-1.933 9.918-5.247 12.737-9.964Z" fill="url(#d)"/><path d="M99.818 59.558c-3.107.08-6.168.299-8.734 1.967-4.257 2.762-5.465 8.573-4.798 13.6.173 1.313.437 2.716-.115 3.925-.345.736-.955 1.323-1.577 1.852-5.845 5.017-13.313 7.652-19.986 11.507-2.923 1.691-6.007 4.234-6.018 7.536 21.517-2.128 38.662-19.008 41.228-40.387Z" fill="url(#e)"/><path d="M7.836 54c0 .265.011.53.023.795a8.845 8.845 0 0 0 2.474 1.323c2.037.69 4.372.748 6.03 2.117.897.748 1.484 1.818 2.381 2.578 2.22 1.887 5.776 1.277 8.043-.553 2.267-1.83 3.579-4.568 4.856-7.191 1.277-2.624 2.692-5.328 5.086-6.996a9.093 9.093 0 0 1 6.892-1.438c2.094.425 4.108 1.599 6.225 1.323 2.762-.357 4.683-3.222 4.775-6.007.092-2.784-1.23-5.42-2.83-7.697-.783-1.128-1.657-2.221-2.117-3.521-1.243-3.498.851-7.319 3.417-9.988 2.577-2.67 5.753-4.879 7.514-8.147.368-.679.644-1.427.748-2.186A46.85 46.85 0 0 0 54 7.825C28.502 7.837 7.836 28.514 7.836 54.001Z" fill="url(#f)"/><path d="M73.041 19.344c.829 2.773 2.566 5.178 3.809 7.79 1.243 2.612 1.99 5.742.76 8.365-1.508 3.21-5.294 4.476-8.516 5.949a34.032 34.032 0 0 0-8.008 5.132c-2.67 2.301-5.155 5.546-4.557 9.02.622 3.637 4.361 5.892 7.928 6.836 2.244.598 4.73.851 6.824-.161 3.97-1.91 5.074-7.491 9.032-9.401 3.188-1.542 6.916-.138 10.448.15 3.234.264 6.432-.518 9.309-2.003-1.116-17.386-11.84-32.16-26.937-39.03-.736 2.382-.805 4.96-.092 7.353Z" fill="url(#g)"/><path opacity=".25" d="M84.16 19.066a45.95 45.95 0 0 1 1.37 11.185c0 25.498-20.666 46.164-46.165 46.164-11.53 0-22.07-4.235-30.17-11.23 5.006 20.09 23.151 34.979 44.795 34.979 25.498 0 46.164-20.665 46.164-46.164.012-13.957-6.19-26.465-15.994-34.934Z" fill="url(#h)"/><path opacity=".34" d="M92.204 34.68a42.695 42.695 0 0 1 2.394 14.154c0 23.726-19.24 42.965-42.966 42.965-16.603 0-30.987-9.424-38.144-23.197 5.857 16.753 21.794 28.766 40.55 28.766 23.726 0 42.965-19.239 42.965-42.965a42.554 42.554 0 0 0-4.799-19.722Z" fill="url(#i)"/><path opacity=".45" d="M10.701 58.095c0-25.498 20.666-46.164 46.164-46.164 14.774 0 27.926 6.95 36.372 17.755C85.091 16.568 70.57 7.835 54 7.835c-25.498 0-46.164 20.666-46.164 46.164 0 10.724 3.659 20.574 9.792 28.41a45.912 45.912 0 0 1-6.927-24.314Z" fill="#7A4AFF"/><path d="M14.65 63.296c-1.381-5.477.782-13.773 1.886-17.766 2.601-9.4 7.986-17.835 15.845-23.692 20.539-15.315 44.185-4.142 50.468 2.704 6.282 6.847-1.105 14.234-12.45 14.05C59.052 38.408 47.88 38.235 41.39 44c-6.49 5.765-5.95 20.355-14.59 23.416-2.866 1.012-6.997 1.99-9.69-.046-1.265-.932-2.036-2.37-2.462-4.074Z" fill="url(#j)"/><path opacity=".45" d="M35.153 27.904c2.497 2.198 1.358 7.583-2.543 12.024-3.912 4.442-9.102 6.248-11.599 4.05-2.497-2.197-1.357-7.582 2.543-12.024 3.912-4.43 9.102-6.248 11.599-4.05ZM48.453 19.332c.92 1.737-.84 4.453-3.912 6.075-3.072 1.622-6.306 1.542-7.226-.196-.92-1.737.84-4.453 3.912-6.075 3.084-1.622 6.317-1.542 7.226.196Z" fill="#7A4AFF"/><defs><radialGradient id="a" cx="0" cy="0" r="1" gradientUnits="userSpaceOnUse" gradientTransform="translate(55.024 54.764) scale(52.9384)"><stop stop-color="#382181"/><stop offset=".987" stop-color="#7C42A8" stop-opacity=".013"/></radialGradient><radialGradient id="b" cx="0" cy="0" r="1" gradientUnits="userSpaceOnUse" gradientTransform="translate(46.84 9.568) scale(135.388)"><stop stop-color="#4A289C"/><stop offset=".963" stop-color="#00092B"/></radialGradient><radialGradient id="c" cx="0" cy="0" r="1" gradientUnits="userSpaceOnUse" gradientTransform="translate(46.84 9.568) scale(135.388)"><stop stop-color="#4A289C"/><stop offset=".963" stop-color="#00092B"/></radialGradient><radialGradient id="d" cx="0" cy="0" r="1" gradientUnits="userSpaceOnUse" gradientTransform="translate(35.563 22.345) scale(71.1866)"><stop stop-color="#392182"/><stop offset=".868" stop-color="#7B42A9"/><stop offset=".898" stop-color="#7446AC"/></radialGradient><radialGradient id="e" cx="0" cy="0" r="1" gradientUnits="userSpaceOnUse" gradientTransform="translate(35.562 22.344) scale(71.2416)"><stop stop-color="#442693"/><stop offset=".868" stop-color="#7B42A9"/><stop offset=".898" stop-color="#7446AC"/></radialGradient><radialGradient id="f" cx="0" cy="0" r="1" gradientUnits="userSpaceOnUse" gradientTransform="translate(35.564 22.345) scale(71.1865)"><stop stop-color="#111045"/><stop offset=".868" stop-color="#7B42A9"/><stop offset=".898" stop-color="#7446AC"/></radialGradient><radialGradient id="g" cx="0" cy="0" r="1" gradientUnits="userSpaceOnUse" gradientTransform="matrix(71.1863 0 0 71.1864 35.562 22.346)"><stop stop-color="#22185F"/><stop offset=".898" stop-color="#7446AC"/></radialGradient><radialGradient id="h" cx="0" cy="0" r="1" gradientUnits="userSpaceOnUse" gradientTransform="translate(47.635 20.592) scale(122.8)"><stop stop-color="#1B1453"/><stop offset=".963" stop-color="#00092B"/></radialGradient><radialGradient id="i" cx="0" cy="0" r="1" gradientUnits="userSpaceOnUse" gradientTransform="translate(48.782 35.851) scale(100.652)"><stop stop-color="#2A1B6B"/><stop offset=".868" stop-color="#7B42A9"/><stop offset=".898" stop-color="#7446AC"/></radialGradient><radialGradient id="j" cx="0" cy="0" r="1" gradientUnits="userSpaceOnUse" gradientTransform="translate(44.179 15.177) scale(86.6673)"><stop stop-color="#4A289C"/><stop offset=".963" stop-color="#00092B"/></radialGradient></defs></svg>